<svg width="48" height="48" viewBox="0 0 48 48" fill="none" xmlns="http://www.w3.org/2000/svg">
<path d="M21 12L40.5 12M21 12C21 13.6569 19.6569 15 18 15C16.3431 15 15 13.6569 15 12M21 12C21 10.3431 19.6569 9 18 9C16.3431 9 15 10.3431 15 12M7.5 12H15M21 36H40.5M21 36C21 37.6569 19.6569 39 18 39C16.3431 39 15 37.6569 15 36M21 36C21 34.3431 19.6569 33 18 33C16.3431 33 15 34.3431 15 36M7.5 36L15 36M33 24L40.5 24M33 24C33 25.6569 31.6569 27 30 27C28.3431 27 27 25.6569 27 24M33 24C33 22.3431 31.6569 21 30 21C28.3431 21 27 22.3431 27 24M7.5 24H27" stroke="#AC9AFF" stroke-width="3" stroke-linecap="round" stroke-linejoin="round"/>
</svg>
