<svg width="56" height="56" viewBox="0 0 56 56" fill="none" xmlns="http://www.w3.org/2000/svg">
<path d="M8.75 7V33.25C8.75 36.1495 11.1005 38.5 14 38.5H19.25M8.75 7H5.25M8.75 7H47.25M47.25 7H50.75M47.25 7V33.25C47.25 36.1495 44.8995 38.5 42 38.5H36.75M19.25 38.5H36.75M19.25 38.5L16.9167 45.5M36.75 38.5L39.0833 45.5M39.0833 45.5L40.25 49M39.0833 45.5H16.9167M16.9167 45.5L15.75 49M17.5 28L24.5 21L29.5111 26.0111C31.8598 22.6404 34.9309 19.8105 38.5 17.7459" stroke="#AC9AFF" stroke-width="3" stroke-linecap="round" stroke-linejoin="round"/>
</svg>
