<svg width="56" height="56" viewBox="0 0 56 56" fill="none" xmlns="http://www.w3.org/2000/svg">
<path d="M47.25 33.0165V42.9332C47.25 45.487 45.4139 47.6838 42.8824 48.0199C38.0134 48.6663 33.0457 49 28 49C22.9543 49 17.9866 48.6663 13.1176 48.0199C10.5861 47.6838 8.75 45.487 8.75 42.9332V33.0164M47.25 33.0165C48.3511 32.0778 49 30.6574 49 29.1407V20.3133C49 17.7911 47.2082 15.6119 44.7138 15.2387C42.0879 14.8458 39.4322 14.544 36.75 14.3368M47.25 33.0165C46.7982 33.4016 46.2704 33.7056 45.6799 33.9019C40.1224 35.7496 34.1781 36.75 28 36.75C21.822 36.75 15.8776 35.7496 10.3201 33.9019C9.72963 33.7056 9.20175 33.4015 8.75 33.0164M8.75 33.0164C7.64885 32.0778 7 30.6573 7 29.1407V20.3133C7 17.7911 8.79177 15.6119 11.2862 15.2387C13.9121 14.8458 16.5678 14.544 19.25 14.3368M36.75 14.3368V12.25C36.75 9.35051 34.3995 7 31.5 7H24.5C21.6005 7 19.25 9.3505 19.25 12.25V14.3368M36.75 14.3368C33.8626 14.1136 30.9446 14 28 14C25.0554 14 22.1374 14.1136 19.25 14.3368M28 29.75H28.0175V29.7675H28V29.75Z" stroke="#AC9AFF" stroke-width="3" stroke-linecap="round" stroke-linejoin="round"/>
</svg>
