<svg width="48" height="48" viewBox="0 0 48 48" fill="none" xmlns="http://www.w3.org/2000/svg">
<path d="M40.5 17.0221C42.2681 17.591 43.5 19.2784 43.5 21.2164V29.7876C43.5 32.0608 41.8052 33.9885 39.5395 34.1734C38.8616 34.2287 38.1818 34.2771 37.5 34.3185V40.5L31.5 34.5C28.7925 34.5 26.1112 34.3896 23.4605 34.1732C22.8638 34.1245 22.3068 33.955 21.8099 33.6901M40.5 17.0221C40.1972 16.9246 39.8786 16.86 39.5478 16.8326C36.8944 16.6123 34.2103 16.5 31.4999 16.5C28.7896 16.5 26.1056 16.6123 23.4522 16.8325C21.19 17.0203 19.5 18.9465 19.5 21.2164V29.7874C19.5 31.462 20.4197 32.9491 21.8099 33.6901M40.5 17.0221V13.2746C40.5 10.0318 38.1965 7.22129 34.9807 6.80382C30.8957 6.27351 26.7301 6 22.5006 6C18.2707 6 14.1047 6.27357 10.0193 6.80398C6.80346 7.22149 4.5 10.032 4.5 13.2748V25.7253C4.5 28.9681 6.80347 31.7786 10.0193 32.1961C11.1732 32.3459 12.3336 32.4752 13.5 32.5837V42L21.8099 33.6901" stroke="#AC9AFF" stroke-width="3" stroke-linecap="round" stroke-linejoin="round"/>
</svg>
