<svg width="48" height="48" viewBox="0 0 48 48" fill="none" xmlns="http://www.w3.org/2000/svg">
<path d="M40.5 12.75C40.5 17.3063 33.1127 21 24 21C14.8873 21 7.5 17.3063 7.5 12.75M40.5 12.75C40.5 8.19365 33.1127 4.5 24 4.5C14.8873 4.5 7.5 8.19365 7.5 12.75M40.5 12.75V35.25C40.5 39.8064 33.1127 43.5 24 43.5C14.8873 43.5 7.5 39.8064 7.5 35.25V12.75M40.5 12.75V20.25M7.5 12.75V20.25M40.5 20.25V27.75C40.5 32.3063 33.1127 36 24 36C14.8873 36 7.5 32.3063 7.5 27.75V20.25M40.5 20.25C40.5 24.8063 33.1127 28.5 24 28.5C14.8873 28.5 7.5 24.8063 7.5 20.25" stroke="#AC9AFF" stroke-width="3" stroke-linecap="round" stroke-linejoin="round"/>
</svg>
