<svg width="48" height="48" viewBox="0 0 48 48" fill="none" xmlns="http://www.w3.org/2000/svg">
<path d="M24 4.5C13.248 4.5 4.5 13.248 4.5 24C4.5 34.752 13.248 43.5 24 43.5C34.752 43.5 43.5 34.752 43.5 24C43.5 13.248 34.752 4.5 24 4.5ZM24 40.5C14.902 40.5 7.5 33.098 7.5 24C7.5 14.902 14.902 7.5 24 7.5C33.098 7.5 40.5 14.902 40.5 24C40.5 33.098 33.098 40.5 24 40.5ZM33.5 24C33.5 24.828 32.828 25.5 32 25.5H24C23.172 25.5 22.5 24.828 22.5 24V14C22.5 13.172 23.172 12.5 24 12.5C24.828 12.5 25.5 13.172 25.5 14V22.5H32C32.828 22.5 33.5 23.172 33.5 24Z" fill="#AC9AFF"/>
</svg>
