<svg width="48" height="48" viewBox="0 0 48 48" fill="none" xmlns="http://www.w3.org/2000/svg">
<g clip-path="url(#clip0_13596_9347)">
<path d="M45 0.75H3C2.13805 0.75 1.3114 1.09241 0.701903 1.7019C0.0924098 2.31139 -0.25 3.13804 -0.25 4V34C-0.25 34.8619 0.09241 35.6886 0.701903 36.2981C1.3114 36.9076 2.13805 37.25 3 37.25H16.75V44.75H15C14.6685 44.75 14.3505 44.8817 14.1161 45.1161C13.8817 45.3505 13.75 45.6684 13.75 46C13.75 46.3315 13.8817 46.6494 14.1161 46.8838C14.3505 47.1183 14.6685 47.25 15 47.25H33C33.3315 47.25 33.6495 47.1183 33.8839 46.8838C34.1183 46.6494 34.25 46.3315 34.25 46C34.25 45.6684 34.1183 45.3505 33.8839 45.1161C33.6495 44.8817 33.3315 44.75 33 44.75H31.25V37.25H45C45.862 37.25 46.6886 36.9076 47.2981 36.2981C47.9076 35.6886 48.25 34.8619 48.25 34V4C48.25 3.13804 47.9076 2.31139 47.2981 1.7019C46.6886 1.09241 45.862 0.75 45 0.75ZM2.25 4C2.25 3.80108 2.32902 3.61032 2.46967 3.46967C2.61032 3.32902 2.80109 3.25 3 3.25H45C45.1989 3.25 45.3897 3.32902 45.5303 3.46967C45.671 3.61032 45.75 3.80108 45.75 4V28.75H2.25V4ZM28.75 44.75H19.25V37.25H28.75V44.75ZM45.75 34C45.75 34.1989 45.671 34.3897 45.5303 34.5303C45.3897 34.671 45.1989 34.75 45 34.75H3C2.80109 34.75 2.61032 34.671 2.46967 34.5303C2.32902 34.3896 2.25 34.1989 2.25 34V31.25H45.75V34Z" fill="#AC9AFF" stroke="#AC9AFF" stroke-width="0.5"/>
</g>
<defs>
<clipPath id="clip0_13596_9347">
<rect width="48" height="48" fill="white"/>
</clipPath>
</defs>
</svg>
