<svg width="48" height="48" viewBox="0 0 48 48" fill="none" xmlns="http://www.w3.org/2000/svg">
<path d="M20.25 4.5H11.25C10.0074 4.5 9 5.50736 9 6.75V41.25C9 42.4926 10.0074 43.5 11.25 43.5H36.75C37.9926 43.5 39 42.4926 39 41.25V23.25M20.25 4.5H21C30.9411 4.5 39 12.5589 39 22.5V23.25M20.25 4.5C23.9779 4.5 27 7.52208 27 11.25V14.25C27 15.4926 28.0074 16.5 29.25 16.5H32.25C35.9779 16.5 39 19.5221 39 23.25M18 30L22.5 34.5L30 24" stroke="#AC9AFF" stroke-width="3" stroke-linecap="round" stroke-linejoin="round"/>
</svg>
