<svg width="48" height="48" viewBox="0 0 48 48" fill="none" xmlns="http://www.w3.org/2000/svg">
<path d="M13.2651 20.5C14.8778 20.5 16.333 19.6083 17.3282 18.3393C18.8745 16.3677 20.8234 14.7268 23.0511 13.5404C24.4953 12.7713 25.7486 11.6286 26.3563 10.1093C26.7815 9.04619 27 7.91173 27 6.76676V5.5C27 4.67157 27.6716 4 28.5 4C30.9853 4 33 6.01472 33 8.5C33 10.8033 32.4809 12.9853 31.5533 14.9354C31.0221 16.0521 31.7672 17.5 33.0038 17.5M33.0038 17.5H39.2555C41.3087 17.5 43.1466 18.888 43.364 20.9297C43.4539 21.7742 43.5 22.6317 43.5 23.5C43.5 29.1952 41.5162 34.4272 38.202 38.5424C37.4268 39.505 36.2284 40 34.9925 40H26.9605C25.9932 40 25.0321 39.8441 24.1144 39.5382L17.8856 37.4618C16.9679 37.1559 16.0068 37 15.0395 37H11.8084M33.0038 17.5H28.5M11.8084 37C11.974 37.4092 12.1543 37.8108 12.3485 38.2044C12.7427 39.0035 12.1924 40 11.3013 40H9.48577C7.70835 40 6.05983 38.964 5.54111 37.2639C4.86417 35.0453 4.5 32.6902 4.5 30.25C4.5 27.1451 5.08961 24.1779 6.16298 21.4542C6.77309 19.9061 8.33467 19 9.99871 19H12.1042C13.0481 19 13.5946 20.1118 13.1046 20.9185C11.4518 23.6396 10.5 26.8336 10.5 30.25C10.5 32.637 10.9646 34.9155 11.8084 37Z" stroke="#AC9AFF" stroke-width="3" stroke-linecap="round" stroke-linejoin="round"/>
</svg>
