<svg width="44" height="44" viewBox="0 0 44 44" fill="none" xmlns="http://www.w3.org/2000/svg">
<path d="M6.875 5.5V26.125C6.875 28.4032 8.72183 30.25 11 30.25H15.125M6.875 5.5H4.125M6.875 5.5H37.125M37.125 5.5H39.875M37.125 5.5V26.125C37.125 28.4032 35.2782 30.25 33 30.25H28.875M15.125 30.25H28.875M15.125 30.25L13.2917 35.75M28.875 30.25L30.7083 35.75M30.7083 35.75L31.625 38.5M30.7083 35.75H13.2917M13.2917 35.75L12.375 38.5M13.75 22L19.25 16.5L23.1873 20.4373C25.0327 17.7888 27.4457 15.5654 30.25 13.9432" stroke="#AC9AFF" stroke-width="3" stroke-linecap="round" stroke-linejoin="round"/>
</svg>
