<svg width="56" height="56" viewBox="0 0 56 56" fill="none" xmlns="http://www.w3.org/2000/svg">
<path d="M47.25 27.1238H40.25V13.1238C40.2485 12.8355 40.1758 12.5521 40.0385 12.2987C39.9011 12.0453 39.7032 11.8298 39.4625 11.6713L28.9625 4.67127C28.6768 4.4831 28.3421 4.38281 28 4.38281C27.6579 4.38281 27.3232 4.4831 27.0375 4.67127L16.5375 11.6713C16.2968 11.8298 16.0989 12.0453 15.9615 12.2987C15.8242 12.5521 15.7515 12.8355 15.75 13.1238V27.1238H8.75C7.35761 27.1238 6.02226 27.6769 5.03769 28.6615C4.05312 29.646 3.5 30.9814 3.5 32.3738V49.8738C3.5 50.3379 3.68437 50.783 4.01256 51.1112C4.34075 51.4394 4.78587 51.6238 5.25 51.6238H50.75C51.2141 51.6238 51.6592 51.4394 51.9874 51.1112C52.3156 50.783 52.5 50.3379 52.5 49.8738V32.3738C52.5 30.9814 51.9469 29.646 50.9623 28.6615C49.9777 27.6769 48.6424 27.1238 47.25 27.1238ZM7 32.3738C7 31.9096 7.18437 31.4645 7.51256 31.1363C7.84075 30.8081 8.28587 30.6238 8.75 30.6238H15.75V48.1238H7V32.3738ZM19.25 13.9988L28 8.22377L36.75 13.9988V48.1238H33.25V32.3738C33.25 31.9096 33.0656 31.4645 32.7374 31.1363C32.4092 30.8081 31.9641 30.6238 31.5 30.6238H24.5C24.0359 30.6238 23.5908 30.8081 23.2626 31.1363C22.9344 31.4645 22.75 31.9096 22.75 32.3738V48.1238H19.25V13.9988ZM26.25 48.1238V34.1238H29.75V48.1238H26.25ZM49 48.1238H40.25V30.6238H47.25C47.7141 30.6238 48.1592 30.8081 48.4874 31.1363C48.8156 31.4645 49 31.9096 49 32.3738V48.1238Z" fill="#AC9AFF"/>
<path d="M24.5 18.3738H31.5C31.9641 18.3738 32.4092 18.1894 32.7374 17.8612C33.0656 17.533 33.25 17.0879 33.25 16.6238C33.25 16.1596 33.0656 15.7145 32.7374 15.3863C32.4092 15.0581 31.9641 14.8738 31.5 14.8738H24.5C24.0359 14.8738 23.5908 15.0581 23.2626 15.3863C22.9344 15.7145 22.75 16.1596 22.75 16.6238C22.75 17.0879 22.9344 17.533 23.2626 17.8612C23.5908 18.1894 24.0359 18.3738 24.5 18.3738Z" fill="#AC9AFF"/>
<path d="M24.5 25.3738H31.5C31.9641 25.3738 32.4092 25.1894 32.7374 24.8612C33.0656 24.533 33.25 24.0879 33.25 23.6238C33.25 23.1596 33.0656 22.7145 32.7374 22.3863C32.4092 22.0581 31.9641 21.8738 31.5 21.8738H24.5C24.0359 21.8738 23.5908 22.0581 23.2626 22.3863C22.9344 22.7145 22.75 23.1596 22.75 23.6238C22.75 24.0879 22.9344 24.533 23.2626 24.8612C23.5908 25.1894 24.0359 25.3738 24.5 25.3738Z" fill="#AC9AFF"/>
</svg>
