<svg width="56" height="56" viewBox="0 0 56 56" fill="none" xmlns="http://www.w3.org/2000/svg">
<g clip-path="url(#clip0_14147_11304)">
<path d="M28.0001 32.965C27.0177 32.965 26.0574 32.6737 25.2406 32.128C24.4238 31.5822 23.7872 30.8065 23.4113 29.8989C23.0354 28.9913 22.937 27.9926 23.1286 27.0291C23.3203 26.0657 23.7933 25.1807 24.488 24.486C25.1826 23.7914 26.0676 23.3183 27.0311 23.1267C27.9946 22.935 28.9933 23.0334 29.9008 23.4093C30.8084 23.7853 31.5841 24.4219 32.1299 25.2387C32.6757 26.0555 32.967 27.0158 32.967 27.9981C32.9655 29.315 32.4417 30.5775 31.5105 31.5086C30.5794 32.4397 29.3169 32.9635 28.0001 32.965ZM28.0001 25.8695C27.5791 25.8695 27.1675 25.9943 26.8175 26.2282C26.4674 26.4621 26.1946 26.7946 26.0335 27.1835C25.8723 27.5725 25.8302 28.0005 25.9123 28.4134C25.9945 28.8263 26.1972 29.2056 26.4949 29.5033C26.7926 29.801 27.1719 30.0038 27.5848 30.0859C27.9977 30.168 28.4257 30.1259 28.8147 29.9648C29.2037 29.8037 29.5361 29.5308 29.77 29.1808C30.0039 28.8307 30.1288 28.4191 30.1288 27.9981C30.128 27.4338 29.9035 26.8928 29.5045 26.4938C29.1054 26.0947 28.5644 25.8702 28.0001 25.8695Z" fill="#AC9AFF"/>
<path d="M38.9926 28.7728C38.6186 28.7728 38.2598 28.6253 37.9941 28.3622C37.7284 28.0991 37.5772 27.7418 37.5735 27.3679C37.5503 24.1731 37.2656 20.9855 36.722 17.8372C36.6827 17.6511 36.6813 17.4591 36.7177 17.2725C36.754 17.0858 36.8276 16.9084 36.9339 16.7508C37.0402 16.5931 37.1771 16.4584 37.3364 16.3547C37.4958 16.251 37.6744 16.1804 37.8616 16.147C38.0488 16.1137 38.2408 16.1183 38.4261 16.1605C38.6115 16.2028 38.7865 16.2819 38.9407 16.3932C39.0949 16.5044 39.2252 16.6455 39.3238 16.8081C39.4224 16.9706 39.4874 17.1514 39.5148 17.3395C40.0865 20.6427 40.3865 23.9873 40.4117 27.3395C40.4134 27.5259 40.3784 27.7108 40.3087 27.8836C40.239 28.0564 40.136 28.2139 40.0054 28.3469C39.8749 28.4799 39.7194 28.5859 39.5479 28.6588C39.3764 28.7317 39.1922 28.7701 39.0058 28.7719L38.9926 28.7728Z" fill="#AC9AFF"/>
<path d="M17.0115 28.7711H16.9973C16.8109 28.7692 16.6267 28.7307 16.4553 28.6576C16.2838 28.5846 16.1284 28.4785 15.9979 28.3454C15.8675 28.2123 15.7645 28.0548 15.6949 27.8819C15.6253 27.709 15.5905 27.5241 15.5924 27.3378C15.6633 20.194 16.8771 13.4825 19.0096 8.43993C21.3114 2.99716 24.5044 0 27.9973 0C29.6728 0 31.2773 0.677389 32.7664 2.01325C34.0824 3.19205 35.2811 4.86944 36.3303 6.99811C36.4769 7.33241 36.4891 7.71035 36.3642 8.05338C36.2394 8.3964 35.9872 8.67814 35.66 8.84002C35.3328 9.0019 34.9559 9.03148 34.6074 8.92262C34.259 8.81375 33.9659 8.5748 33.7891 8.25544C32.0682 4.76348 30.0124 2.84106 28.002 2.84106C25.7522 2.84106 23.4287 5.28572 21.6255 9.54778C19.634 14.2573 18.5034 20.5866 18.4325 27.369C18.428 27.7427 18.2762 28.0996 18.0102 28.3621C17.7441 28.6246 17.3852 28.7716 17.0115 28.7711Z" fill="#AC9AFF"/>
<path d="M27.9997 55.9997C23.2996 55.9997 19.2125 50.5749 17.0668 41.4879C17.024 41.3065 17.0173 41.1184 17.0471 40.9345C17.0769 40.7505 17.1427 40.5742 17.2406 40.4156C17.3386 40.257 17.4668 40.1193 17.618 40.0103C17.7692 39.9013 17.9403 39.8231 18.1217 39.7802C18.3031 39.7374 18.4912 39.7306 18.6752 39.7605C18.8591 39.7903 19.0355 39.856 19.194 39.954C19.3526 40.0519 19.4903 40.1802 19.5993 40.3314C19.7084 40.4825 19.7865 40.6537 19.8294 40.8351C21.5976 48.3233 24.8048 53.1615 27.9997 53.1615C30.0101 53.1615 32.0678 51.2391 33.7868 47.7481C33.8663 47.5762 33.9793 47.4219 34.1193 47.2944C34.2592 47.1669 34.4233 47.0687 34.6018 47.0056C34.7803 46.9424 34.9697 46.9157 35.1587 46.9268C35.3477 46.938 35.5326 46.9869 35.7024 47.0706C35.8723 47.1543 36.0236 47.2712 36.1476 47.4143C36.2716 47.5574 36.3657 47.7239 36.4243 47.9039C36.4829 48.084 36.505 48.2739 36.4891 48.4626C36.4732 48.6513 36.4197 48.8349 36.3318 49.0025C35.2826 51.1303 34.0839 52.8077 32.7688 53.9865C31.2788 55.3223 29.6752 55.9997 27.9997 55.9997Z" fill="#AC9AFF"/>
<path d="M43.5192 45.7679C42.4116 45.7631 41.3054 45.6856 40.2079 45.5361C34.6422 44.8001 28.1039 42.3895 21.7974 38.749C15.4908 35.1085 10.1342 30.6506 6.71413 26.1984C3.03106 21.4046 1.98376 17.0725 3.75386 14.0006C5.88442 10.311 11.5855 9.27027 19.3972 11.1407C19.7633 11.2285 20.0795 11.4581 20.2762 11.7791C20.473 12.1 20.5342 12.486 20.4464 12.8521C20.3586 13.2182 20.1289 13.5344 19.8079 13.7312C19.487 13.9279 19.101 13.9891 18.7349 13.9013C12.4237 12.3876 7.62519 12.9713 6.21176 15.4197C5.06607 17.4065 6.0689 20.7017 8.96389 24.4689C12.1626 28.6317 17.224 32.8313 23.2155 36.2949C29.207 39.7584 35.3735 42.0375 40.5798 42.7282C45.2893 43.3516 48.6479 42.5702 49.7926 40.5872C50.7983 38.8455 50.1597 36.1038 47.9951 32.8663C47.7908 32.5534 47.7182 32.1725 47.7931 31.8064C47.8679 31.4403 48.0842 31.1185 48.3948 30.9108C48.7055 30.7031 49.0856 30.6264 49.4525 30.6973C49.8194 30.7681 50.1435 30.9808 50.3546 31.2892C51.6734 33.2617 52.5305 35.1397 52.891 36.871C53.3035 38.8284 53.0878 40.5607 52.2496 42.0082C50.8181 44.4718 47.7746 45.7679 43.5192 45.7679Z" fill="#AC9AFF"/>
<path d="M12.4767 45.7683C8.244 45.7683 5.19196 44.4855 3.75109 41.9992C2.91382 40.5479 2.69811 38.8204 3.1106 36.862C3.47389 35.1326 4.32725 33.2565 5.64608 31.2802C5.74865 31.123 5.88138 30.9878 6.03657 30.8823C6.19177 30.7767 6.36635 30.7031 6.55021 30.6655C6.73407 30.6279 6.92356 30.6271 7.10772 30.6633C7.29187 30.6994 7.46703 30.7717 7.62305 30.876C7.77907 30.9803 7.91286 31.1145 8.01667 31.2708C8.12048 31.4272 8.19225 31.6025 8.22783 31.7868C8.2634 31.9711 8.26208 32.1606 8.22393 32.3443C8.18578 32.528 8.11157 32.7024 8.00559 32.8573C5.84191 36.0938 5.20426 38.8346 6.20805 40.5763C7.62148 43.0247 12.42 43.6037 18.7312 42.09C19.0973 42.0022 19.4833 42.0634 19.8042 42.2601C20.1252 42.4569 20.3548 42.7731 20.4427 43.1392C20.5305 43.5053 20.4693 43.8913 20.2725 44.2122C20.0758 44.5332 19.7596 44.7628 19.3935 44.8506C16.8476 45.4684 14.524 45.7683 12.4767 45.7683Z" fill="#AC9AFF"/>
<path d="M34.0726 38.6063C33.7611 38.6069 33.458 38.505 33.2102 38.3163C32.9623 38.1276 32.7834 37.8626 32.7011 37.5622C32.6188 37.2618 32.6376 36.9426 32.7547 36.6539C32.8717 36.3653 33.0805 36.1231 33.3488 35.9649C39.1814 32.5164 44.0924 28.3707 47.1729 24.2922C49.9609 20.6025 50.9155 17.3669 49.7906 15.4199C48.6658 13.4729 45.3867 12.681 40.7935 13.2506C35.7197 13.8807 29.6714 16.0623 23.7642 19.4001C23.4372 19.5748 23.0549 19.6146 22.6989 19.511C22.343 19.4074 22.0417 19.1687 21.8595 18.8459C21.6773 18.523 21.6287 18.1417 21.724 17.7834C21.8193 17.4252 22.0511 17.1185 22.3696 16.9289C28.592 13.418 35.0111 11.1134 40.4444 10.4389C46.31 9.71132 50.5011 10.9772 52.2485 14.0056C53.9959 17.0339 52.9978 21.2903 49.4378 26.0084C46.1397 30.3745 40.9373 34.7804 34.7878 38.4133C34.5709 38.5404 34.324 38.6071 34.0726 38.6063Z" fill="#AC9AFF"/>
</g>
<defs>
<clipPath id="clip0_14147_11304">
<rect width="56" height="56" fill="white"/>
</clipPath>
</defs>
</svg>
