<svg width="56" height="56" viewBox="0 0 56 56" fill="none" xmlns="http://www.w3.org/2000/svg">
<g clip-path="url(#clip0_14140_13549)">
<path d="M7.81462 36.3323C7.43825 36.3323 7.07729 36.1828 6.81115 35.9166C6.54502 35.6505 6.39551 35.2896 6.39551 34.9132V24.7902C6.39551 24.4138 6.54502 24.0529 6.81115 23.7867C7.07729 23.5206 7.43825 23.3711 7.81462 23.3711C8.19099 23.3711 8.55195 23.5206 8.81808 23.7867C9.08422 24.0529 9.23373 24.4138 9.23373 24.7902V34.9132C9.23373 35.2896 9.08422 35.6505 8.81808 35.9166C8.55195 36.1828 8.19099 36.3323 7.81462 36.3323Z" fill="#AC9AFF"/>
<path d="M14.209 13.7275C12.8515 13.7275 11.5244 13.325 10.3957 12.5708C9.26694 11.8166 8.38719 10.7446 7.86769 9.49042C7.34819 8.23623 7.21226 6.85616 7.4771 5.52472C7.74194 4.19327 8.39565 2.97027 9.35557 2.01035C10.3155 1.05044 11.5385 0.396728 12.8699 0.131888C14.2014 -0.132952 15.5814 0.00297403 16.8356 0.522476C18.0898 1.04198 19.1618 1.92173 19.916 3.05047C20.6702 4.17921 21.0728 5.50625 21.0728 6.86377C21.0707 8.68354 20.347 10.4282 19.0602 11.715C17.7734 13.0017 16.0288 13.7255 14.209 13.7275ZM14.209 2.83823C13.4128 2.83823 12.6345 3.07432 11.9725 3.51665C11.3105 3.95898 10.7945 4.58769 10.4899 5.32326C10.1852 6.05883 10.1055 6.86824 10.2608 7.64912C10.4161 8.42999 10.7995 9.14728 11.3625 9.71026C11.9255 10.2732 12.6428 10.6566 13.4236 10.812C14.2045 10.9673 15.0139 10.8876 15.7495 10.5829C16.4851 10.2782 17.1138 9.76224 17.5561 9.10024C17.9984 8.43824 18.2345 7.65995 18.2345 6.86377C18.2333 5.79651 17.8088 4.77333 17.0541 4.01866C16.2994 3.264 15.2762 2.83948 14.209 2.83823Z" fill="#AC9AFF"/>
<path d="M36.5865 24.3459C36.3125 24.346 36.0443 24.2669 35.8143 24.1179C35.5843 23.969 35.4023 23.7566 35.2903 23.5065C35.1784 23.2564 35.1412 22.9792 35.1834 22.7085C35.2255 22.4377 35.3452 22.1849 35.5279 21.9807L43.2384 13.3374C43.3626 13.1983 43.513 13.085 43.681 13.0041C43.849 12.9231 44.0314 12.876 44.2176 12.8655C44.4038 12.855 44.5902 12.8813 44.7662 12.9429C44.9423 13.0044 45.1045 13.1001 45.2436 13.2243C45.3827 13.3485 45.4959 13.499 45.5769 13.667C45.6578 13.835 45.7049 14.0173 45.7154 14.2035C45.7259 14.3897 45.6996 14.5761 45.6381 14.7522C45.5765 14.9282 45.4809 15.0904 45.3566 15.2295L37.6461 23.8681C37.5132 24.018 37.3501 24.1381 37.1675 24.2204C36.9849 24.3028 36.7869 24.3455 36.5865 24.3459Z" fill="#AC9AFF"/>
<path d="M51.7427 37.158H26.281C25.9046 37.158 25.5436 37.0085 25.2775 36.7424C25.0114 36.4762 24.8619 36.1153 24.8619 35.7389C24.8619 35.3625 25.0114 35.0016 25.2775 34.7354C25.5436 34.4693 25.9046 34.3198 26.281 34.3198H51.7427C52.119 34.3198 52.48 34.1703 52.7461 33.9041C53.0123 33.638 53.1618 33.2771 53.1618 32.9007V4.28858C53.1618 3.91221 53.0123 3.55125 52.7461 3.28512C52.48 3.01898 52.119 2.86947 51.7427 2.86947H23.9035C23.5271 2.86947 23.1662 2.71996 22.9 2.45382C22.6339 2.18769 22.4844 1.82673 22.4844 1.45036C22.4844 1.07399 22.6339 0.713033 22.9 0.446898C23.1662 0.180763 23.5271 0.03125 23.9035 0.03125H51.7427C52.8718 0.03125 53.9547 0.479789 54.7531 1.27819C55.5515 2.0766 56 3.15947 56 4.28858V32.9007C56 34.0298 55.5515 35.1127 54.7531 35.9111C53.9547 36.7095 52.8718 37.158 51.7427 37.158Z" fill="#AC9AFF"/>
<path d="M14.2091 56.0002H7.81462C7.43825 56.0002 7.07729 55.8507 6.81115 55.5846C6.54502 55.3185 6.39551 54.9575 6.39551 54.5811V34.9113C6.39551 34.5349 6.54502 34.174 6.81115 33.9078C7.07729 33.6417 7.43825 33.4922 7.81462 33.4922C8.19099 33.4922 8.55195 33.6417 8.81808 33.9078C9.08422 34.174 9.23373 34.5349 9.23373 34.9113V53.162H14.2091C14.5855 53.162 14.9465 53.3115 15.2126 53.5777C15.4787 53.8438 15.6282 54.2048 15.6282 54.5811C15.6282 54.9575 15.4787 55.3185 15.2126 55.5846C14.9465 55.8507 14.5855 56.0002 14.2091 56.0002Z" fill="#AC9AFF"/>
<path d="M20.6045 56.0016H14.2091C13.8327 56.0016 13.4718 55.8521 13.2056 55.5859C12.9395 55.3198 12.79 54.9588 12.79 54.5825V35.7404C12.79 35.3641 12.9395 35.0031 13.2056 34.737C13.4718 34.4708 13.8327 34.3213 14.2091 34.3213C14.5854 34.3213 14.9464 34.4708 15.2125 34.737C15.4787 35.0031 15.6282 35.3641 15.6282 35.7404V53.1633H19.1854V26.3327C19.1853 25.7437 19.3599 25.1679 19.6871 24.6782C20.0143 24.1885 20.4794 23.8068 21.0236 23.5815C21.5678 23.3561 22.1665 23.2972 22.7442 23.4123C23.3218 23.5273 23.8523 23.8111 24.2687 24.2277L26.4929 26.449C26.6577 26.6146 26.8536 26.7458 27.0694 26.8352C27.2853 26.9245 27.5167 26.9701 27.7502 26.9694H34.3548C34.5915 26.9694 34.8258 26.9222 35.044 26.8306C35.2623 26.7389 35.46 26.6046 35.6257 26.4355C35.7913 26.2664 35.9216 26.0659 36.0087 25.8459C36.0959 25.6258 36.1383 25.3905 36.1334 25.1539C36.1135 24.1936 35.2876 23.4131 34.2923 23.4131H29.0709C28.6947 23.4128 28.334 23.263 28.0681 22.9968L25.0132 19.9429C24.459 19.3854 23.7997 18.9435 23.0734 18.6428C22.3472 18.342 21.5685 18.1884 20.7824 18.1908H19.6812L17.5364 19.9741C16.6021 20.7507 15.4254 21.1758 14.2105 21.1758C12.9956 21.1758 11.8189 20.7507 10.8846 19.9741L8.73793 18.1908H7.81457C6.49522 18.1923 5.23034 18.717 4.29742 19.65C3.3645 20.5829 2.83972 21.8478 2.83822 23.1671C2.83822 23.5435 2.68871 23.9044 2.42257 24.1706C2.15644 24.4367 1.79548 24.5862 1.41911 24.5862C1.04274 24.5862 0.681782 24.4367 0.415647 24.1706C0.149513 23.9044 0 23.5435 0 23.1671C0.00225379 21.0953 0.826296 19.1089 2.29132 17.6439C3.75635 16.1788 5.74271 15.3548 7.81457 15.3525H9.25071C9.58219 15.3526 9.90319 15.4688 10.158 15.6808L12.6973 17.7915C13.1222 18.1455 13.6579 18.3394 14.211 18.3394C14.7641 18.3394 15.2997 18.1455 15.7247 17.7915L18.2621 15.6799C18.5169 15.4678 18.8379 15.3517 19.1693 15.3516H20.7843C21.9432 15.3484 23.0912 15.5751 24.1618 16.0186C25.2325 16.4621 26.2046 17.1136 27.0217 17.9353L29.6613 20.5749H34.2971C36.8269 20.5749 38.9252 22.6033 38.9754 25.0971C38.9878 25.7112 38.8777 26.3215 38.6513 26.8925C38.4249 27.4634 38.0869 27.9834 37.657 28.4221C37.2272 28.8608 36.7141 29.2093 36.1479 29.4472C35.5817 29.6851 34.9737 29.8076 34.3595 29.8076H27.7464C27.14 29.8093 26.5393 29.6907 25.979 29.4587C25.4187 29.2266 24.9101 28.8857 24.4825 28.4557L22.2621 26.2324C22.2439 26.2144 22.2212 26.2017 22.1964 26.1955C22.1716 26.1893 22.1456 26.19 22.1211 26.1974C22.0934 26.2067 22.0694 26.2246 22.0524 26.2483C22.0354 26.2721 22.0263 26.3006 22.0265 26.3298V54.5796C22.0269 54.7665 21.9903 54.9515 21.919 55.1242C21.8477 55.2969 21.743 55.4538 21.6108 55.5859C21.4787 55.718 21.3218 55.8228 21.1491 55.8941C20.9764 55.9654 20.7914 56.0019 20.6045 56.0016Z" fill="#AC9AFF"/>
<path d="M4.61684 39.5285C3.39276 39.5272 2.21918 39.0404 1.35362 38.1749C0.48807 37.3093 0.00125225 36.1357 0 34.9117V23.1652C0 22.7888 0.149513 22.4279 0.415647 22.1617C0.681782 21.8956 1.04274 21.7461 1.41911 21.7461C1.79548 21.7461 2.15644 21.8956 2.42257 22.1617C2.68871 22.4279 2.83822 22.7888 2.83822 23.1652V34.9117C2.83822 35.3834 3.02561 35.8358 3.35916 36.1693C3.69272 36.5029 4.14512 36.6903 4.61684 36.6903C5.08856 36.6903 5.54096 36.5029 5.87451 36.1693C6.20807 35.8358 6.39546 35.3834 6.39546 34.9117C6.39546 34.5353 6.54497 34.1743 6.8111 33.9082C7.07724 33.6421 7.43819 33.4925 7.81457 33.4925C8.19094 33.4925 8.55189 33.6421 8.81803 33.9082C9.08416 34.1743 9.23368 34.5353 9.23368 34.9117C9.23242 36.1357 8.7456 37.3093 7.88005 38.1749C7.0145 39.0404 5.84091 39.5272 4.61684 39.5285Z" fill="#AC9AFF"/>
<path d="M44.6576 56.0023H1.42204C1.04567 56.0023 0.684712 55.8528 0.418577 55.5866C0.152442 55.3205 0.00292969 54.9595 0.00292969 54.5832C0.00292969 54.2068 0.152442 53.8458 0.418577 53.5797C0.684712 53.3136 1.04567 53.1641 1.42204 53.1641H44.6576C45.034 53.1641 45.3949 53.3136 45.6611 53.5797C45.9272 53.8458 46.0767 54.2068 46.0767 54.5832C46.0767 54.9595 45.9272 55.3205 45.6611 55.5866C45.3949 55.8528 45.034 56.0023 44.6576 56.0023Z" fill="#AC9AFF"/>
<path d="M36.9374 15.7015H29.5798C29.2034 15.7015 28.8424 15.552 28.5763 15.2859C28.3102 15.0197 28.1606 14.6588 28.1606 14.2824C28.1606 13.906 28.3102 13.5451 28.5763 13.2789C28.8424 13.0128 29.2034 12.8633 29.5798 12.8633H36.9374C37.3137 12.8633 37.6747 13.0128 37.9408 13.2789C38.207 13.5451 38.3565 13.906 38.3565 14.2824C38.3565 14.6588 38.207 15.0197 37.9408 15.2859C37.6747 15.552 37.3137 15.7015 36.9374 15.7015Z" fill="#AC9AFF"/>
<path d="M44.295 9.28353H29.5798C29.2034 9.28353 28.8424 9.13402 28.5763 8.86789C28.3102 8.60175 28.1606 8.24079 28.1606 7.86442C28.1606 7.48805 28.3102 7.12709 28.5763 6.86096C28.8424 6.59483 29.2034 6.44531 29.5798 6.44531H44.295C44.6714 6.44531 45.0323 6.59483 45.2985 6.86096C45.5646 7.12709 45.7141 7.48805 45.7141 7.86442C45.7141 8.24079 45.5646 8.60175 45.2985 8.86789C45.0323 9.13402 44.6714 9.28353 44.295 9.28353Z" fill="#AC9AFF"/>
</g>
<defs>
<clipPath id="clip0_14140_13549">
<rect width="56" height="56" fill="white"/>
</clipPath>
</defs>
</svg>
