<svg width="56" height="56" viewBox="0 0 56 56" fill="none" xmlns="http://www.w3.org/2000/svg">
<path d="M42 17.5V24.5M42 24.5V31.5M42 24.5H49M42 24.5H35M29.75 14.875C29.75 19.2242 26.2242 22.75 21.875 22.75C17.5258 22.75 14 19.2242 14 14.875C14 10.5258 17.5258 7 21.875 7C26.2242 7 29.75 10.5258 29.75 14.875ZM7.00215 44.8801C7.00072 44.7952 7 44.7102 7 44.625C7 36.4098 13.6598 29.75 21.875 29.75C30.0902 29.75 36.75 36.4098 36.75 44.625V44.631C36.75 44.7142 36.7492 44.7972 36.7479 44.8801C32.4038 47.4956 27.3151 49 21.875 49C16.4349 49 11.3462 47.4956 7.00215 44.8801Z" stroke="#AC9AFF" stroke-width="3" stroke-linecap="round" stroke-linejoin="round"/>
</svg>
