<svg width="56" height="56" viewBox="0 0 56 56" fill="none" xmlns="http://www.w3.org/2000/svg">
<path d="M42.0001 43.678C42.5776 43.7257 43.1618 43.75 43.7516 43.75C46.1977 43.75 48.5461 43.3318 50.7293 42.5629C50.744 42.3772 50.7516 42.1895 50.7516 42C50.7516 38.134 47.6176 35 43.7516 35C42.2871 35 40.9277 35.4497 39.8039 36.2185M42.0001 43.678C42.0002 43.702 42.0002 43.726 42.0002 43.75C42.0002 44.275 41.9713 44.7932 41.9151 45.3032C37.8159 47.6552 33.0651 49 28.0002 49C22.9353 49 18.1845 47.6552 14.0854 45.3032C14.0291 44.7932 14.0002 44.275 14.0002 43.75C14.0002 43.7261 14.0003 43.7021 14.0004 43.6782M42.0001 43.678C41.9863 40.9327 41.1823 38.3743 39.8039 36.2185M39.8039 36.2185C37.3168 32.3288 32.9597 29.75 28.0002 29.75C23.0414 29.75 18.6848 32.3281 16.1975 36.2171M16.1975 36.2171C15.0741 35.4491 13.7155 35 12.252 35C8.38596 35 5.25195 38.134 5.25195 42C5.25195 42.1895 5.25948 42.3772 5.27426 42.5629C7.45741 43.3318 9.80584 43.75 12.252 43.75C12.8408 43.75 13.4239 43.7258 14.0004 43.6782M16.1975 36.2171C14.8186 38.3732 14.0142 40.9322 14.0004 43.6782M35.0002 15.75C35.0002 19.616 31.8662 22.75 28.0002 22.75C24.1343 22.75 21.0002 19.616 21.0002 15.75C21.0002 11.884 24.1343 8.75 28.0002 8.75C31.8662 8.75 35.0002 11.884 35.0002 15.75ZM49.0002 22.75C49.0002 25.6495 46.6497 28 43.7502 28C40.8507 28 38.5002 25.6495 38.5002 22.75C38.5002 19.8505 40.8507 17.5 43.7502 17.5C46.6497 17.5 49.0002 19.8505 49.0002 22.75ZM17.5002 22.75C17.5002 25.6495 15.1497 28 12.2502 28C9.35075 28 7.00024 25.6495 7.00024 22.75C7.00024 19.8505 9.35075 17.5 12.2502 17.5C15.1497 17.5 17.5002 19.8505 17.5002 22.75Z" stroke="#AC9AFF" stroke-width="3" stroke-linecap="round" stroke-linejoin="round"/>
</svg>
