<svg width="32" height="24" viewBox="0 0 32 24" fill="none" xmlns="http://www.w3.org/2000/svg">
<mask id="mask0_15777_13429" style="mask-type:luminance" maskUnits="userSpaceOnUse" x="0" y="0" width="32" height="24">
<rect width="32" height="24" fill="white"/>
</mask>
<g mask="url(#mask0_15777_13429)">
<path fill-rule="evenodd" clip-rule="evenodd" d="M0 0H32V24H0V0Z" fill="#F7FCFF"/>
<path fill-rule="evenodd" clip-rule="evenodd" d="M0 14.668V16.668H32V14.668H0Z" fill="#E31D1C"/>
<path fill-rule="evenodd" clip-rule="evenodd" d="M0 18.332V20.332H32V18.332H0Z" fill="#E31D1C"/>
<path fill-rule="evenodd" clip-rule="evenodd" d="M0 7.33203V9.33203H32V7.33203H0Z" fill="#E31D1C"/>
<path fill-rule="evenodd" clip-rule="evenodd" d="M0 22V24H32V22H0Z" fill="#E31D1C"/>
<path fill-rule="evenodd" clip-rule="evenodd" d="M0 11V13H32V11H0Z" fill="#E31D1C"/>
<path fill-rule="evenodd" clip-rule="evenodd" d="M0 0V2H32V0H0Z" fill="#E31D1C"/>
<path fill-rule="evenodd" clip-rule="evenodd" d="M0 3.66797V5.66797H32V3.66797H0Z" fill="#E31D1C"/>
<rect width="20" height="13" fill="#2E42A5"/>
<path fill-rule="evenodd" clip-rule="evenodd" d="M1.72319 2.94017L0.997308 3.44906L1.24237 2.54345L0.597656 1.96954H1.43974L1.72217 1.23047L2.05334 1.96954H2.7712L2.20716 2.54345L2.42553 3.44906L1.72319 2.94017ZM5.72319 2.94017L4.99731 3.44906L5.24237 2.54345L4.59766 1.96954H5.43974L5.72217 1.23047L6.05334 1.96954H6.7712L6.20716 2.54345L6.42553 3.44906L5.72319 2.94017ZM8.99731 3.44906L9.72319 2.94017L10.4255 3.44906L10.2072 2.54345L10.7712 1.96954H10.0533L9.72217 1.23047L9.43974 1.96954H8.59766L9.24237 2.54345L8.99731 3.44906ZM13.7232 2.94017L12.9973 3.44906L13.2424 2.54345L12.5977 1.96954H13.4397L13.7222 1.23047L14.0533 1.96954H14.7712L14.2072 2.54345L14.4255 3.44906L13.7232 2.94017ZM0.997308 7.44906L1.72319 6.94017L2.42553 7.44906L2.20716 6.54345L2.7712 5.96954H2.05334L1.72217 5.23047L1.43974 5.96954H0.597656L1.24237 6.54345L0.997308 7.44906ZM5.72319 6.94017L4.99731 7.44906L5.24237 6.54345L4.59766 5.96954H5.43974L5.72217 5.23047L6.05334 5.96954H6.7712L6.20716 6.54345L6.42553 7.44906L5.72319 6.94017ZM8.99731 7.44906L9.72319 6.94017L10.4255 7.44906L10.2072 6.54345L10.7712 5.96954H10.0533L9.72217 5.23047L9.43974 5.96954H8.59766L9.24237 6.54345L8.99731 7.44906ZM13.7232 6.94017L12.9973 7.44906L13.2424 6.54345L12.5977 5.96954H13.4397L13.7222 5.23047L14.0533 5.96954H14.7712L14.2072 6.54345L14.4255 7.44906L13.7232 6.94017ZM0.997308 11.4491L1.72319 10.9402L2.42553 11.4491L2.20716 10.5434L2.7712 9.96954H2.05334L1.72217 9.23047L1.43974 9.96954H0.597656L1.24237 10.5434L0.997308 11.4491ZM5.72319 10.9402L4.99731 11.4491L5.24237 10.5434L4.59766 9.96954H5.43974L5.72217 9.23047L6.05334 9.96954H6.7712L6.20716 10.5434L6.42553 11.4491L5.72319 10.9402ZM8.99731 11.4491L9.72319 10.9402L10.4255 11.4491L10.2072 10.5434L10.7712 9.96954H10.0533L9.72217 9.23047L9.43974 9.96954H8.59766L9.24237 10.5434L8.99731 11.4491ZM13.7232 10.9402L12.9973 11.4491L13.2424 10.5434L12.5977 9.96954H13.4397L13.7222 9.23047L14.0533 9.96954H14.7712L14.2072 10.5434L14.4255 11.4491L13.7232 10.9402ZM16.9973 3.44906L17.7232 2.94017L18.4255 3.44906L18.2072 2.54345L18.7712 1.96954H18.0533L17.7222 1.23047L17.4397 1.96954H16.5977L17.2424 2.54345L16.9973 3.44906ZM17.7232 6.94017L16.9973 7.44906L17.2424 6.54345L16.5977 5.96954H17.4397L17.7222 5.23047L18.0533 5.96954H18.7712L18.2072 6.54345L18.4255 7.44906L17.7232 6.94017ZM16.9973 11.4491L17.7232 10.9402L18.4255 11.4491L18.2072 10.5434L18.7712 9.96954H18.0533L17.7222 9.23047L17.4397 9.96954H16.5977L17.2424 10.5434L16.9973 11.4491ZM3.72319 4.94017L2.99731 5.44906L3.24237 4.54345L2.59766 3.96954H3.43974L3.72217 3.23047L4.05334 3.96954H4.7712L4.20716 4.54345L4.42553 5.44906L3.72319 4.94017ZM6.99731 5.44906L7.72319 4.94017L8.42553 5.44906L8.20716 4.54345L8.7712 3.96954H8.05334L7.72217 3.23047L7.43974 3.96954H6.59766L7.24237 4.54345L6.99731 5.44906ZM11.7232 4.94017L10.9973 5.44906L11.2424 4.54345L10.5977 3.96954H11.4397L11.7222 3.23047L12.0533 3.96954H12.7712L12.2072 4.54345L12.4255 5.44906L11.7232 4.94017ZM2.99731 9.44906L3.72319 8.94017L4.42553 9.44906L4.20716 8.54345L4.7712 7.96954H4.05334L3.72217 7.23047L3.43974 7.96954H2.59766L3.24237 8.54345L2.99731 9.44906ZM7.72319 8.94017L6.99731 9.44906L7.24237 8.54345L6.59766 7.96954H7.43974L7.72217 7.23047L8.05334 7.96954H8.7712L8.20716 8.54345L8.42553 9.44906L7.72319 8.94017ZM10.9973 9.44906L11.7232 8.94017L12.4255 9.44906L12.2072 8.54345L12.7712 7.96954H12.0533L11.7222 7.23047L11.4397 7.96954H10.5977L11.2424 8.54345L10.9973 9.44906ZM15.7232 4.94017L14.9973 5.44906L15.2424 4.54345L14.5977 3.96954H15.4397L15.7222 3.23047L16.0533 3.96954H16.7712L16.2072 4.54345L16.4255 5.44906L15.7232 4.94017ZM14.9973 9.44906L15.7232 8.94017L16.4255 9.44906L16.2072 8.54345L16.7712 7.96954H16.0533L15.7222 7.23047L15.4397 7.96954H14.5977L15.2424 8.54345L14.9973 9.44906Z" fill="#F7FCFF"/>
</g>
</svg>
