<svg width="32" height="33" viewBox="0 0 32 33" fill="none" xmlns="http://www.w3.org/2000/svg">
<path d="M5 4.14648V19.1465C5 20.8033 6.34315 22.1465 8 22.1465H11M5 4.14648H3M5 4.14648H27M27 4.14648H29M27 4.14648V19.1465C27 20.8033 25.6569 22.1465 24 22.1465H21M11 22.1465H21M11 22.1465L9.66667 26.1465M21 22.1465L22.3333 26.1465M22.3333 26.1465L23 28.1465M22.3333 26.1465H9.66667M9.66667 26.1465L9 28.1465M10 16.1465L14 12.1465L16.8635 15.0099C18.2056 13.0838 19.9605 11.4668 22 10.287" stroke="currentColor" stroke-width="2.98106" stroke-linecap="round" stroke-linejoin="round"/>
</svg>
