<svg width="32" height="33" viewBox="0 0 32 33" fill="none" xmlns="http://www.w3.org/2000/svg">
<path d="M15.9993 2.81323C8.64735 2.81323 2.66602 8.79457 2.66602 16.1466C2.66602 23.4986 8.64735 29.4799 15.9993 29.4799C23.3513 29.4799 29.3327 23.4986 29.3327 16.1466C29.3327 8.79457 23.3513 2.81323 15.9993 2.81323ZM15.9993 26.8132C10.118 26.8132 5.33268 22.0279 5.33268 16.1466C5.33268 10.2652 10.118 5.4799 15.9993 5.4799C21.8807 5.4799 26.666 10.2652 26.666 16.1466C26.666 22.0279 21.8807 26.8132 15.9993 26.8132ZM22.666 16.1466C22.666 16.8839 22.0687 17.4799 21.3327 17.4799H15.9993C15.2633 17.4799 14.666 16.8839 14.666 16.1466V9.4799C14.666 8.74257 15.2633 8.14657 15.9993 8.14657C16.7353 8.14657 17.3327 8.74257 17.3327 9.4799V14.8132H21.3327C22.0687 14.8132 22.666 15.4092 22.666 16.1466Z" fill="currentColor"/>
</svg>
