<svg width="32" height="32" viewBox="0 0 32 32" fill="none" xmlns="http://www.w3.org/2000/svg">
<path d="M14.3137 10.6654C16.2353 9.84847 17.3333 8.11103 17.3333 6.32443C17.3333 3.5672 15.244 1.33203 12.6667 1.33203C10.0893 1.33203 8 3.5672 8 6.32443C8 8.18411 9.16667 9.9987 10.9167 10.6654" stroke="#FEFDFF" stroke-width="2"/>
<path d="M7.49643 20.6199C6.67646 19.0181 6.08199 17.7544 5.51623 16.608C5.14005 15.8457 5.34562 14.7281 6.08199 14.3159C6.66214 13.9911 7.87637 14.1277 8.34507 14.6024C9.47662 15.7486 10.891 17.7544 10.891 17.7544V5.71947C10.891 4.92819 11.4568 4 12.5883 4C13.7199 4 14.5685 5.04304 14.5685 6.00567C14.5685 8.29831 14.7163 12.8889 14.7163 12.8889C14.7163 12.8889 15.2737 11.7473 16.6654 12C18.1153 12.2633 18.246 13.7425 18.246 13.7425C18.246 13.7425 19.4438 12.5334 20.5401 12.8889C21.9106 13.3333 22.2064 14.8887 22.2064 14.8887C22.2064 14.8887 23.3236 14.4553 23.9987 14.6667C25.0432 14.9937 25.1635 15.7866 25.2029 16.7788C25.2423 17.771 25.2029 20.2685 25.0187 22.2232C24.8345 24.178 24.5481 25.4776 23.6208 26.9237C22.8494 28.127 21.7393 29.3888 20.3249 30.0758C17.7349 31.3337 14.9501 30.3623 13.437 29.216C11.9239 28.0698 8.31641 22.2218 7.49643 20.6199Z" stroke="#FEFDFF" stroke-width="2" stroke-linejoin="round"/>
</svg>
