<svg width="56" height="56" viewBox="0 0 56 56" fill="none" xmlns="http://www.w3.org/2000/svg">
<path d="M28 42V29.75M28 29.75C29.2085 29.75 30.3813 29.597 31.5 29.3091M28 29.75C26.7915 29.75 25.6187 29.597 24.5 29.3091M33.25 46.7587C31.5494 47.0813 29.7944 47.2501 28 47.2501C26.2056 47.2501 24.4506 47.0813 22.75 46.7587M31.5 52.318C30.3498 52.4383 29.1821 52.5 28 52.5C26.8179 52.5 25.6502 52.4383 24.5 52.318M33.25 42V41.5528C33.25 39.2593 34.786 37.2984 36.7697 36.1474C41.9896 33.1188 45.5 27.4693 45.5 21C45.5 11.335 37.665 3.5 28 3.5C18.335 3.5 10.5 11.335 10.5 21C10.5 27.4693 14.0104 33.1188 19.2303 36.1474C21.214 37.2984 22.75 39.2593 22.75 41.5528V42" stroke="#AC9AFF" stroke-width="3" stroke-linecap="round" stroke-linejoin="round"/>
</svg>
