<svg width="32" height="33" viewBox="0 0 32 33" fill="none" xmlns="http://www.w3.org/2000/svg">
<path d="M2.66602 6.81307C2.66602 6.07574 3.26335 5.47974 3.99935 5.47974H21.3327C22.0687 5.47974 22.666 6.07574 22.666 6.81307C22.666 7.5504 22.0687 8.1464 21.3327 8.1464H3.99935C3.26335 8.1464 2.66602 7.5504 2.66602 6.81307ZM27.9993 14.8131H3.99935C3.26335 14.8131 2.66602 15.4091 2.66602 16.1464C2.66602 16.8837 3.26335 17.4797 3.99935 17.4797H27.9993C28.7353 17.4797 29.3327 16.8837 29.3327 16.1464C29.3327 15.4091 28.7353 14.8131 27.9993 14.8131ZM15.9993 24.1464H3.99935C3.26335 24.1464 2.66602 24.7424 2.66602 25.4797C2.66602 26.2171 3.26335 26.8131 3.99935 26.8131H15.9993C16.7353 26.8131 17.3327 26.2171 17.3327 25.4797C17.3327 24.7424 16.7353 24.1464 15.9993 24.1464Z" fill="currentColor"/>
</svg>
