<svg width="57" height="56" viewBox="0 0 57 56" fill="none" xmlns="http://www.w3.org/2000/svg">
<g clip-path="url(#clip0_10998_6578)">
<path d="M54.8217 9.73913H36.5608V1.21739C36.5608 0.544174 36.0154 0 35.3434 0H1.25645C0.584454 0 0.0390625 0.544174 0.0390625 1.21739V54.7826C0.0390625 55.4558 0.584454 56 1.25645 56H54.8217C55.4937 56 56.0391 55.4558 56.0391 54.7826V10.9565C56.0391 10.2833 55.4937 9.73913 54.8217 9.73913ZM24.3869 53.5652H12.213V38.9565H24.3869V53.5652ZM34.126 53.5652H26.8217V37.7391C26.8217 37.0659 26.2763 36.5217 25.6043 36.5217H10.9956C10.3236 36.5217 9.77819 37.0659 9.77819 37.7391V53.5652H2.47385V2.43478H34.126V53.5652ZM53.6043 53.5652H48.7347V45.0435C48.7347 44.3703 48.1893 43.8261 47.5173 43.8261C46.8453 43.8261 46.2999 44.3703 46.2999 45.0435V53.5652H36.5608V12.1739H46.2999V37.7391C46.2999 38.4123 46.8453 38.9565 47.5173 38.9565C48.1893 38.9565 48.7347 38.4123 48.7347 37.7391V12.1739H53.6043V53.5652Z" fill="currentColor"/>
<path d="M28.0394 7.3042H8.56114C7.88914 7.3042 7.34375 7.84837 7.34375 8.52159V15.8259C7.34375 16.4992 7.88914 17.0433 8.56114 17.0433H28.0394C28.7114 17.0433 29.2568 16.4992 29.2568 15.8259V8.52159C29.2568 7.84837 28.7114 7.3042 28.0394 7.3042ZM26.822 14.6085H9.77853V9.73898H26.822V14.6085Z" fill="currentColor"/>
<path d="M28.0394 21.9131H8.56114C7.88914 21.9131 7.34375 22.4573 7.34375 23.1305V30.4348C7.34375 31.108 7.88914 31.6522 8.56114 31.6522H28.0394C28.7114 31.6522 29.2568 31.108 29.2568 30.4348V23.1305C29.2568 22.4573 28.7114 21.9131 28.0394 21.9131ZM26.822 29.2174H9.77853V24.3479H26.822V29.2174Z" fill="currentColor"/>
</g>
</svg>
