<svg width="57" height="56" viewBox="0 0 57 56" fill="none" xmlns="http://www.w3.org/2000/svg">
<g clip-path="url(#clip0_10998_6511)">
<path d="M17.1203 55.9999C16.7439 55.9999 16.383 55.8504 16.1168 55.5842C15.8507 55.3181 15.7012 54.9572 15.7012 54.5808V29.9318C15.7012 29.5554 15.8507 29.1945 16.1168 28.9283C16.383 28.6622 16.7439 28.5127 17.1203 28.5127C17.4967 28.5127 17.8576 28.6622 18.1237 28.9283C18.3899 29.1945 18.5394 29.5554 18.5394 29.9318V54.5808C18.5394 54.9572 18.3899 55.3181 18.1237 55.5842C17.8576 55.8504 17.4967 55.9999 17.1203 55.9999Z" fill="currentColor"/>
<path d="M52.5024 56.0001H5.32927C4.9529 56.0001 4.59194 55.8506 4.3258 55.5844C4.05967 55.3183 3.91016 54.9573 3.91016 54.581V34.6188C3.91016 34.2424 4.05967 33.8815 4.3258 33.6154C4.59194 33.3492 4.9529 33.1997 5.32927 33.1997C5.70564 33.1997 6.0666 33.3492 6.33273 33.6154C6.59887 33.8815 6.74838 34.2424 6.74838 34.6188V53.1619H51.0833V34.6188C51.0833 34.2424 51.2328 33.8815 51.499 33.6154C51.7651 33.3492 52.126 33.1997 52.5024 33.1997C52.8788 33.1997 53.2397 33.3492 53.5059 33.6154C53.772 33.8815 53.9215 34.2424 53.9215 34.6188V54.581C53.9215 54.9573 53.772 55.3183 53.5059 55.5844C53.2397 55.8506 52.8788 56.0001 52.5024 56.0001Z" fill="currentColor"/>
<path d="M44.9255 25.391C44.6077 25.3907 44.2992 25.2837 44.0494 25.0873L28.9179 13.1942L13.7855 25.0873C13.6394 25.2062 13.4711 25.2948 13.2904 25.3479C13.1097 25.4011 12.9202 25.4178 12.733 25.3969C12.5458 25.3761 12.3646 25.3183 12.2 25.2267C12.0354 25.1351 11.8907 25.0117 11.7742 24.8637C11.6578 24.7156 11.572 24.5458 11.5219 24.3643C11.4718 24.1827 11.4583 23.993 11.4822 23.8061C11.5062 23.6193 11.5671 23.4391 11.6614 23.2761C11.7557 23.113 11.8815 22.9704 12.0315 22.8564L28.0409 10.2737C28.291 10.0771 28.5999 9.97021 28.9179 9.97021C29.236 9.97021 29.5449 10.0771 29.7949 10.2737L45.8034 22.8564C46.0354 23.0389 46.2047 23.2891 46.2878 23.5723C46.3709 23.8555 46.3637 24.1575 46.2671 24.4363C46.1705 24.7152 45.9893 24.957 45.7489 25.1281C45.5084 25.2992 45.2206 25.3911 44.9255 25.391Z" fill="currentColor"/>
<path d="M40.7121 55.9999C40.3357 55.9999 39.9748 55.8504 39.7086 55.5842C39.4425 55.3181 39.293 54.9572 39.293 54.5808V29.9318C39.293 29.5554 39.4425 29.1945 39.7086 28.9283C39.9748 28.6622 40.3357 28.5127 40.7121 28.5127C41.0885 28.5127 41.4494 28.6622 41.7155 28.9283C41.9817 29.1945 42.1312 29.5554 42.1312 29.9318V54.5808C42.1312 54.9572 41.9817 55.3181 41.7155 55.5842C41.4494 55.8504 41.0885 55.9999 40.7121 55.9999Z" fill="currentColor"/>
<path d="M11.227 31.351H2.33388C2.08821 31.3511 1.84671 31.2874 1.63301 31.1662C1.41932 31.045 1.24076 30.8704 1.11479 30.6595C0.988827 30.4486 0.919779 30.2085 0.914402 29.9629C0.909026 29.7173 0.967506 29.4745 1.08412 29.2583L7.85895 16.6991C7.98049 16.4738 8.16073 16.2855 8.38059 16.1542C8.60044 16.023 8.85171 15.9537 9.10776 15.9536H12.9053C13.2817 15.9536 13.6426 16.1031 13.9088 16.3693C14.1749 16.6354 14.3244 16.9964 14.3244 17.3727C14.3244 17.7491 14.1749 18.1101 13.9088 18.3762C13.6426 18.6423 13.2817 18.7918 12.9053 18.7918H9.95734L4.7142 28.5128H11.227C11.6033 28.5128 11.9643 28.6623 12.2304 28.9284C12.4966 29.1945 12.6461 29.5555 12.6461 29.9319C12.6461 30.3082 12.4966 30.6692 12.2304 30.9353C11.9643 31.2015 11.6033 31.351 11.227 31.351Z" fill="currentColor"/>
<path d="M55.4993 31.351H46.6062C46.2298 31.351 45.8689 31.2015 45.6027 30.9353C45.3366 30.6692 45.1871 30.3082 45.1871 29.9319C45.1871 29.5555 45.3366 29.1945 45.6027 28.9284C45.8689 28.6623 46.2298 28.5128 46.6062 28.5128H53.118L47.8777 18.7918H44.9269C44.5506 18.7918 44.1896 18.6423 43.9235 18.3762C43.6573 18.1101 43.5078 17.7491 43.5078 17.3727C43.5078 16.9964 43.6573 16.6354 43.9235 16.3693C44.1896 16.1031 44.5506 15.9536 44.9269 15.9536H48.7245C48.9807 15.9535 49.2321 16.0227 49.4522 16.154C49.6722 16.2852 49.8526 16.4736 49.9742 16.6991L56.7481 29.2583C56.8647 29.4744 56.9232 29.7171 56.9178 29.9627C56.9125 30.2082 56.8435 30.4482 56.7177 30.6591C56.5918 30.87 56.4134 31.0446 56.1998 31.1659C55.9863 31.2872 55.7449 31.3509 55.4993 31.351Z" fill="currentColor"/>
<path d="M28.9172 12.8079C28.5408 12.8079 28.1798 12.6584 27.9137 12.3923C27.6476 12.1262 27.498 11.7652 27.498 11.3888V1.41911C27.498 1.04274 27.6476 0.681782 27.9137 0.415648C28.1798 0.149513 28.5408 0 28.9172 0C29.2935 0 29.6545 0.149513 29.9206 0.415648C30.1868 0.681782 30.3363 1.04274 30.3363 1.41911V11.3888C30.3363 11.7652 30.1868 12.1262 29.9206 12.3923C29.6545 12.6584 29.2935 12.8079 28.9172 12.8079Z" fill="currentColor"/>
<path d="M32.4658 56.0001C32.0895 56.0001 31.7285 55.8506 31.4624 55.5845C31.1962 55.3184 31.0467 54.9574 31.0467 54.581V46.9793H26.7894V54.581C26.7894 54.9574 26.6399 55.3184 26.3737 55.5845C26.1076 55.8506 25.7467 56.0001 25.3703 56.0001C24.9939 56.0001 24.633 55.8506 24.3668 55.5845C24.1007 55.3184 23.9512 54.9574 23.9512 54.581V45.5602C23.9512 45.1839 24.1007 44.8229 24.3668 44.5568C24.633 44.2906 24.9939 44.1411 25.3703 44.1411H32.4658C32.8422 44.1411 33.2032 44.2906 33.4693 44.5568C33.7354 44.8229 33.8849 45.1839 33.8849 45.5602V54.581C33.8849 54.9574 33.7354 55.3184 33.4693 55.5845C33.2032 55.8506 32.8422 56.0001 32.4658 56.0001Z" fill="currentColor"/>
<path d="M28.9181 28.9387C27.9357 28.9387 26.9754 28.6474 26.1586 28.1016C25.3418 27.5558 24.7052 26.7801 24.3293 25.8725C23.9533 24.9649 23.855 23.9663 24.0466 23.0028C24.2383 22.0393 24.7113 21.1543 25.4059 20.4597C26.1006 19.765 26.9856 19.292 27.9491 19.1003C28.9126 18.9087 29.9112 19.007 30.8188 19.383C31.7264 19.7589 32.5021 20.3955 33.0479 21.2123C33.5936 22.0291 33.8849 22.9894 33.8849 23.9718C33.8834 25.2886 33.3597 26.5511 32.4285 27.4822C31.4974 28.4134 30.2349 28.9372 28.9181 28.9387ZM28.9181 21.8431C28.4971 21.8431 28.0855 21.9679 27.7354 22.2018C27.3854 22.4358 27.1125 22.7682 26.9514 23.1572C26.7903 23.5461 26.7482 23.9741 26.8303 24.3871C26.9124 24.8 27.1152 25.1793 27.4129 25.477C27.7106 25.7747 28.0899 25.9774 28.5028 26.0595C28.9157 26.1417 29.3437 26.0995 29.7327 25.9384C30.1216 25.7773 30.4541 25.5045 30.688 25.1544C30.9219 24.8043 31.0467 24.3928 31.0467 23.9718C31.0462 23.4074 30.8218 22.8662 30.4227 22.4671C30.0236 22.068 29.4825 21.8436 28.9181 21.8431Z" fill="currentColor"/>
<path d="M38.1953 9.02365H28.9172C28.5408 9.02365 28.1798 8.87414 27.9137 8.60801C27.6476 8.34187 27.498 7.98091 27.498 7.60454V1.41911C27.498 1.04274 27.6476 0.681783 27.9137 0.415648C28.1798 0.149513 28.5408 0 28.9172 0H38.1953C38.5717 0 38.9326 0.149513 39.1988 0.415648C39.4649 0.681783 39.6144 1.04274 39.6144 1.41911V7.60454C39.6144 7.98091 39.4649 8.34187 39.1988 8.60801C38.9326 8.87414 38.5717 9.02365 38.1953 9.02365ZM30.3363 6.18543H36.7762V2.83822H30.3363V6.18543Z" fill="currentColor"/>
<path d="M11.2277 40.3718C10.8513 40.3718 10.4904 40.2223 10.2242 39.9562C9.95811 39.69 9.80859 39.3291 9.80859 38.9527V36.5402C9.80859 36.1638 9.95811 35.8029 10.2242 35.5367C10.4904 35.2706 10.8513 35.1211 11.2277 35.1211C11.6041 35.1211 11.965 35.2706 12.2312 35.5367C12.4973 35.8029 12.6468 36.1638 12.6468 36.5402V38.9527C12.6468 39.3291 12.4973 39.69 12.2312 39.9562C11.965 40.2223 11.6041 40.3718 11.2277 40.3718Z" fill="currentColor"/>
<path d="M11.2277 49.3918C10.8513 49.3918 10.4904 49.2423 10.2242 48.9762C9.95811 48.71 9.80859 48.3491 9.80859 47.9727V45.5602C9.80859 45.1839 9.95811 44.8229 10.2242 44.5568C10.4904 44.2906 10.8513 44.1411 11.2277 44.1411C11.6041 44.1411 11.965 44.2906 12.2312 44.5568C12.4973 44.8229 12.6468 45.1839 12.6468 45.5602V47.9727C12.6468 48.3491 12.4973 48.71 12.2312 48.9762C11.965 49.2423 11.6041 49.3918 11.2277 49.3918Z" fill="currentColor"/>
<path d="M46.6086 40.3718C46.2322 40.3718 45.8712 40.2223 45.6051 39.9562C45.339 39.69 45.1895 39.3291 45.1895 38.9527V36.5402C45.1895 36.1638 45.339 35.8029 45.6051 35.5367C45.8712 35.2706 46.2322 35.1211 46.6086 35.1211C46.9849 35.1211 47.3459 35.2706 47.612 35.5367C47.8782 35.8029 48.0277 36.1638 48.0277 36.5402V38.9527C48.0277 39.3291 47.8782 39.69 47.612 39.9562C47.3459 40.2223 46.9849 40.3718 46.6086 40.3718Z" fill="currentColor"/>
<path d="M34.8117 40.3718C34.4353 40.3718 34.0744 40.2223 33.8082 39.9562C33.5421 39.69 33.3926 39.3291 33.3926 38.9527V36.5402C33.3926 36.1638 33.5421 35.8029 33.8082 35.5367C34.0744 35.2706 34.4353 35.1211 34.8117 35.1211C35.1881 35.1211 35.549 35.2706 35.8152 35.5367C36.0813 35.8029 36.2308 36.1638 36.2308 36.5402V38.9527C36.2308 39.3291 36.0813 39.69 35.8152 39.9562C35.549 40.2223 35.1881 40.3718 34.8117 40.3718Z" fill="currentColor"/>
<path d="M28.9172 40.3718C28.5408 40.3718 28.1798 40.2223 27.9137 39.9562C27.6476 39.69 27.498 39.3291 27.498 38.9527V36.5402C27.498 36.1638 27.6476 35.8029 27.9137 35.5367C28.1798 35.2706 28.5408 35.1211 28.9172 35.1211C29.2935 35.1211 29.6545 35.2706 29.9206 35.5367C30.1868 35.8029 30.3363 36.1638 30.3363 36.5402V38.9527C30.3363 39.3291 30.1868 39.69 29.9206 39.9562C29.6545 40.2223 29.2935 40.3718 28.9172 40.3718Z" fill="currentColor"/>
<path d="M23.0207 40.3718C22.6443 40.3718 22.2833 40.2223 22.0172 39.9562C21.7511 39.69 21.6016 39.3291 21.6016 38.9527V36.5402C21.6016 36.1638 21.7511 35.8029 22.0172 35.5367C22.2833 35.2706 22.6443 35.1211 23.0207 35.1211C23.397 35.1211 23.758 35.2706 24.0241 35.5367C24.2903 35.8029 24.4398 36.1638 24.4398 36.5402V38.9527C24.4398 39.3291 24.2903 39.69 24.0241 39.9562C23.758 40.2223 23.397 40.3718 23.0207 40.3718Z" fill="currentColor"/>
<path d="M46.6086 49.3918C46.2322 49.3918 45.8712 49.2423 45.6051 48.9762C45.339 48.71 45.1895 48.3491 45.1895 47.9727V45.5602C45.1895 45.1839 45.339 44.8229 45.6051 44.5568C45.8712 44.2906 46.2322 44.1411 46.6086 44.1411C46.9849 44.1411 47.3459 44.2906 47.612 44.5568C47.8782 44.8229 48.0277 45.1839 48.0277 45.5602V47.9727C48.0277 48.3491 47.8782 48.71 47.612 48.9762C47.3459 49.2423 46.9849 49.3918 46.6086 49.3918Z" fill="currentColor"/>
</g>
</svg>
