<svg width="32" height="32" viewBox="0 0 32 32" fill="none" xmlns="http://www.w3.org/2000/svg">
<path d="M21.9987 16.668H27.9987C28.551 16.668 28.9987 17.1157 28.9987 17.668V27.668C28.9987 28.2203 28.551 28.668 27.9987 28.668H21.9987M9.66536 16.668H4.33203C3.77975 16.668 3.33203 17.1157 3.33203 17.668V27.668C3.33203 28.2203 3.77975 28.668 4.33203 28.668H9.9987M9.9987 28.668V8.20315C9.9987 7.8688 10.1658 7.55657 10.444 7.3711L15.444 4.03777C15.7799 3.81384 16.2175 3.81384 16.5534 4.03777L21.5534 7.3711C21.8316 7.55657 21.9987 7.8688 21.9987 8.20315V17.168V28.668M9.9987 28.668H21.9987" stroke="#15343A" stroke-width="1.5"/>
<path d="M14 12.582C13.5858 12.582 13.25 12.9178 13.25 13.332C13.25 13.7462 13.5858 14.082 14 14.082V12.582ZM18 14.082C18.4142 14.082 18.75 13.7462 18.75 13.332C18.75 12.9178 18.4142 12.582 18 12.582V14.082ZM14 8.58203C13.5858 8.58203 13.25 8.91782 13.25 9.33203C13.25 9.74624 13.5858 10.082 14 10.082V8.58203ZM18 10.082C18.4142 10.082 18.75 9.74624 18.75 9.33203C18.75 8.91782 18.4142 8.58203 18 8.58203V10.082ZM14.75 28.6654V19.332H13.25V28.6654H14.75ZM15 19.082H17V17.582H15V19.082ZM17.25 19.332V28.6654H18.75V19.332H17.25ZM14 14.082H18V12.582H14V14.082ZM14 10.082H18V8.58203H14V10.082ZM17 19.082C17.1381 19.082 17.25 19.194 17.25 19.332H18.75C18.75 18.3655 17.9665 17.582 17 17.582V19.082ZM14.75 19.332C14.75 19.194 14.8619 19.082 15 19.082V17.582C14.0335 17.582 13.25 18.3655 13.25 19.332H14.75Z" fill="#15343A"/>
</svg>
