<svg width="32" height="32" viewBox="0 0 32 32" fill="none" xmlns="http://www.w3.org/2000/svg">
<g clip-path="url(#clip0_16429_28499)">
<path d="M15.9984 18.8366C15.437 18.8366 14.8883 18.6701 14.4215 18.3583C13.9548 18.0464 13.591 17.6031 13.3762 17.0845C13.1614 16.5659 13.1052 15.9952 13.2147 15.4447C13.3242 14.8941 13.5945 14.3884 13.9915 13.9915C14.3884 13.5945 14.8941 13.3242 15.4447 13.2147C15.9952 13.1052 16.5659 13.1614 17.0845 13.3762C17.6031 13.591 18.0464 13.9548 18.3583 14.4215C18.6701 14.8883 18.8366 15.437 18.8366 15.9984C18.8357 16.7509 18.5364 17.4723 18.0044 18.0044C17.4723 18.5364 16.7509 18.8357 15.9984 18.8366ZM15.9984 14.782C15.7578 14.782 15.5226 14.8533 15.3226 14.987C15.1226 15.1207 14.9667 15.3106 14.8746 15.5329C14.7825 15.7552 14.7584 15.9997 14.8054 16.2357C14.8523 16.4716 14.9682 16.6884 15.1383 16.8585C15.3084 17.0286 15.5251 17.1445 15.7611 17.1914C15.997 17.2383 16.2416 17.2142 16.4639 17.1222C16.6861 17.0301 16.8761 16.8742 17.0098 16.6742C17.1434 16.4741 17.2148 16.239 17.2148 15.9984C17.2143 15.6759 17.086 15.3668 16.858 15.1387C16.63 14.9107 16.3208 14.7824 15.9984 14.782Z" fill="#15343A"/>
<path d="M22.2798 16.4422C22.0661 16.4422 21.8611 16.3579 21.7092 16.2075C21.5574 16.0572 21.471 15.853 21.4689 15.6394C21.4557 13.8137 21.2929 11.9923 20.9823 10.1932C20.9599 10.0869 20.959 9.97717 20.9798 9.87053C21.0006 9.76389 21.0427 9.66251 21.1034 9.57242C21.1641 9.48234 21.2424 9.40537 21.3334 9.34611C21.4245 9.28684 21.5265 9.24648 21.6335 9.22742C21.7405 9.20836 21.8502 9.21099 21.9561 9.23515C22.062 9.25932 22.162 9.30452 22.2502 9.36809C22.3383 9.43165 22.4127 9.51227 22.4691 9.60517C22.5254 9.69807 22.5626 9.80134 22.5782 9.90886C22.9049 11.7964 23.0763 13.7076 23.0907 15.6231C23.0917 15.7296 23.0717 15.8353 23.0319 15.934C22.9921 16.0328 22.9332 16.1228 22.8586 16.1988C22.784 16.2748 22.6951 16.3353 22.5971 16.377C22.4991 16.4187 22.3939 16.4406 22.2874 16.4416L22.2798 16.4422Z" fill="#15343A"/>
<path d="M9.72112 16.4406H9.71301C9.60652 16.4396 9.50127 16.4175 9.40329 16.3758C9.30531 16.3341 9.21651 16.2734 9.14196 16.1974C9.06742 16.1213 9.00858 16.0313 8.96881 15.9325C8.92904 15.8337 8.90913 15.7281 8.9102 15.6216C8.95074 11.5394 9.64435 7.70429 10.8629 4.82282C12.1782 1.71266 14.0028 0 15.9987 0C16.9561 0 17.873 0.387079 18.724 1.15043C19.4759 1.82403 20.1609 2.78254 20.7604 3.99892C20.8442 4.18995 20.8512 4.40591 20.7798 4.60193C20.7085 4.79795 20.5644 4.95894 20.3774 5.05144C20.1905 5.14394 19.9751 5.16085 19.776 5.09864C19.5769 5.03643 19.4094 4.89989 19.3084 4.7174C18.325 2.72199 17.1502 1.62346 16.0014 1.62346C14.7158 1.62346 13.3881 3.02041 12.3577 5.45588C11.2197 8.14705 10.5737 11.7638 10.5331 15.6394C10.5306 15.853 10.4438 16.0569 10.2918 16.2069C10.1398 16.3569 9.9347 16.4409 9.72112 16.4406Z" fill="#15343A"/>
<path d="M15.9995 32.0009C13.3138 32.0009 10.9783 28.9011 9.75221 23.7085C9.72771 23.6048 9.72388 23.4974 9.74091 23.3922C9.75795 23.2871 9.79553 23.1863 9.8515 23.0957C9.90748 23.0051 9.98075 22.9264 10.0671 22.8641C10.1535 22.8018 10.2513 22.7572 10.355 22.7327C10.4586 22.7082 10.5661 22.7043 10.6712 22.7214C10.7764 22.7384 10.8771 22.776 10.9677 22.832C11.0583 22.8879 11.137 22.9612 11.1993 23.0476C11.2616 23.134 11.3063 23.2318 11.3308 23.3355C12.3412 27.6144 14.1739 30.3791 15.9995 30.3791C17.1483 30.3791 18.3242 29.2806 19.3065 27.2857C19.3519 27.1875 19.4165 27.0994 19.4964 27.0265C19.5764 26.9536 19.6702 26.8975 19.7722 26.8614C19.8742 26.8254 19.9824 26.8101 20.0904 26.8165C20.1984 26.8228 20.3041 26.8508 20.4011 26.8986C20.4982 26.9464 20.5846 27.0132 20.6555 27.095C20.7263 27.1768 20.7801 27.2719 20.8136 27.3748C20.8471 27.4777 20.8597 27.5862 20.8506 27.694C20.8415 27.8018 20.811 27.9067 20.7607 28.0026C20.1612 29.2184 19.4762 30.1769 18.7248 30.8505C17.8733 31.6139 16.957 32.0009 15.9995 32.0009Z" fill="#15343A"/>
<path d="M24.867 26.1508C24.2341 26.1481 23.602 26.1038 22.9749 26.0184C19.7944 25.5978 16.0582 24.2203 12.4545 22.14C8.85079 20.0598 5.78984 17.5124 3.83553 14.9683C1.73092 12.229 1.13246 9.7535 2.14395 7.99813C3.36141 5.88974 6.61914 5.29506 11.083 6.36386C11.2922 6.41404 11.4729 6.54527 11.5853 6.72867C11.6977 6.91208 11.7327 7.13264 11.6825 7.34183C11.6323 7.55102 11.5011 7.73171 11.3177 7.84414C11.1343 7.95658 10.9137 7.99155 10.7046 7.94137C7.09813 7.07639 4.35614 7.40994 3.54846 8.80905C2.89378 9.94434 3.46683 11.8273 5.1211 13.98C6.94892 16.3587 9.8412 18.7585 13.2649 20.7377C16.6886 22.7169 20.2123 24.0192 23.1873 24.4139C25.8785 24.7701 27.7977 24.3236 28.4518 23.1904C29.0265 22.1952 28.6616 20.6285 27.4246 18.7785C27.3079 18.5997 27.2665 18.3821 27.3092 18.1728C27.352 17.9636 27.4756 17.7797 27.6531 17.6611C27.8306 17.5424 28.0478 17.4986 28.2574 17.5391C28.4671 17.5795 28.6523 17.7011 28.7729 17.8773C29.5265 19.0045 30.0163 20.0776 30.2223 21.0669C30.458 22.1854 30.3348 23.1753 29.8558 24.0024C29.0378 25.4102 27.2987 26.1508 24.867 26.1508Z" fill="#15343A"/>
<path d="M7.12844 26.1544C4.70974 26.1544 2.96572 25.4214 2.14236 24.0006C1.66392 23.1713 1.54066 22.1842 1.77637 21.0651C1.98396 20.0769 2.4716 19.0048 3.22521 17.8755C3.28383 17.7857 3.35967 17.7084 3.44835 17.6481C3.53704 17.5878 3.6368 17.5457 3.74186 17.5242C3.84693 17.5028 3.95521 17.5023 4.06044 17.523C4.16567 17.5436 4.26576 17.585 4.35491 17.6445C4.44407 17.7041 4.52052 17.7808 4.57984 17.8702C4.63916 17.9595 4.68017 18.0597 4.7005 18.165C4.72083 18.2703 4.72007 18.3786 4.69827 18.4836C4.67647 18.5886 4.63407 18.6882 4.5735 18.7767C3.33712 20.6261 2.97275 22.1923 3.54634 23.1876C4.35401 24.5867 7.09601 24.9175 10.7024 24.0525C10.9116 24.0024 11.1322 24.0373 11.3156 24.1498C11.499 24.2622 11.6302 24.4429 11.6804 24.6521C11.7306 24.8613 11.6956 25.0818 11.5832 25.2652C11.4707 25.4486 11.2901 25.5799 11.0809 25.6301C9.62608 25.9831 8.29833 26.1544 7.12844 26.1544Z" fill="#15343A"/>
<path d="M19.4703 22.0619C19.2923 22.0622 19.1191 22.004 18.9775 21.8962C18.8359 21.7883 18.7337 21.6369 18.6866 21.4652C18.6396 21.2936 18.6504 21.1112 18.7172 20.9462C18.7841 20.7813 18.9034 20.6429 19.0568 20.5525C22.3896 18.5819 25.196 16.213 26.9562 13.8824C28.5494 11.774 29.0949 9.92509 28.4521 8.8125C27.8093 7.69992 25.9355 7.24743 23.3108 7.57288C20.4115 7.93293 16.9554 9.17958 13.5798 11.0869C13.393 11.1867 13.1745 11.2095 12.9711 11.1503C12.7677 11.0911 12.5955 10.9547 12.4914 10.7702C12.3873 10.5857 12.3595 10.3678 12.414 10.1631C12.4685 9.95838 12.6009 9.78311 12.7829 9.67478C16.3385 7.66857 20.0066 6.35163 23.1114 5.96618C26.4632 5.55044 28.8581 6.27378 29.8566 8.00429C30.8551 9.73479 30.2848 12.167 28.2504 14.863C26.3658 17.358 23.393 19.8756 19.879 21.9516C19.7551 22.0242 19.614 22.0623 19.4703 22.0619Z" fill="#15343A"/>
</g>
<defs>
<clipPath id="clip0_16429_28499">
<rect width="32" height="32" fill="white"/>
</clipPath>
</defs>
</svg>
