<svg width="32" height="32" viewBox="0 0 32 32" fill="none" xmlns="http://www.w3.org/2000/svg">
<path d="M12.7923 5.2534C12.9129 4.53012 13.5387 4 14.2719 4H17.7306C18.4638 4 19.0896 4.53012 19.2101 5.2534L19.4948 6.96147C19.5779 7.46019 19.9112 7.87562 20.3536 8.12048C20.4525 8.17522 20.5503 8.23178 20.6468 8.2901C21.0802 8.55179 21.6073 8.63315 22.0814 8.45554L23.7039 7.8477C24.3906 7.59046 25.1625 7.86734 25.5292 8.50236L27.2585 11.4976C27.6251 12.1326 27.4789 12.9396 26.9128 13.4057L25.5737 14.5081C25.1837 14.8292 24.9903 15.325 24.9997 15.83C25.0007 15.8866 25.0012 15.9432 25.0012 16C25.0012 16.0568 25.0007 16.1134 24.9997 16.1699C24.9903 16.675 25.1837 17.1708 25.5737 17.4919L26.9128 18.5943C27.4789 19.0603 27.6251 19.8673 27.2585 20.5024L25.5292 23.4976C25.1625 24.1326 24.3906 24.4095 23.7039 24.1523L22.0814 23.5444C21.6073 23.3668 21.0802 23.4482 20.6469 23.7099C20.5503 23.7682 20.4525 23.8248 20.3536 23.8795C19.9112 24.1244 19.5779 24.5398 19.4948 25.0385L19.2101 26.7466C19.0896 27.4699 18.4638 28 17.7306 28H14.2719C13.5387 28 12.9129 27.4699 12.7923 26.7466L12.5077 25.0385C12.4245 24.5398 12.0913 24.1244 11.6489 23.8795C11.55 23.8248 11.4522 23.7682 11.3557 23.7099C10.9223 23.4482 10.3952 23.3668 9.92109 23.5445L8.2986 24.1523C7.61194 24.4095 6.83995 24.1327 6.47332 23.4976L4.74401 20.5024C4.37738 19.8674 4.52359 19.0604 5.0897 18.5943L6.42883 17.4919C6.81884 17.1708 7.01217 16.675 7.00282 16.17C7.00177 16.1134 7.00125 16.0568 7.00125 16C7.00125 15.9432 7.00177 15.8866 7.00282 15.8301C7.01217 15.325 6.81884 14.8292 6.42883 14.5081L5.0897 13.4057C4.52359 12.9397 4.37738 12.1327 4.74401 11.4976L6.47332 8.50238C6.83995 7.86736 7.61194 7.59048 8.2986 7.84772L9.92107 8.45556C10.3952 8.63316 10.9223 8.5518 11.3556 8.29011C11.4522 8.23178 11.55 8.17523 11.6489 8.12048C12.0913 7.87562 12.4245 7.46019 12.5077 6.96147L12.7923 5.2534Z" stroke="#FEFDFF" stroke-width="2" stroke-linecap="round" stroke-linejoin="round"/>
<path d="M20.0009 15.9999C20.0009 18.209 18.2101 19.9999 16.0009 19.9999C13.7918 19.9999 12.0009 18.209 12.0009 15.9999C12.0009 13.7908 13.7918 11.9999 16.0009 11.9999C18.2101 11.9999 20.0009 13.7908 20.0009 15.9999Z" stroke="#FEFDFF" stroke-width="2" stroke-linecap="round" stroke-linejoin="round"/>
</svg>
