<svg xmlns="http://www.w3.org/2000/svg" version="1.1" width="64px" height="68px" style="shape-rendering:geometricPrecision; text-rendering:geometricPrecision; image-rendering:optimizeQuality; fill-rule:evenodd; clip-rule:evenodd" xmlns:xlink="http://www.w3.org/1999/xlink">
<g><path style="opacity:0.861" fill="currentColor" d="M 30.5,-0.5 C 31.1667,-0.5 31.8333,-0.5 32.5,-0.5C 32.2585,20.5886 42.5918,31.5886 63.5,32.5C 63.5,33.1667 63.5,33.8333 63.5,34.5C 42.5613,35.4408 32.228,46.4408 32.5,67.5C 31.8333,67.5 31.1667,67.5 30.5,67.5C 30.7628,46.4319 20.4295,35.4319 -0.5,34.5C -0.5,33.8333 -0.5,33.1667 -0.5,32.5C 20.4567,31.542 30.79,20.542 30.5,-0.5 Z M 30.5,20.5 C 34.4308,25.0976 38.7642,29.4309 43.5,33.5C 38.8206,37.1804 34.8206,41.5138 31.5,46.5C 28.3084,41.1416 23.975,36.975 18.5,34C 23.7874,30.5515 27.7874,26.0515 30.5,20.5 Z"/></g>
</svg>
