<svg width="21" height="22" viewBox="0 0 21 22" fill="none" xmlns="http://www.w3.org/2000/svg">
<path fill-rule="evenodd" clip-rule="evenodd" d="M7.5 3.5C7.83486 3.5 8.12915 3.72198 8.22114 4.04396L9.03434 6.89015C9.39028 8.13593 10.3641 9.10972 11.6099 9.46566L14.456 10.2789C14.778 10.3709 15 10.6651 15 11C15 11.3349 14.778 11.6291 14.456 11.7211L11.6098 12.5343C10.3641 12.8903 9.39028 13.8641 9.03434 15.1099L8.22114 17.956C8.12915 18.278 7.83486 18.5 7.5 18.5C7.16514 18.5 6.87085 18.278 6.77886 17.956L5.96566 15.1099C5.60972 13.8641 4.63593 12.8903 3.39015 12.5343L0.543959 11.7211C0.221983 11.6291 0 11.3349 0 11C0 10.6651 0.221983 10.3709 0.543959 10.2789L3.39015 9.46566C4.63593 9.10972 5.60972 8.13593 5.96566 6.89015L6.77886 4.04396C6.87085 3.72198 7.16514 3.5 7.5 3.5Z" fill="currentColor"/>
<path fill-rule="evenodd" clip-rule="evenodd" d="M16.5 0.5C16.8442 0.5 17.1441 0.734223 17.2276 1.0681L17.4865 2.10356C17.7216 3.04406 18.4559 3.7784 19.3964 4.01353L20.4319 4.27239C20.7658 4.35586 21 4.65585 21 5C21 5.34415 20.7658 5.64414 20.4319 5.72761L19.3964 5.98647C18.4559 6.2216 17.7216 6.95594 17.4865 7.89644L17.2276 8.9319C17.1441 9.26578 16.8442 9.5 16.5 9.5C16.1558 9.5 15.8559 9.26578 15.7724 8.9319L15.5135 7.89644C15.2784 6.95594 14.5441 6.2216 13.6036 5.98647L12.5681 5.72761C12.2342 5.64414 12 5.34415 12 5C12 4.65585 12.2342 4.35586 12.5681 4.27239L13.6036 4.01353C14.5441 3.7784 15.2784 3.04406 15.5135 2.10356L15.7724 1.0681C15.8559 0.734223 16.1558 0.5 16.5 0.5Z" fill="currentColor"/>
<path fill-rule="evenodd" clip-rule="evenodd" d="M15 14C15.3228 14 15.6094 14.2066 15.7115 14.5128L16.1058 15.6956C16.2551 16.1435 16.6065 16.4949 17.0544 16.6442L18.2372 17.0385C18.5434 17.1406 18.75 17.4272 18.75 17.75C18.75 18.0728 18.5434 18.3594 18.2372 18.4615L17.0544 18.8558C16.6065 19.0051 16.2551 19.3565 16.1058 19.8044L15.7115 20.9872C15.6094 21.2934 15.3228 21.5 15 21.5C14.6772 21.5 14.3906 21.2934 14.2885 20.9872L13.8942 19.8044C13.7449 19.3565 13.3935 19.0051 12.9456 18.8558L11.7628 18.4615C11.4566 18.3594 11.25 18.0728 11.25 17.75C11.25 17.4272 11.4566 17.1406 11.7628 17.0385L12.9456 16.6442C13.3935 16.4949 13.7449 16.1435 13.8942 15.6956L14.2885 14.5128C14.3906 14.2066 14.6772 14 15 14Z" fill="currentColor"/>
</svg>
