<svg width="37" height="39" viewBox="0 0 37 39" fill="none" xmlns="http://www.w3.org/2000/svg">
<path d="M17.8465 0.46227C17.9153 -0.15409 18.7563 -0.15409 18.8251 0.46227L19.402 5.63297C20.147 12.3097 25.0968 17.5739 31.3749 18.3661L36.2369 18.9796C36.8166 19.0528 36.8166 19.9472 36.2369 20.0204L31.3749 20.6339C25.0968 21.4261 20.147 26.6903 19.402 33.367L18.8251 38.5377C18.7563 39.1541 17.9153 39.1541 17.8465 38.5377L17.2696 33.367C16.5247 26.6903 11.5748 21.4261 5.29667 20.6339L0.434672 20.0204C-0.144891 19.9472 -0.144891 19.0528 0.434672 18.9796L5.29667 18.3661C11.5748 17.5739 16.5247 12.3097 17.2696 5.63297L17.8465 0.46227Z" fill="currentColor"/>
</svg>
