<svg width="57" height="56" viewBox="0 0 57 56" fill="none" xmlns="http://www.w3.org/2000/svg">
<g clip-path="url(#clip0_10998_6588)">
<path d="M49.118 55.0277C48.304 55.0333 47.496 54.888 46.735 54.5992L36.4103 50.6259C35.8299 50.4079 35.3013 50.0716 34.8578 49.6384C34.4144 49.2052 34.0658 48.6846 33.8343 48.1095C33.6001 47.5204 33.4907 46.889 33.5132 46.2554C33.5357 45.6218 33.6895 44.9997 33.9648 44.4286C35.1171 41.9643 38.0705 40.7903 40.549 41.8101L47.1531 44.528C47.5013 44.6712 47.7782 44.9469 47.9231 45.2944C48.0679 45.6418 48.0688 46.0326 47.9256 46.3807C47.7823 46.7288 47.5066 47.0058 47.1591 47.1506C46.8117 47.2955 46.4209 47.2964 46.0728 47.1531L39.4687 44.4343C38.3893 43.9906 37.0469 44.5384 36.5361 45.631C36.4271 45.8499 36.3647 46.089 36.3528 46.3333C36.341 46.5775 36.3798 46.8216 36.467 47.05C36.5548 47.2629 36.6858 47.4552 36.8517 47.6147C37.0176 47.7743 37.2149 47.8977 37.431 47.9771L47.7595 51.9503C48.1948 52.1145 48.6566 52.1966 49.1218 52.1925C50.3819 52.1925 51.7138 51.6372 52.6845 50.7073C53.9663 49.4775 54.4242 47.8153 53.8197 46.5704L46.2686 30.9329C45.4145 29.1473 44.0868 27.6305 42.43 26.5475C40.7732 25.4646 38.8511 24.8572 36.8729 24.7914L32.4039 27.864C31.3768 28.5643 30.1624 28.9388 28.9193 28.9388C27.6761 28.9388 26.4618 28.5643 25.4347 27.864L20.9657 24.7914C18.9875 24.8571 17.0653 25.4645 15.4085 26.5474C13.7517 27.6303 12.424 29.1473 11.57 30.9329L4.01891 46.5675C3.41725 47.8125 3.87512 49.4746 5.15412 50.7045C6.12473 51.6344 7.45671 52.1897 8.71679 52.1897C9.18238 52.1948 9.6449 52.1137 10.0809 51.9503L20.4132 47.9771C20.6288 47.8977 20.8256 47.7744 20.991 47.6149C21.1565 47.4555 21.287 47.2635 21.3744 47.051C21.4618 46.8226 21.5008 46.5786 21.4891 46.3343C21.4774 46.0901 21.4151 45.8509 21.3063 45.632C20.7954 44.5403 19.4521 43.9925 18.3736 44.4362L11.7696 47.155C11.4214 47.2983 11.0307 47.2974 10.6832 47.1525C10.3357 47.0077 10.0601 46.7307 9.9168 46.3826C9.77354 46.0345 9.77444 45.6437 9.91929 45.2963C10.0641 44.9488 10.3411 44.6731 10.6892 44.5298L17.2933 41.812C19.7719 40.7922 22.7253 41.9662 23.8775 44.4305C24.1529 45.0016 24.3067 45.6237 24.3292 46.2573C24.3516 46.8909 24.2423 47.5223 24.0081 48.1114C23.7766 48.686 23.4283 49.2062 22.9852 49.6391C22.5421 50.0719 22.0138 50.408 21.434 50.6259L11.1017 54.5992C10.3418 54.8891 9.53477 55.0353 8.72152 55.0306C6.71693 55.0306 4.70193 54.2018 3.19399 52.7601C1.01817 50.6789 0.32569 47.6961 1.46279 45.3406L9.01478 29.7059C11.324 24.9238 16.0682 21.9486 21.3952 21.9486C21.6823 21.9486 21.9627 22.0357 22.1993 22.1984L27.0448 25.5255C27.5978 25.9027 28.2517 26.1045 28.9212 26.1045C29.5906 26.1045 30.2445 25.9027 30.7976 25.5255L35.6412 22.1946C35.8778 22.0319 36.1581 21.9448 36.4453 21.9448C41.7722 21.9448 46.5155 24.9162 48.8257 29.7021L56.371 45.334C57.5063 47.6886 56.8128 50.6694 54.6408 52.7526C53.1366 54.199 51.1216 55.0277 49.118 55.0277Z" fill="currentColor"/>
<path d="M15.3428 55.9982C14.9665 55.9982 14.6056 55.8487 14.3394 55.5826C14.0733 55.3165 13.9238 54.9556 13.9238 54.5792V51.4366C13.9238 51.0602 14.0733 50.6993 14.3394 50.4332C14.6056 50.1671 14.9665 50.0176 15.3428 50.0176C15.7192 50.0176 16.0801 50.1671 16.3462 50.4332C16.6124 50.6993 16.7619 51.0602 16.7619 51.4366V54.5792C16.7619 54.9556 16.6124 55.3165 16.3462 55.5826C16.0801 55.8487 15.7192 55.9982 15.3428 55.9982Z" fill="currentColor"/>
<path d="M42.4952 56.0001C42.1188 56.0001 41.7579 55.8506 41.4918 55.5845C41.2257 55.3184 41.0762 54.9575 41.0762 54.5811V51.4366C41.0762 51.0602 41.2257 50.6993 41.4918 50.4332C41.7579 50.1671 42.1188 50.0176 42.4952 50.0176C42.8715 50.0176 43.2325 50.1671 43.4986 50.4332C43.7647 50.6993 43.9142 51.0602 43.9142 51.4366V54.5811C43.9142 54.9575 43.7647 55.3184 43.4986 55.5845C43.2325 55.8506 42.8715 56.0001 42.4952 56.0001Z" fill="currentColor"/>
<path d="M17.8331 44.5392C17.4567 44.5392 17.0958 44.3897 16.8297 44.1236C16.5636 43.8575 16.4141 43.4965 16.4141 43.1202V34.2598C16.4141 33.8835 16.5636 33.5226 16.8297 33.2564C17.0958 32.9903 17.4567 32.8408 17.8331 32.8408C18.2094 32.8408 18.5704 32.9903 18.8365 33.2564C19.1026 33.5226 19.2521 33.8835 19.2521 34.2598V43.1164C19.2526 43.3031 19.2163 43.488 19.1452 43.6606C19.0741 43.8332 18.9696 43.9901 18.8378 44.1222C18.706 44.2544 18.5494 44.3593 18.377 44.4308C18.2046 44.5024 18.0197 44.5392 17.8331 44.5392Z" fill="currentColor"/>
<path d="M40.005 44.5392C39.6286 44.5392 39.2677 44.3897 39.0016 44.1236C38.7354 43.8575 38.5859 43.4965 38.5859 43.1202V34.2598C38.5859 33.8835 38.7354 33.5226 39.0016 33.2564C39.2677 32.9903 39.6286 32.8408 40.005 32.8408C40.3813 32.8408 40.7422 32.9903 41.0083 33.2564C41.2745 33.5226 41.424 33.8835 41.424 34.2598V43.1164C41.4245 43.3031 41.3881 43.488 41.317 43.6606C41.2459 43.8332 41.1415 43.9901 41.0097 44.1222C40.8779 44.2544 40.7213 44.3593 40.5489 44.4308C40.3765 44.5024 40.1916 44.5392 40.005 44.5392Z" fill="currentColor"/>
<path d="M28.9191 55.9974C28.7511 55.9971 28.5846 55.967 28.4272 55.9085L17.3409 51.8065C16.9878 51.676 16.7012 51.4105 16.5439 51.0685C16.3866 50.7266 16.3716 50.3361 16.5022 49.9831C16.6328 49.6301 16.8983 49.3434 17.2403 49.1861C17.5822 49.0289 17.9726 49.0139 18.3257 49.1445L28.921 53.0647L39.5163 49.1445C39.8693 49.0138 40.2598 49.0286 40.6018 49.1858C40.9439 49.343 41.2095 49.6296 41.3402 49.9826C41.4709 50.3357 41.456 50.7261 41.2989 51.0682C41.1417 51.4102 40.855 51.6758 40.502 51.8065L29.4101 55.9085C29.2529 55.9669 29.0867 55.997 28.9191 55.9974Z" fill="currentColor"/>
<path d="M28.9267 39.7938H28.9154C28.7228 39.7935 28.5323 39.7534 28.356 39.6759C28.1796 39.5984 28.0213 39.4852 27.8909 39.3435C27.8038 39.2574 26.346 37.8431 23.0076 36.6142C19.8488 35.4516 18.0505 35.6682 18.0325 35.6682H18.0495L17.6172 32.8633C17.8632 32.8255 20.1317 32.5341 23.9876 33.9541C26.4009 34.8424 27.9902 35.8234 28.9192 36.514C29.8491 35.8234 31.4384 34.8424 33.8517 33.9541C37.7076 32.535 39.9761 32.8255 40.2212 32.8633L39.7898 35.6682H39.8059C39.7888 35.6682 37.9905 35.4516 34.8317 36.6142C31.3864 37.8828 29.9664 39.3246 29.9522 39.3387C29.8215 39.4808 29.6631 39.5944 29.4867 39.6727C29.3103 39.751 29.1197 39.7922 28.9267 39.7938Z" fill="currentColor"/>
<path d="M28.919 21.0393C26.8384 21.0394 24.8044 20.4226 23.0744 19.2668C21.3443 18.111 19.9958 16.4682 19.1995 14.546C18.4031 12.6238 18.1947 10.5086 18.6005 8.46793C19.0063 6.42726 20.0081 4.55276 21.4792 3.08147C22.9504 1.61018 24.8248 0.608184 26.8654 0.202206C28.9061 -0.203773 31.0213 0.00449541 32.9435 0.800673C34.8658 1.59685 36.5088 2.94518 37.6647 4.67514C38.8207 6.4051 39.4377 8.439 39.4377 10.5196C39.4347 13.3085 38.3255 15.9823 36.3536 17.9545C34.3816 19.9266 31.7079 21.036 28.919 21.0393ZM28.919 2.83803C27.3997 2.83803 25.9146 3.28855 24.6513 4.13261C23.3881 4.97668 22.4035 6.17638 21.8221 7.58001C21.2407 8.98364 21.0886 10.5281 21.385 12.0182C21.6814 13.5083 22.413 14.877 23.4873 15.9513C24.5616 17.0256 25.9303 17.7572 27.4204 18.0536C28.9105 18.35 30.455 18.1979 31.8586 17.6165C33.2623 17.0351 34.462 16.0505 35.306 14.7873C36.1501 13.5241 36.6006 12.0389 36.6006 10.5196C36.5984 8.48303 35.7883 6.5305 34.3482 5.09041C32.9081 3.65032 30.9556 2.84029 28.919 2.83803Z" fill="currentColor"/>
</g>
</svg>
