<svg width="32" height="32" viewBox="0 0 32 32" fill="none" xmlns="http://www.w3.org/2000/svg">
<g clip-path="url(#clip0_16429_28476)">
<path d="M4.46717 20.7619C4.2521 20.7619 4.04584 20.6764 3.89376 20.5244C3.74169 20.3723 3.65625 20.166 3.65625 19.951V14.1664C3.65625 13.9513 3.74169 13.7451 3.89376 13.593C4.04584 13.4409 4.2521 13.3555 4.46717 13.3555C4.68224 13.3555 4.8885 13.4409 5.04058 13.593C5.19265 13.7451 5.27809 13.9513 5.27809 14.1664V19.951C5.27809 20.166 5.19265 20.3723 5.04058 20.5244C4.8885 20.6764 4.68224 20.7619 4.46717 20.7619Z" fill="#15343A"/>
<path d="M8.12137 7.84431C7.34564 7.84431 6.58734 7.61428 5.94234 7.1833C5.29735 6.75233 4.79463 6.13978 4.49778 5.4231C4.20092 4.70642 4.12325 3.9178 4.27458 3.15698C4.42592 2.39616 4.79947 1.6973 5.34799 1.14877C5.89652 0.600251 6.59538 0.226702 7.3562 0.0753648C8.11702 -0.0759723 8.90564 0.00169945 9.62232 0.298558C10.339 0.595416 10.9516 1.09813 11.3825 1.74312C11.8135 2.38812 12.0435 3.14643 12.0435 3.92215C12.0424 4.96202 11.6288 5.95897 10.8935 6.69427C10.1582 7.42957 9.16124 7.84316 8.12137 7.84431ZM8.12137 1.62184C7.66641 1.62184 7.22167 1.75675 6.84339 2.00952C6.4651 2.26228 6.17027 2.62154 5.99616 3.04186C5.82206 3.46219 5.7765 3.92471 5.86526 4.37092C5.95402 4.81714 6.1731 5.22702 6.49481 5.54872C6.81651 5.87042 7.22639 6.08951 7.6726 6.17827C8.11882 6.26702 8.58134 6.22147 9.00166 6.04737C9.42199 5.87326 9.78125 5.57842 10.034 5.20014C10.2868 4.82185 10.4217 4.37711 10.4217 3.92215C10.421 3.31229 10.1784 2.72762 9.74715 2.29638C9.31591 1.86514 8.73123 1.62256 8.12137 1.62184Z" fill="#15343A"/>
<path d="M20.9052 13.913C20.7486 13.9131 20.5953 13.8679 20.4639 13.7828C20.3325 13.6977 20.2285 13.5763 20.1645 13.4334C20.1005 13.2905 20.0793 13.1321 20.1034 12.9774C20.1275 12.8227 20.1959 12.6782 20.3002 12.5615L24.7062 7.62246C24.7772 7.54298 24.8632 7.47827 24.9592 7.43201C25.0552 7.38575 25.1594 7.35885 25.2658 7.35285C25.3722 7.34685 25.4787 7.36187 25.5793 7.39704C25.6799 7.43222 25.7726 7.48686 25.8521 7.55786C25.9316 7.62885 25.9963 7.7148 26.0425 7.81081C26.0888 7.90682 26.1157 8.01099 26.1217 8.11739C26.1277 8.22379 26.1127 8.33033 26.0775 8.43093C26.0423 8.53153 25.9877 8.62421 25.9167 8.70369L21.5107 13.64C21.4347 13.7257 21.3415 13.7943 21.2372 13.8414C21.1328 13.8884 21.0197 13.9129 20.9052 13.913Z" fill="#15343A"/>
<path d="M29.5667 21.2348H15.0171C14.8021 21.2348 14.5958 21.1494 14.4437 20.9973C14.2917 20.8452 14.2062 20.639 14.2062 20.4239C14.2062 20.2088 14.2917 20.0026 14.4437 19.8505C14.5958 19.6984 14.8021 19.613 15.0171 19.613H29.5667C29.7818 19.613 29.988 19.5275 30.1401 19.3755C30.2922 19.2234 30.3776 19.0171 30.3776 18.8021V2.45229C30.3776 2.23722 30.2922 2.03096 30.1401 1.87888C29.988 1.72681 29.7818 1.64137 29.5667 1.64137H13.6586C13.4435 1.64137 13.2372 1.55594 13.0852 1.40386C12.9331 1.25178 12.8477 1.04552 12.8477 0.830451C12.8477 0.615382 12.9331 0.409121 13.0852 0.257044C13.2372 0.104967 13.4435 0.0195313 13.6586 0.0195312H29.5667C30.2119 0.0195313 30.8307 0.275839 31.2869 0.73207C31.7431 1.1883 31.9994 1.80708 31.9994 2.45229V18.8021C31.9994 19.4473 31.7431 20.0661 31.2869 20.5223C30.8307 20.9785 30.2119 21.2348 29.5667 21.2348Z" fill="#15343A"/>
<path d="M8.12118 32.0024H4.46717C4.2521 32.0024 4.04584 31.9169 3.89376 31.7649C3.74169 31.6128 3.65625 31.4065 3.65625 31.1915V19.9515C3.65625 19.7365 3.74169 19.5302 3.89376 19.3781C4.04584 19.2261 4.2521 19.1406 4.46717 19.1406C4.68224 19.1406 4.8885 19.2261 5.04058 19.3781C5.19265 19.5302 5.27809 19.7365 5.27809 19.9515V30.3805H8.12118C8.33625 30.3805 8.54251 30.466 8.69458 30.618C8.84666 30.7701 8.9321 30.9764 8.9321 31.1915C8.9321 31.4065 8.84666 31.6128 8.69458 31.7649C8.54251 31.9169 8.33625 32.0024 8.12118 32.0024Z" fill="#15343A"/>
<path d="M11.774 32.002H8.11947C7.9044 32.002 7.69814 31.9166 7.54607 31.7645C7.39399 31.6124 7.30855 31.4062 7.30855 31.1911V20.4242C7.30855 20.2092 7.39399 20.0029 7.54607 19.8508C7.69814 19.6987 7.9044 19.6133 8.11947 19.6133C8.33454 19.6133 8.5408 19.6987 8.69288 19.8508C8.84496 20.0029 8.93039 20.2092 8.93039 20.4242V30.3802H10.9631V15.0484C10.963 14.7118 11.0628 14.3828 11.2498 14.103C11.4368 13.8231 11.7025 13.605 12.0135 13.4762C12.3244 13.3475 12.6666 13.3138 12.9967 13.3796C13.3267 13.4453 13.6299 13.6074 13.8678 13.8455L15.1388 15.1149C15.2329 15.2095 15.3449 15.2845 15.4683 15.3355C15.5916 15.3865 15.7238 15.4126 15.8573 15.4122H19.6313C19.7666 15.4122 19.9005 15.3853 20.0252 15.3329C20.1499 15.2805 20.2629 15.2037 20.3575 15.1071C20.4522 15.0105 20.5266 14.8959 20.5764 14.7702C20.6262 14.6444 20.6505 14.51 20.6476 14.3748C20.6363 13.826 20.1643 13.38 19.5956 13.38H16.612C16.397 13.3798 16.1908 13.2943 16.0389 13.1422L14.2933 11.3971C13.9766 11.0785 13.5998 10.826 13.1848 10.6541C12.7698 10.4823 12.3248 10.3945 11.8757 10.3958H11.2464L10.0208 11.4149C9.48689 11.8586 8.81453 12.1016 8.12028 12.1016C7.42604 12.1016 6.75367 11.8586 6.21976 11.4149L4.99311 10.3958H4.46547C3.71155 10.3967 2.98876 10.6966 2.45567 11.2297C1.92257 11.7628 1.6227 12.4856 1.62184 13.2395C1.62184 13.4545 1.5364 13.6608 1.38433 13.8129C1.23225 13.965 1.02599 14.0504 0.81092 14.0504C0.595851 14.0504 0.38959 13.965 0.237513 13.8129C0.0854358 13.6608 0 13.4545 0 13.2395C0.00128788 12.0555 0.472169 10.9205 1.30933 10.0833C2.14649 9.24617 3.28155 8.77528 4.46547 8.774H5.28612C5.47554 8.77406 5.65896 8.84043 5.80457 8.96159L7.25557 10.1677C7.49843 10.37 7.80449 10.4807 8.12055 10.4807C8.43661 10.4807 8.74268 10.37 8.98553 10.1677L10.4355 8.96105C10.5811 8.83989 10.7645 8.77352 10.9539 8.77346H11.8767C12.539 8.77163 13.195 8.90118 13.8068 9.15461C14.4186 9.40804 14.974 9.78031 15.441 10.2499L16.9493 11.7582H19.5983C21.0439 11.7582 22.243 12.9173 22.2717 14.3423C22.2788 14.6932 22.2158 15.042 22.0865 15.3682C21.9571 15.6945 21.7639 15.9916 21.5183 16.2423C21.2727 16.493 20.9795 16.6921 20.6559 16.8281C20.3324 16.964 19.985 17.034 19.634 17.034H15.8551C15.5086 17.035 15.1653 16.9672 14.8451 16.8346C14.525 16.702 14.2343 16.5072 13.99 16.2615L12.7212 14.9911C12.7108 14.9808 12.6978 14.9735 12.6837 14.97C12.6695 14.9664 12.6546 14.9668 12.6406 14.9711C12.6248 14.9764 12.6111 14.9866 12.6014 15.0002C12.5917 15.0137 12.5865 15.03 12.5866 15.0467V31.1895C12.5868 31.2962 12.5659 31.402 12.5251 31.5007C12.4844 31.5993 12.4245 31.689 12.349 31.7645C12.2736 31.84 12.1839 31.8998 12.0852 31.9406C11.9865 31.9814 11.8808 32.0022 11.774 32.002Z" fill="#15343A"/>
<path d="M2.63819 22.5872C1.93872 22.5864 1.2681 22.3083 0.773499 21.8137C0.278897 21.319 0.000715574 20.6484 0 19.949V13.2367C0 13.0216 0.0854357 12.8154 0.237513 12.6633C0.38959 12.5112 0.595851 12.4258 0.81092 12.4258C1.02599 12.4258 1.23225 12.5112 1.38433 12.6633C1.5364 12.8154 1.62184 13.0216 1.62184 13.2367V19.949C1.62184 20.2185 1.72892 20.477 1.91952 20.6676C2.11013 20.8582 2.36864 20.9653 2.63819 20.9653C2.90775 20.9653 3.16626 20.8582 3.35686 20.6676C3.54747 20.477 3.65455 20.2185 3.65455 19.949C3.65455 19.7339 3.73998 19.5276 3.89206 19.3756C4.04414 19.2235 4.2504 19.138 4.46547 19.138C4.68054 19.138 4.8868 19.2235 5.03887 19.3756C5.19095 19.5276 5.27639 19.7339 5.27639 19.949C5.27567 20.6484 4.99749 21.319 4.50289 21.8137C4.00828 22.3083 3.33767 22.5864 2.63819 22.5872Z" fill="#15343A"/>
<path d="M25.517 32.0007H0.81092C0.595851 32.0007 0.38959 31.9153 0.237513 31.7632C0.0854358 31.6112 0 31.4049 0 31.1898C0 30.9748 0.0854358 30.7685 0.237513 30.6164C0.38959 30.4643 0.595851 30.3789 0.81092 30.3789H25.517C25.732 30.3789 25.9383 30.4643 26.0904 30.6164C26.2425 30.7685 26.3279 30.9748 26.3279 31.1898C26.3279 31.4049 26.2425 31.6112 26.0904 31.7632C25.9383 31.9153 25.732 32.0007 25.517 32.0007Z" fill="#15343A"/>
<path d="M21.109 8.9734H16.9047C16.6896 8.9734 16.4833 8.88797 16.3313 8.73589C16.1792 8.58381 16.0938 8.37755 16.0938 8.16248C16.0938 7.94741 16.1792 7.74115 16.3313 7.58908C16.4833 7.437 16.6896 7.35156 16.9047 7.35156H21.109C21.3241 7.35156 21.5304 7.437 21.6824 7.58908C21.8345 7.74115 21.9199 7.94741 21.9199 8.16248C21.9199 8.37755 21.8345 8.58381 21.6824 8.73589C21.5304 8.88797 21.3241 8.9734 21.109 8.9734Z" fill="#15343A"/>
<path d="M25.3134 5.30543H16.9047C16.6896 5.30543 16.4833 5.22 16.3313 5.06792C16.1792 4.91584 16.0938 4.70958 16.0938 4.49451C16.0938 4.27944 16.1792 4.07318 16.3313 3.92111C16.4833 3.76903 16.6896 3.68359 16.9047 3.68359H25.3134C25.5284 3.68359 25.7347 3.76903 25.8868 3.92111C26.0389 4.07318 26.1243 4.27944 26.1243 4.49451C26.1243 4.70958 26.0389 4.91584 25.8868 5.06792C25.7347 5.22 25.5284 5.30543 25.3134 5.30543Z" fill="#15343A"/>
</g>
<defs>
<clipPath id="clip0_16429_28476">
<rect width="32" height="32" fill="white"/>
</clipPath>
</defs>
</svg>
