<svg width="56" height="56" viewBox="0 0 56 56" fill="none" xmlns="http://www.w3.org/2000/svg">
<g clip-path="url(#clip0_10998_6483)">
<path d="M7.81364 36.3313C7.43727 36.3313 7.07631 36.1818 6.81018 35.9157C6.54404 35.6495 6.39453 35.2886 6.39453 34.9122V24.7892C6.39453 24.4129 6.54404 24.0519 6.81018 23.7858C7.07631 23.5196 7.43727 23.3701 7.81364 23.3701C8.19001 23.3701 8.55097 23.5196 8.8171 23.7858C9.08324 24.0519 9.23275 24.4129 9.23275 24.7892V34.9122C9.23275 35.2886 9.08324 35.6495 8.8171 35.9157C8.55097 36.1818 8.19001 36.3313 7.81364 36.3313Z" fill="currentColor"/>
<path d="M14.2095 13.7275C12.8519 13.7275 11.5249 13.325 10.3962 12.5708C9.26743 11.8166 8.38768 10.7446 7.86818 9.49042C7.34868 8.23623 7.21275 6.85616 7.47759 5.52472C7.74243 4.19327 8.39614 2.97027 9.35606 2.01035C10.316 1.05044 11.539 0.396728 12.8704 0.131888C14.2019 -0.132952 15.5819 0.00297403 16.8361 0.522476C18.0903 1.04198 19.1623 1.92173 19.9165 3.05047C20.6707 4.17921 21.0732 5.50625 21.0732 6.86377C21.0712 8.68354 20.3474 10.4282 19.0607 11.715C17.7739 13.0017 16.0292 13.7255 14.2095 13.7275ZM14.2095 2.83823C13.4133 2.83823 12.635 3.07432 11.973 3.51665C11.311 3.95898 10.795 4.58769 10.4904 5.32326C10.1857 6.05883 10.106 6.86824 10.2613 7.64912C10.4166 8.42999 10.8 9.14728 11.363 9.71026C11.926 10.2732 12.6432 10.6566 13.4241 10.812C14.205 10.9673 15.0144 10.8876 15.75 10.5829C16.4856 10.2782 17.1143 9.76224 17.5566 9.10024C17.9989 8.43824 18.235 7.65995 18.235 6.86377C18.2338 5.79651 17.8092 4.77333 17.0546 4.01866C16.2999 3.264 15.2767 2.83948 14.2095 2.83823Z" fill="currentColor"/>
<path d="M36.586 24.3444C36.312 24.3446 36.0438 24.2654 35.8138 24.1165C35.5838 23.9675 35.4018 23.7552 35.2899 23.5051C35.1779 23.2549 35.1408 22.9778 35.1829 22.707C35.2251 22.4362 35.3447 22.1835 35.5274 21.9792L43.2379 13.3359C43.3621 13.1968 43.5125 13.0835 43.6806 13.0026C43.8486 12.9216 44.0309 12.8746 44.2171 12.8641C44.4033 12.8536 44.5897 12.8799 44.7658 12.9414C44.9418 13.003 45.104 13.0986 45.2431 13.2228C45.3822 13.3471 45.4954 13.4975 45.5764 13.6655C45.6573 13.8335 45.7044 14.0158 45.7149 14.202C45.7254 14.3882 45.6991 14.5747 45.6376 14.7507C45.576 14.9268 45.4804 15.0889 45.3561 15.228L37.6456 23.8666C37.5128 24.0166 37.3496 24.1366 37.167 24.219C36.9844 24.3013 36.7864 24.3441 36.586 24.3444Z" fill="currentColor"/>
<path d="M51.7427 37.159H26.281C25.9046 37.159 25.5436 37.0095 25.2775 36.7433C25.0114 36.4772 24.8619 36.1162 24.8619 35.7399C24.8619 35.3635 25.0114 35.0025 25.2775 34.7364C25.5436 34.4703 25.9046 34.3208 26.281 34.3208H51.7427C52.119 34.3208 52.48 34.1713 52.7461 33.9051C53.0123 33.639 53.1618 33.278 53.1618 32.9017V4.28956C53.1618 3.91319 53.0123 3.55223 52.7461 3.2861C52.48 3.01996 52.119 2.87045 51.7427 2.87045H23.9035C23.5271 2.87045 23.1662 2.72093 22.9 2.4548C22.6339 2.18866 22.4844 1.82771 22.4844 1.45134C22.4844 1.07497 22.6339 0.714009 22.9 0.447874C23.1662 0.18174 23.5271 0.0322266 23.9035 0.0322266H51.7427C52.8718 0.0322266 53.9547 0.480766 54.7531 1.27917C55.5515 2.07757 56 3.16044 56 4.28956V32.9017C56 34.0308 55.5515 35.1136 54.7531 35.912C53.9547 36.7104 52.8718 37.159 51.7427 37.159Z" fill="currentColor"/>
<path d="M14.2082 56.0012H7.81364C7.43727 56.0012 7.07631 55.8517 6.81018 55.5856C6.54404 55.3194 6.39453 54.9585 6.39453 54.5821V34.9123C6.39453 34.5359 6.54404 34.1749 6.81018 33.9088C7.07631 33.6427 7.43727 33.4932 7.81364 33.4932C8.19001 33.4932 8.55097 33.6427 8.8171 33.9088C9.08324 34.1749 9.23275 34.5359 9.23275 34.9123V53.163H14.2082C14.5845 53.163 14.9455 53.3125 15.2116 53.5786C15.4778 53.8448 15.6273 54.2057 15.6273 54.5821C15.6273 54.9585 15.4778 55.3194 15.2116 55.5856C14.9455 55.8517 14.5845 56.0012 14.2082 56.0012Z" fill="currentColor"/>
<path d="M20.6045 56.0011H14.2091C13.8327 56.0011 13.4718 55.8516 13.2056 55.5854C12.9395 55.3193 12.79 54.9583 12.79 54.582V35.74C12.79 35.3636 12.9395 35.0026 13.2056 34.7365C13.4718 34.4704 13.8327 34.3208 14.2091 34.3208C14.5854 34.3208 14.9464 34.4704 15.2125 34.7365C15.4787 35.0026 15.6282 35.3636 15.6282 35.74V53.1629H19.1854V26.3322C19.1853 25.7432 19.3599 25.1674 19.6871 24.6777C20.0143 24.188 20.4794 23.8063 21.0236 23.581C21.5678 23.3556 22.1665 23.2968 22.7442 23.4118C23.3218 23.5268 23.8523 23.8106 24.2687 24.2272L26.4929 26.4486C26.6577 26.6141 26.8536 26.7454 27.0694 26.8347C27.2853 26.924 27.5167 26.9696 27.7502 26.9689H34.3548C34.5915 26.969 34.8258 26.9218 35.044 26.8301C35.2623 26.7384 35.46 26.6041 35.6257 26.435C35.7913 26.2659 35.9216 26.0654 36.0087 25.8454C36.0959 25.6253 36.1383 25.39 36.1334 25.1534C36.1135 24.1931 35.2876 23.4126 34.2923 23.4126H29.0709C28.6947 23.4123 28.334 23.2625 28.0681 22.9963L25.0132 19.9424C24.459 19.385 23.7997 18.943 23.0734 18.6423C22.3472 18.3415 21.5685 18.1879 20.7824 18.1903H19.6812L17.5364 19.9736C16.6021 20.7502 15.4254 21.1753 14.2105 21.1753C12.9956 21.1753 11.8189 20.7502 10.8846 19.9736L8.73793 18.1903H7.81457C6.49522 18.1918 5.23034 18.7166 4.29742 19.6495C3.3645 20.5824 2.83972 21.8473 2.83822 23.1666C2.83822 23.543 2.68871 23.904 2.42257 24.1701C2.15644 24.4362 1.79548 24.5857 1.41911 24.5857C1.04274 24.5857 0.681782 24.4362 0.415647 24.1701C0.149513 23.904 0 23.543 0 23.1666C0.00225379 21.0948 0.826296 19.1084 2.29132 17.6434C3.75635 16.1783 5.74271 15.3543 7.81457 15.3521H9.25071C9.58219 15.3522 9.90319 15.4683 10.158 15.6803L12.6973 17.791C13.1222 18.145 13.6579 18.3389 14.211 18.3389C14.7641 18.3389 15.2997 18.145 15.7247 17.791L18.2621 15.6794C18.5169 15.4674 18.8379 15.3512 19.1693 15.3511H20.7843C21.9432 15.3479 23.0912 15.5746 24.1618 16.0181C25.2325 16.4616 26.2046 17.1131 27.0217 17.9348L29.6613 20.5744H34.2971C36.8269 20.5744 38.9252 22.6028 38.9754 25.0966C38.9878 25.7107 38.8777 26.321 38.6513 26.892C38.4249 27.4629 38.0869 27.9829 37.657 28.4216C37.2272 28.8603 36.7141 29.2088 36.1479 29.4467C35.5817 29.6846 34.9737 29.8071 34.3595 29.8071H27.7464C27.14 29.8088 26.5393 29.6902 25.979 29.4582C25.4187 29.2261 24.9101 28.8852 24.4825 28.4552L22.2621 26.2319C22.2439 26.2139 22.2212 26.2012 22.1964 26.195C22.1716 26.1888 22.1456 26.1895 22.1211 26.1969C22.0934 26.2062 22.0694 26.2241 22.0524 26.2478C22.0354 26.2716 22.0263 26.3001 22.0265 26.3294V54.5791C22.0269 54.766 21.9903 54.951 21.919 55.1237C21.8477 55.2964 21.743 55.4533 21.6108 55.5854C21.4787 55.7176 21.3218 55.8223 21.1491 55.8936C20.9764 55.9649 20.7914 56.0015 20.6045 56.0011Z" fill="currentColor"/>
<path d="M4.61684 39.529C3.39276 39.5277 2.21918 39.0409 1.35362 38.1754C0.48807 37.3098 0.00125225 36.1362 0 34.9121V23.1657C0 22.7893 0.149513 22.4284 0.415647 22.1622C0.681782 21.8961 1.04274 21.7466 1.41911 21.7466C1.79548 21.7466 2.15644 21.8961 2.42257 22.1622C2.68871 22.4284 2.83822 22.7893 2.83822 23.1657V34.9121C2.83822 35.3839 3.02561 35.8363 3.35916 36.1698C3.69272 36.5034 4.14512 36.6908 4.61684 36.6908C5.08856 36.6908 5.54096 36.5034 5.87451 36.1698C6.20807 35.8363 6.39546 35.3839 6.39546 34.9121C6.39546 34.5358 6.54497 34.1748 6.8111 33.9087C7.07724 33.6425 7.43819 33.493 7.81457 33.493C8.19094 33.493 8.55189 33.6425 8.81803 33.9087C9.08416 34.1748 9.23368 34.5358 9.23368 34.9121C9.23242 36.1362 8.7456 37.3098 7.88005 38.1754C7.0145 39.0409 5.84091 39.5277 4.61684 39.529Z" fill="currentColor"/>
<path d="M44.6566 56.0008H1.42106C1.04469 56.0008 0.683736 55.8513 0.417601 55.5852C0.151466 55.319 0.00195312 54.9581 0.00195312 54.5817C0.00195312 54.2053 0.151466 53.8444 0.417601 53.5782C0.683736 53.3121 1.04469 53.1626 1.42106 53.1626H44.6566C45.033 53.1626 45.394 53.3121 45.6601 53.5782C45.9262 53.8444 46.0758 54.2053 46.0758 54.5817C46.0758 54.9581 45.9262 55.319 45.6601 55.5852C45.394 55.8513 45.033 56.0008 44.6566 56.0008Z" fill="currentColor"/>
<path d="M36.9369 15.7H29.5793C29.2029 15.7 28.8419 15.5505 28.5758 15.2844C28.3097 15.0183 28.1602 14.6573 28.1602 14.2809C28.1602 13.9046 28.3097 13.5436 28.5758 13.2775C28.8419 13.0113 29.2029 12.8618 29.5793 12.8618H36.9369C37.3133 12.8618 37.6742 13.0113 37.9403 13.2775C38.2065 13.5436 38.356 13.9046 38.356 14.2809C38.356 14.6573 38.2065 15.0183 37.9403 15.2844C37.6742 15.5505 37.3133 15.7 36.9369 15.7Z" fill="currentColor"/>
<path d="M44.2945 9.285H29.5793C29.2029 9.285 28.8419 9.13549 28.5758 8.86935C28.3097 8.60322 28.1602 8.24226 28.1602 7.86589C28.1602 7.48952 28.3097 7.12856 28.5758 6.86242C28.8419 6.59629 29.2029 6.44678 29.5793 6.44678H44.2945C44.6709 6.44678 45.0318 6.59629 45.298 6.86242C45.5641 7.12856 45.7136 7.48952 45.7136 7.86589C45.7136 8.24226 45.5641 8.60322 45.298 8.86935C45.0318 9.13549 44.6709 9.285 44.2945 9.285Z" fill="currentColor"/>
</g>
</svg>
