<svg width="20" height="21" viewBox="0 0 20 21" fill="none" xmlns="http://www.w3.org/2000/svg">
<path fill-rule="evenodd" clip-rule="evenodd" d="M4.55806 5.05806C4.80214 4.81398 5.19786 4.81398 5.44194 5.05806L10 9.61612L14.5581 5.05806C14.8021 4.81398 15.1979 4.81398 15.4419 5.05806C15.686 5.30214 15.686 5.69786 15.4419 5.94194L10.8839 10.5L15.4419 15.0581C15.686 15.3021 15.686 15.6979 15.4419 15.9419C15.1979 16.186 14.8021 16.186 14.5581 15.9419L10 11.3839L5.44194 15.9419C5.19786 16.186 4.80214 16.186 4.55806 15.9419C4.31398 15.6979 4.31398 15.3021 4.55806 15.0581L9.11612 10.5L4.55806 5.94194C4.31398 5.69786 4.31398 5.30214 4.55806 5.05806Z" fill="#BA3E00"/>
</svg>
