<svg width="73" height="43" viewBox="0 0 73 43" fill="none" xmlns="http://www.w3.org/2000/svg">
<path d="M1.51234 26.5501C0.563347 31.5471 0.869126 36.6925 2.52992 41.731C2.87605 42.781 3.99853 43.2722 4.98881 42.867C8.91215 41.2618 12.8357 39.6567 16.7593 38.0516C18.6681 37.2707 16.964 34.4126 15.0571 35.1929C12.9542 36.0533 10.8513 36.9134 8.7484 37.7738C16.3662 19.7137 31.9561 3.43564 54.1526 3.29552C59.6759 3.26068 65.1705 4.29051 70.398 6.46428C72.4237 7.30672 73.2712 4.30412 71.2621 3.46836C61.4464 -0.613985 50.5197 -0.788144 40.8894 2.0563C30.0886 5.24648 21.3012 12.0168 14.7428 20.516C10.795 25.6322 7.72888 31.329 5.27486 37.2966C4.97802 38.0182 5.2902 38.615 5.82283 38.9703C5.61067 39.0572 5.39855 39.144 5.18639 39.2308C4.18832 35.3656 4.00677 31.4432 4.73274 27.6211C5.10645 25.6522 1.88861 24.5695 1.51234 26.5501Z" fill="#3A20B0"/>
</svg>
