<svg width="1440" height="1054" viewBox="0 0 1440 1054" fill="none" xmlns="http://www.w3.org/2000/svg">
<g opacity="0.6">
<g opacity="0.8" filter="url(#filter0_f_6491_21065)">
<ellipse cx="946.107" cy="603.504" rx="314.336" ry="308.443" transform="rotate(-16.6036 946.107 603.504)" fill="#AC9AFF"/>
</g>
<g opacity="0.8" filter="url(#filter1_f_6491_21065)">
<ellipse cx="479.765" cy="689.566" rx="334.244" ry="219.108" transform="rotate(-13.3336 479.765 689.566)" fill="#5EFFC1"/>
</g>
<g opacity="0.8" filter="url(#filter2_f_6491_21065)">
<ellipse cx="630.457" cy="532.439" rx="179.687" ry="219.108" transform="rotate(65.3315 630.457 532.439)" fill="#F0ECFF"/>
</g>
<g opacity="0.8" filter="url(#filter3_f_6491_21065)">
<path d="M931.097 576.076C766.852 589.922 625.469 503.451 615.31 382.937C605.15 262.423 730.061 153.503 894.306 139.657C1058.55 125.811 1199.93 212.283 1210.09 332.797C1220.25 453.31 1095.34 562.23 931.097 576.076Z" fill="#8BFFD2"/>
</g>
<g opacity="0.8" filter="url(#filter4_f_6491_21065)">
<ellipse cx="429.744" cy="414.748" rx="262.237" ry="236.65" transform="rotate(-13.3336 429.744 414.748)" fill="#AC9AFF"/>
</g>
<path opacity="0.5" fill-rule="evenodd" clip-rule="evenodd" d="M635.819 218H631.298V236.11H590.603V218H586.081V236.11H545.386V218H540.864V236.11H500.169V218H495.648V236.11H454.953V218H450.431V236.11H409.736V218H405.214V236.11H364.519V218H359.998V236.11H319.303V218H314.781V236.11H274.086V218H269.564V236.11H228.869V218H224.348V236.11H204V240.135H224.348V276.355H204V280.38H224.348V316.6H204V320.624H224.348V356.845H204V360.869H224.348V397.089H204V401.114H224.348V437.334H204V441.358H224.348V477.579H204V481.603H224.348V517.823H204V521.848H224.348V558.068H204V562.093H224.348V598.313H204V602.337H224.348V620.448H228.869V602.337H269.564V620.448H274.086V602.337H314.781V620.448H319.303V602.337H359.998V620.448H364.519V602.337H405.214V620.448H409.736V602.337H450.431V620.448H454.953V602.337H495.648V620.448H500.169V602.337H540.864V620.448H545.386V602.337H586.081V620.448H590.603V602.337H631.298V620.448H635.819V602.337H656.167V598.313H635.819V562.093H656.167V558.068H635.819V521.848H656.167V517.823H635.819V481.603H656.167V477.579H635.819V441.358H656.167V437.334H635.819V401.114H656.167V397.089H635.819V360.869H656.167V356.845H635.819V320.624H656.167V316.6H635.819V280.38H656.167V276.355H635.819V240.135H656.167V236.11H635.819V218ZM590.603 276.355H631.298V240.135H590.603V276.355ZM590.603 316.6H631.298V280.38H590.603V316.6ZM590.603 356.845H631.298V320.624H590.603V356.845ZM590.603 397.089H631.298V360.869H590.603V397.089ZM590.603 437.334H631.298V401.114H590.603V437.334ZM590.603 477.579H631.298V441.358H590.603V477.579ZM590.603 517.823H631.298V481.603H590.603V517.823ZM590.603 558.068H631.298V521.848H590.603V558.068ZM590.603 598.313H631.298V562.093H590.603V598.313ZM269.564 562.093H228.869V598.313H269.564V562.093ZM269.564 521.848H228.869V558.068H269.564V521.848ZM269.564 481.603H228.869V517.823H269.564V481.603ZM269.564 441.358H228.869V477.579H269.564V441.358ZM269.564 401.114H228.869V437.334H269.564V401.114ZM269.564 360.869H228.869V397.089H269.564V360.869ZM269.564 320.624H228.869V356.845H269.564V320.624ZM269.564 280.38H228.869V316.6H269.564V280.38ZM269.564 240.135H228.869V276.355H269.564V240.135ZM545.386 276.355H586.081V240.135H545.386V276.355ZM545.386 316.6H586.081V280.38H545.386V316.6ZM545.386 356.845H586.081V320.624H545.386V356.845ZM545.386 397.089H586.081V360.869H545.386V397.089ZM545.386 437.334H586.081V401.114H545.386V437.334ZM545.386 477.579H586.081V441.358H545.386V477.579ZM545.386 517.823H586.081V481.603H545.386V517.823ZM545.386 558.068H586.081V521.848H545.386V558.068ZM314.781 521.848H274.086V558.068H314.781V521.848ZM314.781 481.603H274.086V517.823H314.781V481.603ZM314.781 441.358H274.086V477.579H314.781V441.358ZM314.781 401.114H274.086V437.334H314.781V401.114ZM314.781 360.869H274.086V397.089H314.781V360.869ZM314.781 320.624H274.086V356.845H314.781V320.624ZM314.781 280.38H274.086V316.6H314.781V280.38ZM500.169 316.6H540.864V280.38H500.169V316.6ZM500.169 356.845H540.864V320.624H500.169V356.845ZM500.169 397.089H540.864V360.869H500.169V397.089ZM500.169 437.334H540.864V401.114H500.169V437.334ZM500.169 477.579H540.864V441.358H500.169V477.579ZM500.169 517.823H540.864V481.603H500.169V517.823ZM359.998 481.603H319.303V517.823H359.998V481.603ZM359.998 441.358H319.303V477.579H359.998V441.358ZM359.998 401.114H319.303V437.334H359.998V401.114ZM359.998 360.869H319.303V397.089H359.998V360.869ZM359.998 320.624H319.303V356.845H359.998V320.624ZM454.953 356.845H495.648V320.624H454.953V356.845ZM454.953 397.089H495.648V360.869H454.953V397.089ZM454.953 437.334H495.648V401.114H454.953V437.334ZM454.953 477.579H495.648V441.358H454.953V477.579ZM405.214 441.358H364.519V477.579H405.214V441.358ZM405.214 401.114H364.519V437.334H405.214V401.114ZM405.214 360.869H364.519V397.089H405.214V360.869ZM409.736 397.089H450.431V360.869H409.736V397.089ZM409.736 437.334H450.431V401.114H409.736V437.334ZM450.431 441.358H409.736V477.579H450.431V441.358ZM409.736 356.845H450.431V320.624H409.736V356.845ZM364.519 356.845H405.214V320.624H364.519V356.845ZM405.214 481.603H364.519V517.823H405.214V481.603ZM450.431 481.603H409.736V517.823H450.431V481.603ZM495.648 481.603H454.953V517.823H495.648V481.603ZM454.953 316.6H495.648V280.38H454.953V316.6ZM409.736 316.6H450.431V280.38H409.736V316.6ZM364.519 316.6H405.214V280.38H364.519V316.6ZM319.303 316.6H359.998V280.38H319.303V316.6ZM359.998 521.848H319.303V558.068H359.998V521.848ZM405.214 521.848H364.519V558.068H405.214V521.848ZM450.431 521.848H409.736V558.068H450.431V521.848ZM495.648 521.848H454.953V558.068H495.648V521.848ZM540.864 521.848H500.169V558.068H540.864V521.848ZM500.169 276.355H540.864V240.135H500.169V276.355ZM454.953 276.355H495.648V240.135H454.953V276.355ZM409.736 276.355H450.431V240.135H409.736V276.355ZM364.519 276.355H405.214V240.135H364.519V276.355ZM319.303 276.355H359.998V240.135H319.303V276.355ZM274.086 276.355H314.781V240.135H274.086V276.355ZM314.781 562.093H274.086V598.313H314.781V562.093ZM359.998 562.093H319.303V598.313H359.998V562.093ZM405.214 562.093H364.519V598.313H405.214V562.093ZM450.431 562.093H409.736V598.313H450.431V562.093ZM495.648 562.093H454.953V598.313H495.648V562.093ZM540.864 562.093H500.169V598.313H540.864V562.093ZM586.081 562.093H545.386V598.313H586.081V562.093Z" fill="url(#paint0_radial_6491_21065)"/>
<path opacity="0.5" fill-rule="evenodd" clip-rule="evenodd" d="M1148.64 448.077H1143.73V467.749H1099.49V448.077H1094.57V467.749H1050.33V448.077H1045.41V467.749H1001.17V448.077H996.257V467.749H952.016V448.077H947.1V467.749H902.859V448.077H897.944V467.749H853.703V448.077H848.787V467.749H804.546V448.077H799.63V467.749H755.389V448.077H750.474V467.749H706.232V448.077H701.317V467.749H679.196V472.12H701.317V511.464H679.196V515.836H701.317V555.18H679.196V559.552H701.317V598.896H679.196V603.267H701.317V642.612H679.196V646.983H701.317V686.327H679.196V690.699H701.317V730.043H679.196V734.415H701.317V773.759H679.196V778.13H701.317V817.474H679.196V821.846H701.317V861.19H679.196V865.562H701.317V885.234H706.232V865.562H750.474V885.234H755.389V865.562H799.63V885.234H804.546V865.562H848.787V885.234H853.703V865.562H897.944V885.234H902.859V865.562H947.1V885.234H952.016V865.562H996.257V885.234H1001.17V865.562H1045.41V885.234H1050.33V865.562H1094.57V885.234H1099.49V865.562H1143.73V885.234H1148.64V865.562H1170.76V861.19H1148.64V821.846H1170.76V817.474H1148.64V778.13H1170.76V773.759H1148.64V734.415H1170.76V730.043H1148.64V690.699H1170.76V686.327H1148.64V646.983H1170.76V642.612H1148.64V603.267H1170.76V598.896H1148.64V559.552H1170.76V555.18H1148.64V515.836H1170.76V511.464H1148.64V472.12H1170.76V467.749H1148.64V448.077ZM1099.49 511.464H1143.73V472.12H1099.49V511.464ZM1099.49 555.18H1143.73V515.836H1099.49V555.18ZM1099.49 598.896H1143.73V559.552H1099.49V598.896ZM1099.49 642.612H1143.73V603.267H1099.49V642.612ZM1099.49 686.327H1143.73V646.983H1099.49V686.327ZM1099.49 730.043H1143.73V690.699H1099.49V730.043ZM1099.49 773.759H1143.73V734.415H1099.49V773.759ZM1099.49 817.474H1143.73V778.13H1099.49V817.474ZM1099.49 861.19H1143.73V821.846H1099.49V861.19ZM750.474 821.846H706.232V861.19H750.474V821.846ZM750.474 778.13H706.232V817.474H750.474V778.13ZM750.474 734.415H706.232V773.759H750.474V734.415ZM750.474 690.699H706.232V730.043H750.474V690.699ZM750.474 646.983H706.232V686.327H750.474V646.983ZM750.474 603.267H706.232V642.612H750.474V603.267ZM750.474 559.552H706.232V598.896H750.474V559.552ZM750.474 515.836H706.232V555.18H750.474V515.836ZM750.474 472.12H706.232V511.464H750.474V472.12ZM1050.33 511.464H1094.57V472.12H1050.33V511.464ZM1050.33 555.18H1094.57V515.836H1050.33V555.18ZM1050.33 598.896H1094.57V559.552H1050.33V598.896ZM1050.33 642.612H1094.57V603.267H1050.33V642.612ZM1050.33 686.327H1094.57V646.983H1050.33V686.327ZM1050.33 730.043H1094.57V690.699H1050.33V730.043ZM1050.33 773.759H1094.57V734.415H1050.33V773.759ZM1050.33 817.474H1094.57V778.13H1050.33V817.474ZM799.63 778.13H755.389V817.474H799.63V778.13ZM799.63 734.415H755.389V773.759H799.63V734.415ZM799.63 690.699H755.389V730.043H799.63V690.699ZM799.63 646.983H755.389V686.327H799.63V646.983ZM799.63 603.267H755.389V642.612H799.63V603.267ZM799.63 559.552H755.389V598.896H799.63V559.552ZM799.63 515.836H755.389V555.18H799.63V515.836ZM1001.17 555.18H1045.41V515.836H1001.17V555.18ZM1001.17 598.896H1045.41V559.552H1001.17V598.896ZM1001.17 642.612H1045.41V603.267H1001.17V642.612ZM1001.17 686.327H1045.41V646.983H1001.17V686.327ZM1001.17 730.043H1045.41V690.699H1001.17V730.043ZM1001.17 773.759H1045.41V734.415H1001.17V773.759ZM848.787 734.415H804.546V773.759H848.787V734.415ZM848.787 690.699H804.546V730.043H848.787V690.699ZM848.787 646.983H804.546V686.327H848.787V646.983ZM848.787 603.267H804.546V642.612H848.787V603.267ZM848.787 559.552H804.546V598.896H848.787V559.552ZM952.016 598.896H996.257V559.552H952.016V598.896ZM952.016 642.612H996.257V603.267H952.016V642.612ZM952.016 686.327H996.257V646.983H952.016V686.327ZM952.016 730.043H996.257V690.699H952.016V730.043ZM897.944 690.699H853.703V730.043H897.944V690.699ZM897.944 646.983H853.703V686.327H897.944V646.983ZM897.944 603.267H853.703V642.612H897.944V603.267ZM902.859 642.612H947.1V603.267H902.859V642.612ZM902.859 686.327H947.1V646.983H902.859V686.327ZM947.1 690.699H902.859V730.043H947.1V690.699ZM902.859 598.896H947.1V559.552H902.859V598.896ZM853.703 598.896H897.944V559.552H853.703V598.896ZM897.944 734.415H853.703V773.759H897.944V734.415ZM947.1 734.415H902.859V773.759H947.1V734.415ZM996.257 734.415H952.016V773.759H996.257V734.415ZM952.016 555.18H996.257V515.836H952.016V555.18ZM902.859 555.18H947.1V515.836H902.859V555.18ZM853.703 555.18H897.944V515.836H853.703V555.18ZM804.546 555.18H848.787V515.836H804.546V555.18ZM848.787 778.13H804.546V817.474H848.787V778.13ZM897.944 778.13H853.703V817.474H897.944V778.13ZM947.1 778.13H902.859V817.474H947.1V778.13ZM996.257 778.13H952.016V817.474H996.257V778.13ZM1045.41 778.13H1001.17V817.474H1045.41V778.13ZM1001.17 511.464H1045.41V472.12H1001.17V511.464ZM952.016 511.464H996.257V472.12H952.016V511.464ZM902.859 511.464H947.1V472.12H902.859V511.464ZM853.703 511.464H897.944V472.12H853.703V511.464ZM804.546 511.464H848.787V472.12H804.546V511.464ZM755.389 511.464H799.63V472.12H755.389V511.464ZM799.63 821.846H755.389V861.19H799.63V821.846ZM848.787 821.846H804.546V861.19H848.787V821.846ZM897.944 821.846H853.703V861.19H897.944V821.846ZM947.1 821.846H902.859V861.19H947.1V821.846ZM996.257 821.846H952.016V861.19H996.257V821.846ZM1045.41 821.846H1001.17V861.19H1045.41V821.846ZM1094.57 821.846H1050.33V861.19H1094.57V821.846Z" fill="url(#paint1_radial_6491_21065)"/>
<path opacity="0.5" fill-rule="evenodd" clip-rule="evenodd" d="M627.036 518.794H622.355V537.537H580.225V518.794H575.544V537.537H533.413V518.794H528.732V537.537H486.602V518.794H481.921V537.537H439.79V518.794H435.109V537.537H392.979V518.794H388.298V537.537H346.168V518.794H341.486V537.537H299.356V518.794H294.675V537.537H252.545V518.794H247.863V537.537H205.733V518.794H201.052V537.537H179.987V541.702H201.052V579.189H179.987V583.354H201.052V620.841H179.987V625.006H201.052V662.493H179.987V666.658H201.052V704.145H179.987V708.31H201.052V745.797H179.987V749.962H201.052V787.449H179.987V791.614H201.052V829.1H179.987V833.266H201.052V870.752H179.987V874.918H201.052V912.404H179.987V916.569H201.052V935.313H205.733V916.569H247.863V935.313H252.545V916.569H294.675V935.313H299.356V916.569H341.486V935.313H346.168V916.569H388.298V935.313H392.979V916.569H435.109V935.313H439.79V916.569H481.921V935.313H486.602V916.569H528.732V935.313H533.413V916.569H575.544V935.313H580.225V916.569H622.355V935.313H627.036V916.569H648.101V912.404H627.036V874.918H648.101V870.752H627.036V833.266H648.101V829.1H627.036V791.614H648.101V787.449H627.036V749.962H648.101V745.797H627.036V708.31H648.101V704.145H627.036V666.658H648.101V662.493H627.036V625.006H648.101V620.841H627.036V583.354H648.101V579.189H627.036V541.702H648.101V537.537H627.036V518.794ZM580.225 579.189H622.355V541.702H580.225V579.189ZM580.225 620.841H622.355V583.354H580.225V620.841ZM580.225 662.493H622.355V625.006H580.225V662.493ZM580.225 704.145H622.355V666.658H580.225V704.145ZM580.225 745.797H622.355V708.31H580.225V745.797ZM580.225 787.449H622.355V749.962H580.225V787.449ZM580.225 829.1H622.355V791.614H580.225V829.1ZM580.225 870.752H622.355V833.266H580.225V870.752ZM580.225 912.404H622.355V874.918H580.225V912.404ZM247.863 874.918H205.733V912.404H247.863V874.918ZM247.863 833.266H205.733V870.752H247.863V833.266ZM247.863 791.614H205.733V829.1H247.863V791.614ZM247.863 749.962H205.733V787.449H247.863V749.962ZM247.863 708.31H205.733V745.797H247.863V708.31ZM247.863 666.658H205.733V704.145H247.863V666.658ZM247.863 625.006H205.733V662.493H247.863V625.006ZM247.863 583.354H205.733V620.841H247.863V583.354ZM247.863 541.702H205.733V579.189H247.863V541.702ZM533.413 579.189H575.544V541.702H533.413V579.189ZM533.413 620.841H575.544V583.354H533.413V620.841ZM533.413 662.493H575.544V625.006H533.413V662.493ZM533.413 704.145H575.544V666.658H533.413V704.145ZM533.413 745.797H575.544V708.31H533.413V745.797ZM533.413 787.449H575.544V749.962H533.413V787.449ZM533.413 829.1H575.544V791.614H533.413V829.1ZM533.413 870.752H575.544V833.266H533.413V870.752ZM294.675 833.266H252.545V870.752H294.675V833.266ZM294.675 791.614H252.545V829.1H294.675V791.614ZM294.675 749.962H252.545V787.449H294.675V749.962ZM294.675 708.31H252.545V745.797H294.675V708.31ZM294.675 666.658H252.545V704.145H294.675V666.658ZM294.675 625.006H252.545V662.493H294.675V625.006ZM294.675 583.354H252.545V620.841H294.675V583.354ZM486.602 620.841H528.732V583.354H486.602V620.841ZM486.602 662.493H528.732V625.006H486.602V662.493ZM486.602 704.145H528.732V666.658H486.602V704.145ZM486.602 745.797H528.732V708.31H486.602V745.797ZM486.602 787.449H528.732V749.962H486.602V787.449ZM486.602 829.1H528.732V791.614H486.602V829.1ZM341.486 791.614H299.356V829.1H341.486V791.614ZM341.486 749.962H299.356V787.449H341.486V749.962ZM341.486 708.31H299.356V745.797H341.486V708.31ZM341.486 666.658H299.356V704.145H341.486V666.658ZM341.486 625.006H299.356V662.493H341.486V625.006ZM439.79 662.493H481.921V625.006H439.79V662.493ZM439.79 704.145H481.921V666.658H439.79V704.145ZM439.79 745.797H481.921V708.31H439.79V745.797ZM439.79 787.449H481.921V749.962H439.79V787.449ZM388.298 749.962H346.168V787.449H388.298V749.962ZM388.298 708.31H346.168V745.797H388.298V708.31ZM388.298 666.658H346.168V704.145H388.298V666.658ZM392.979 704.145H435.109V666.658H392.979V704.145ZM392.979 745.797H435.109V708.31H392.979V745.797ZM435.109 749.962H392.979V787.449H435.109V749.962ZM392.979 662.493H435.109V625.006H392.979V662.493ZM346.168 662.493H388.298V625.006H346.168V662.493ZM388.298 791.614H346.168V829.1H388.298V791.614ZM435.109 791.614H392.979V829.1H435.109V791.614ZM481.921 791.614H439.79V829.1H481.921V791.614ZM439.79 620.841H481.921V583.354H439.79V620.841ZM392.979 620.841H435.109V583.354H392.979V620.841ZM346.168 620.841H388.298V583.354H346.168V620.841ZM299.356 620.841H341.486V583.354H299.356V620.841ZM341.486 833.266H299.356V870.752H341.486V833.266ZM388.298 833.266H346.168V870.752H388.298V833.266ZM435.109 833.266H392.979V870.752H435.109V833.266ZM481.921 833.266H439.79V870.752H481.921V833.266ZM528.732 833.266H486.602V870.752H528.732V833.266ZM486.602 579.189H528.732V541.702H486.602V579.189ZM439.79 579.189H481.921V541.702H439.79V579.189ZM392.979 579.189H435.109V541.702H392.979V579.189ZM346.168 579.189H388.298V541.702H346.168V579.189ZM299.356 579.189H341.486V541.702H299.356V579.189ZM252.545 579.189H294.675V541.702H252.545V579.189ZM294.675 874.918H252.545V912.404H294.675V874.918ZM341.486 874.918H299.356V912.404H341.486V874.918ZM388.298 874.918H346.168V912.404H388.298V874.918ZM435.109 874.918H392.979V912.404H435.109V874.918ZM481.921 874.918H439.79V912.404H481.921V874.918ZM528.732 874.918H486.602V912.404H528.732V874.918ZM575.544 874.918H533.413V912.404H575.544V874.918Z" fill="url(#paint2_radial_6491_21065)"/>
<path opacity="0.5" fill-rule="evenodd" clip-rule="evenodd" d="M1155.96 147.305H1151.24V166.217H1108.77V147.305H1104.05V166.217H1061.58V147.305H1056.87V166.217H1014.4V147.305H1009.68V166.217H967.211V147.305H962.493V166.217H920.025V147.305H915.306V166.217H872.838V147.305H868.119V166.217H825.651V147.305H820.933V166.217H778.465V147.305H773.746V166.217H731.278V147.305H726.559V166.217H705.325V170.42H726.559V208.245H705.325V212.447H726.559V250.272H705.325V254.474H726.559V292.299H705.325V296.501H726.559V334.326H705.325V338.529H726.559V376.353H705.325V380.556H726.559V418.38H705.325V422.583H726.559V460.407H705.325V464.61H726.559V502.434H705.325V506.637H726.559V544.462H705.325V548.664H726.559V567.576H731.278V548.664H773.746V567.576H778.465V548.664H820.933V567.576H825.651V548.664H868.119V567.576H872.838V548.664H915.306V567.576H920.025V548.664H962.493V567.576H967.211V548.664H1009.68V567.576H1014.4V548.664H1056.87V567.576H1061.58V548.664H1104.05V567.576H1108.77V548.664H1151.24V567.576H1155.96V548.664H1177.19V544.462H1155.96V506.637H1177.19V502.434H1155.96V464.61H1177.19V460.407H1155.96V422.583H1177.19V418.38H1155.96V380.556H1177.19V376.353H1155.96V338.529H1177.19V334.326H1155.96V296.501H1177.19V292.299H1155.96V254.474H1177.19V250.272H1155.96V212.447H1177.19V208.245H1155.96V170.42H1177.19V166.217H1155.96V147.305ZM1108.77 208.245H1151.24V170.42H1108.77V208.245ZM1108.77 250.272H1151.24V212.447H1108.77V250.272ZM1108.77 292.299H1151.24V254.474H1108.77V292.299ZM1108.77 334.326H1151.24V296.501H1108.77V334.326ZM1108.77 376.353H1151.24V338.529H1108.77V376.353ZM1108.77 418.38H1151.24V380.556H1108.77V418.38ZM1108.77 460.407H1151.24V422.583H1108.77V460.407ZM1108.77 502.434H1151.24V464.61H1108.77V502.434ZM1108.77 544.462H1151.24V506.637H1108.77V544.462ZM773.746 506.637H731.278V544.462H773.746V506.637ZM773.746 464.61H731.278V502.434H773.746V464.61ZM773.746 422.583H731.278V460.407H773.746V422.583ZM773.746 380.556H731.278V418.38H773.746V380.556ZM773.746 338.529H731.278V376.353H773.746V338.529ZM773.746 296.501H731.278V334.326H773.746V296.501ZM773.746 254.474H731.278V292.299H773.746V254.474ZM773.746 212.447H731.278V250.272H773.746V212.447ZM773.746 170.42H731.278V208.245H773.746V170.42ZM1061.58 208.245H1104.05V170.42H1061.58V208.245ZM1061.58 250.272H1104.05V212.447H1061.58V250.272ZM1061.58 292.299H1104.05V254.474H1061.58V292.299ZM1061.58 334.326H1104.05V296.501H1061.58V334.326ZM1061.58 376.353H1104.05V338.529H1061.58V376.353ZM1061.58 418.38H1104.05V380.556H1061.58V418.38ZM1061.58 460.407H1104.05V422.583H1061.58V460.407ZM1061.58 502.434H1104.05V464.61H1061.58V502.434ZM820.933 464.61H778.465V502.434H820.933V464.61ZM820.933 422.583H778.465V460.407H820.933V422.583ZM820.933 380.556H778.465V418.38H820.933V380.556ZM820.933 338.529H778.465V376.353H820.933V338.529ZM820.933 296.501H778.465V334.326H820.933V296.501ZM820.933 254.474H778.465V292.299H820.933V254.474ZM820.933 212.447H778.465V250.272H820.933V212.447ZM1014.4 250.272H1056.87V212.447H1014.4V250.272ZM1014.4 292.299H1056.87V254.474H1014.4V292.299ZM1014.4 334.326H1056.87V296.501H1014.4V334.326ZM1014.4 376.353H1056.87V338.529H1014.4V376.353ZM1014.4 418.38H1056.87V380.556H1014.4V418.38ZM1014.4 460.407H1056.87V422.583H1014.4V460.407ZM868.119 422.583H825.651V460.407H868.119V422.583ZM868.119 380.556H825.651V418.38H868.119V380.556ZM868.119 338.529H825.651V376.353H868.119V338.529ZM868.119 296.501H825.651V334.326H868.119V296.501ZM868.119 254.474H825.651V292.299H868.119V254.474ZM967.211 292.299H1009.68V254.474H967.211V292.299ZM967.211 334.326H1009.68V296.501H967.211V334.326ZM967.211 376.353H1009.68V338.529H967.211V376.353ZM967.211 418.38H1009.68V380.556H967.211V418.38ZM915.306 380.556H872.838V418.38H915.306V380.556ZM915.306 338.529H872.838V376.353H915.306V338.529ZM915.306 296.501H872.838V334.326H915.306V296.501ZM920.025 334.326H962.493V296.501H920.025V334.326ZM920.025 376.353H962.493V338.529H920.025V376.353ZM962.493 380.556H920.025V418.38H962.493V380.556ZM920.025 292.299H962.493V254.474H920.025V292.299ZM872.838 292.299H915.306V254.474H872.838V292.299ZM915.306 422.583H872.838V460.407H915.306V422.583ZM962.493 422.583H920.025V460.407H962.493V422.583ZM1009.68 422.583H967.211V460.407H1009.68V422.583ZM967.211 250.272H1009.68V212.447H967.211V250.272ZM920.025 250.272H962.493V212.447H920.025V250.272ZM872.838 250.272H915.306V212.447H872.838V250.272ZM825.651 250.272H868.119V212.447H825.651V250.272ZM868.119 464.61H825.651V502.434H868.119V464.61ZM915.306 464.61H872.838V502.434H915.306V464.61ZM962.493 464.61H920.025V502.434H962.493V464.61ZM1009.68 464.61H967.211V502.434H1009.68V464.61ZM1056.87 464.61H1014.4V502.434H1056.87V464.61ZM1014.4 208.245H1056.87V170.42H1014.4V208.245ZM967.211 208.245H1009.68V170.42H967.211V208.245ZM920.025 208.245H962.493V170.42H920.025V208.245ZM872.838 208.245H915.306V170.42H872.838V208.245ZM825.651 208.245H868.119V170.42H825.651V208.245ZM778.465 208.245H820.933V170.42H778.465V208.245ZM820.933 506.637H778.465V544.462H820.933V506.637ZM868.119 506.637H825.651V544.462H868.119V506.637ZM915.306 506.637H872.838V544.462H915.306V506.637ZM962.493 506.637H920.025V544.462H962.493V506.637ZM1009.68 506.637H967.211V544.462H1009.68V506.637ZM1056.87 506.637H1014.4V544.462H1056.87V506.637ZM1104.05 506.637H1061.58V544.462H1104.05V506.637Z" fill="url(#paint3_radial_6491_21065)"/>
</g>
<path d="M309.016 707.315L318.362 708.5L309.016 709.685C290.553 712.026 276.142 727.544 273.978 747.036L273 755.842L272.022 747.036C269.858 727.544 255.447 712.026 236.984 709.685L227.638 708.5L236.984 707.315C255.447 704.974 269.858 689.456 272.022 669.964L273 661.158L273.978 669.964C276.142 689.456 290.553 704.974 309.016 707.315Z" stroke="#6444F4" stroke-width="4"/>
<path d="M549.226 800.735C549.335 799.755 550.665 799.755 550.774 800.735L551.686 808.955C552.865 819.569 560.693 827.938 570.623 829.197L578.312 830.173C579.229 830.289 579.229 831.711 578.312 831.827L570.623 832.803C560.693 834.062 552.865 842.431 551.686 853.045L550.774 861.265C550.665 862.245 549.335 862.245 549.226 861.265L548.314 853.045C547.135 842.431 539.307 834.062 529.377 832.803L521.687 831.827C520.771 831.711 520.771 830.289 521.687 830.173L529.377 829.197C539.307 827.938 547.135 819.569 548.314 808.955L549.226 800.735Z" fill="#6444F4"/>
<path d="M885.333 713.628C885.427 712.791 886.573 712.791 886.667 713.628L887.454 720.655C888.469 729.729 895.218 736.882 903.778 737.959L910.407 738.793C911.198 738.892 911.198 740.108 910.407 740.207L903.778 741.041C895.218 742.118 888.469 749.271 887.454 758.345L886.667 765.372C886.573 766.209 885.427 766.209 885.333 765.372L884.546 758.345C883.531 749.271 876.782 742.118 868.222 741.041L861.593 740.207C860.802 740.108 860.802 738.892 861.593 738.793L868.222 737.959C876.782 736.882 883.531 729.729 884.546 720.655L885.333 713.628Z" fill="#8A70FF"/>
<path d="M291.659 290.794C291.778 289.735 293.222 289.735 293.341 290.794L294.332 299.677C295.611 311.148 304.115 320.191 314.9 321.552L323.253 322.606C324.249 322.732 324.249 324.268 323.253 324.394L314.9 325.448C304.115 326.809 295.611 335.853 294.332 347.323L293.341 356.206C293.222 357.265 291.778 357.265 291.659 356.206L290.668 347.323C289.389 335.853 280.885 326.809 270.099 325.448L261.747 324.394C260.751 324.268 260.751 322.732 261.747 322.606L270.099 321.552C280.885 320.191 289.389 311.148 290.668 299.677L291.659 290.794Z" fill="#4E30D2"/>
<path d="M717.357 401.5C722.897 399.717 727.217 395.156 729 389.405C730.783 395.156 735.103 399.717 740.643 401.5C735.103 403.283 730.783 407.844 729 413.595C727.217 407.844 722.897 403.283 717.357 401.5Z" stroke="#3A20B0" stroke-width="4"/>
<path d="M1139.85 357.462C1139.92 356.846 1140.76 356.846 1140.83 357.462L1141.4 362.633C1142.15 369.31 1147.1 374.574 1153.37 375.366L1158.24 375.98C1158.82 376.053 1158.82 376.947 1158.24 377.02L1153.37 377.634C1147.1 378.426 1142.15 383.69 1141.4 390.367L1140.83 395.538C1140.76 396.154 1139.92 396.154 1139.85 395.538L1139.27 390.367C1138.52 383.69 1133.57 378.426 1127.3 377.634L1122.43 377.02C1121.86 376.947 1121.86 376.053 1122.43 375.98L1127.3 375.366C1133.57 374.574 1138.52 369.31 1139.27 362.633L1139.85 357.462Z" fill="#4E30D2"/>
<path d="M1178.79 731C1185.99 729.13 1191.59 723.256 1193.5 715.812C1195.41 723.256 1201.01 729.13 1208.21 731C1201.01 732.87 1195.41 738.744 1193.5 746.188C1191.59 738.744 1185.99 732.87 1178.79 731Z" stroke="#6444F4" stroke-width="4"/>
<g filter="url(#filter5_b_6491_21065)">
<path d="M294 469C294 457.954 302.954 449 314 449H1126C1137.05 449 1146 457.954 1146 469V705C1146 716.046 1137.05 725 1126 725H314C302.954 725 294 716.046 294 705V469Z" fill="url(#paint4_linear_6491_21065)" fill-opacity="0.25"/>
<path d="M352.372 548.4C349.439 548.4 346.919 547.813 344.812 546.64C342.732 545.44 341.132 543.76 340.012 541.6C338.892 539.413 338.332 536.84 338.332 533.88C338.332 531.667 338.652 529.68 339.292 527.92C339.932 526.133 340.852 524.613 342.052 523.36C343.252 522.08 344.719 521.107 346.452 520.44C348.212 519.747 350.185 519.4 352.372 519.4C353.839 519.4 355.279 519.587 356.692 519.96C358.105 520.333 359.345 520.867 360.412 521.56C360.972 521.907 361.345 522.333 361.532 522.84C361.719 523.32 361.759 523.8 361.652 524.28C361.545 524.733 361.319 525.12 360.972 525.44C360.652 525.76 360.239 525.947 359.732 526C359.252 526.027 358.719 525.853 358.132 525.48C357.305 524.947 356.412 524.56 355.452 524.32C354.492 524.08 353.519 523.96 352.532 523.96C350.639 523.96 349.039 524.347 347.732 525.12C346.425 525.893 345.439 527.013 344.772 528.48C344.105 529.947 343.772 531.747 343.772 533.88C343.772 535.987 344.105 537.787 344.772 539.28C345.439 540.773 346.425 541.907 347.732 542.68C349.039 543.453 350.639 543.84 352.532 543.84C353.545 543.84 354.545 543.72 355.532 543.48C356.519 543.213 357.452 542.813 358.332 542.28C358.919 541.933 359.439 541.787 359.892 541.84C360.372 541.867 360.772 542.027 361.092 542.32C361.412 542.613 361.625 542.987 361.732 543.44C361.839 543.867 361.812 544.32 361.652 544.8C361.492 545.253 361.172 545.653 360.692 546C359.625 546.773 358.345 547.373 356.852 547.8C355.385 548.2 353.892 548.4 352.372 548.4ZM368.519 548.32C367.693 548.32 367.053 548.107 366.599 547.68C366.173 547.227 365.959 546.587 365.959 545.76V530.64C365.959 529.813 366.173 529.187 366.599 528.76C367.026 528.333 367.626 528.12 368.399 528.12C369.173 528.12 369.773 528.333 370.199 528.76C370.626 529.187 370.839 529.813 370.839 530.64V533.16H370.439C370.813 531.56 371.546 530.347 372.639 529.52C373.733 528.693 375.186 528.2 376.999 528.04C377.559 527.987 377.999 528.133 378.319 528.48C378.666 528.8 378.866 529.307 378.919 530C378.973 530.667 378.813 531.213 378.439 531.64C378.093 532.04 377.559 532.28 376.839 532.36L375.959 532.44C374.333 532.6 373.106 533.107 372.279 533.96C371.453 534.787 371.039 535.96 371.039 537.48V545.76C371.039 546.587 370.826 547.227 370.399 547.68C369.973 548.107 369.346 548.32 368.519 548.32ZM390.951 548.4C388.738 548.4 386.831 547.987 385.231 547.16C383.631 546.333 382.391 545.16 381.511 543.64C380.658 542.12 380.231 540.32 380.231 538.24C380.231 536.213 380.644 534.44 381.471 532.92C382.324 531.4 383.484 530.213 384.951 529.36C386.444 528.48 388.138 528.04 390.031 528.04C391.418 528.04 392.658 528.267 393.751 528.72C394.871 529.173 395.818 529.827 396.591 530.68C397.391 531.533 397.991 532.573 398.391 533.8C398.818 535 399.031 536.36 399.031 537.88C399.031 538.36 398.858 538.733 398.511 539C398.191 539.24 397.724 539.36 397.111 539.36H384.271V536.48H395.511L394.871 537.08C394.871 535.853 394.684 534.827 394.311 534C393.964 533.173 393.444 532.547 392.751 532.12C392.084 531.667 391.244 531.44 390.231 531.44C389.111 531.44 388.151 531.707 387.351 532.24C386.578 532.747 385.978 533.48 385.551 534.44C385.151 535.373 384.951 536.493 384.951 537.8V538.08C384.951 540.267 385.458 541.907 386.471 543C387.511 544.067 389.031 544.6 391.031 544.6C391.724 544.6 392.498 544.52 393.351 544.36C394.231 544.173 395.058 543.867 395.831 543.44C396.391 543.12 396.884 542.987 397.311 543.04C397.738 543.067 398.071 543.213 398.311 543.48C398.578 543.747 398.738 544.08 398.791 544.48C398.844 544.853 398.764 545.24 398.551 545.64C398.364 546.04 398.031 546.387 397.551 546.68C396.618 547.267 395.538 547.707 394.311 548C393.111 548.267 391.991 548.4 390.951 548.4ZM409.431 548.4C408.017 548.4 406.751 548.133 405.631 547.6C404.537 547.04 403.671 546.293 403.031 545.36C402.417 544.427 402.111 543.373 402.111 542.2C402.111 540.76 402.484 539.627 403.231 538.8C403.977 537.947 405.191 537.333 406.871 536.96C408.551 536.587 410.804 536.4 413.631 536.4H415.631V539.28H413.671C412.017 539.28 410.697 539.36 409.711 539.52C408.724 539.68 408.017 539.96 407.591 540.36C407.191 540.733 406.991 541.267 406.991 541.96C406.991 542.84 407.297 543.56 407.911 544.12C408.524 544.68 409.377 544.96 410.471 544.96C411.351 544.96 412.124 544.76 412.791 544.36C413.484 543.933 414.031 543.36 414.431 542.64C414.831 541.92 415.031 541.093 415.031 540.16V535.56C415.031 534.227 414.737 533.267 414.151 532.68C413.564 532.093 412.577 531.8 411.191 531.8C410.417 531.8 409.577 531.893 408.671 532.08C407.791 532.267 406.857 532.587 405.871 533.04C405.364 533.28 404.911 533.347 404.511 533.24C404.137 533.133 403.844 532.92 403.631 532.6C403.417 532.253 403.311 531.88 403.311 531.48C403.311 531.08 403.417 530.693 403.631 530.32C403.844 529.92 404.204 529.627 404.711 529.44C405.937 528.933 407.111 528.573 408.231 528.36C409.377 528.147 410.417 528.04 411.351 528.04C413.271 528.04 414.844 528.333 416.071 528.92C417.324 529.507 418.257 530.4 418.871 531.6C419.484 532.773 419.791 534.293 419.791 536.16V545.76C419.791 546.587 419.591 547.227 419.191 547.68C418.791 548.107 418.217 548.32 417.471 548.32C416.724 548.32 416.137 548.107 415.711 547.68C415.311 547.227 415.111 546.587 415.111 545.76V543.84H415.431C415.244 544.773 414.871 545.587 414.311 546.28C413.777 546.947 413.097 547.467 412.271 547.84C411.444 548.213 410.497 548.4 409.431 548.4ZM433.826 548.4C432.092 548.4 430.639 548.107 429.466 547.52C428.319 546.933 427.466 546.08 426.906 544.96C426.346 543.813 426.066 542.4 426.066 540.72V532.2H423.986C423.346 532.2 422.852 532.04 422.506 531.72C422.159 531.373 421.986 530.907 421.986 530.32C421.986 529.707 422.159 529.24 422.506 528.92C422.852 528.6 423.346 528.44 423.986 528.44H426.066V524.8C426.066 523.973 426.279 523.347 426.706 522.92C427.159 522.493 427.786 522.28 428.586 522.28C429.386 522.28 429.999 522.493 430.426 522.92C430.852 523.347 431.066 523.973 431.066 524.8V528.44H435.306C435.946 528.44 436.439 528.6 436.786 528.92C437.132 529.24 437.306 529.707 437.306 530.32C437.306 530.907 437.132 531.373 436.786 531.72C436.439 532.04 435.946 532.2 435.306 532.2H431.066V540.44C431.066 541.72 431.346 542.68 431.906 543.32C432.466 543.96 433.372 544.28 434.626 544.28C435.079 544.28 435.479 544.24 435.826 544.16C436.172 544.08 436.479 544.027 436.746 544C437.066 543.973 437.332 544.08 437.546 544.32C437.759 544.533 437.866 544.987 437.866 545.68C437.866 546.213 437.772 546.693 437.586 547.12C437.426 547.52 437.119 547.8 436.666 547.96C436.319 548.067 435.866 548.16 435.306 548.24C434.746 548.347 434.252 548.4 433.826 548.4ZM449.662 548.4C447.449 548.4 445.542 547.987 443.942 547.16C442.342 546.333 441.102 545.16 440.222 543.64C439.369 542.12 438.942 540.32 438.942 538.24C438.942 536.213 439.355 534.44 440.182 532.92C441.035 531.4 442.195 530.213 443.662 529.36C445.155 528.48 446.849 528.04 448.742 528.04C450.129 528.04 451.369 528.267 452.462 528.72C453.582 529.173 454.529 529.827 455.302 530.68C456.102 531.533 456.702 532.573 457.102 533.8C457.529 535 457.742 536.36 457.742 537.88C457.742 538.36 457.569 538.733 457.222 539C456.902 539.24 456.435 539.36 455.822 539.36H442.982V536.48H454.222L453.582 537.08C453.582 535.853 453.395 534.827 453.022 534C452.675 533.173 452.155 532.547 451.462 532.12C450.795 531.667 449.955 531.44 448.942 531.44C447.822 531.44 446.862 531.707 446.062 532.24C445.289 532.747 444.689 533.48 444.262 534.44C443.862 535.373 443.662 536.493 443.662 537.8V538.08C443.662 540.267 444.169 541.907 445.182 543C446.222 544.067 447.742 544.6 449.742 544.6C450.435 544.6 451.209 544.52 452.062 544.36C452.942 544.173 453.769 543.867 454.542 543.44C455.102 543.12 455.595 542.987 456.022 543.04C456.449 543.067 456.782 543.213 457.022 543.48C457.289 543.747 457.449 544.08 457.502 544.48C457.555 544.853 457.475 545.24 457.262 545.64C457.075 546.04 456.742 546.387 456.262 546.68C455.329 547.267 454.249 547.707 453.022 548C451.822 548.267 450.702 548.4 449.662 548.4ZM477.521 555.52C476.934 555.52 476.454 555.36 476.081 555.04C475.708 554.747 475.481 554.347 475.401 553.84C475.348 553.333 475.441 552.8 475.681 552.24L478.401 546.2V548.28L471.121 531.44C470.881 530.853 470.801 530.307 470.881 529.8C470.961 529.293 471.201 528.893 471.601 528.6C472.028 528.28 472.601 528.12 473.321 528.12C473.934 528.12 474.428 528.267 474.801 528.56C475.174 528.827 475.508 529.347 475.801 530.12L481.201 543.6H480.001L485.521 530.08C485.814 529.333 486.161 528.827 486.561 528.56C486.961 528.267 487.494 528.12 488.161 528.12C488.748 528.12 489.214 528.28 489.561 528.6C489.908 528.893 490.121 529.293 490.201 529.8C490.281 530.28 490.188 530.813 489.921 531.4L480.201 553.6C479.854 554.347 479.481 554.853 479.081 555.12C478.681 555.387 478.161 555.52 477.521 555.52ZM502.145 548.4C500.118 548.4 498.358 547.987 496.865 547.16C495.372 546.333 494.212 545.16 493.385 543.64C492.558 542.093 492.145 540.28 492.145 538.2C492.145 536.627 492.372 535.227 492.825 534C493.305 532.747 493.985 531.68 494.865 530.8C495.745 529.893 496.798 529.213 498.025 528.76C499.252 528.28 500.625 528.04 502.145 528.04C504.172 528.04 505.932 528.453 507.425 529.28C508.918 530.107 510.078 531.28 510.905 532.8C511.732 534.32 512.145 536.12 512.145 538.2C512.145 539.773 511.905 541.187 511.425 542.44C510.972 543.693 510.305 544.773 509.425 545.68C508.545 546.56 507.492 547.24 506.265 547.72C505.038 548.173 503.665 548.4 502.145 548.4ZM502.145 544.6C503.132 544.6 503.998 544.36 504.745 543.88C505.492 543.4 506.065 542.693 506.465 541.76C506.892 540.8 507.105 539.613 507.105 538.2C507.105 536.067 506.652 534.48 505.745 533.44C504.838 532.373 503.638 531.84 502.145 531.84C501.158 531.84 500.292 532.08 499.545 532.56C498.798 533.013 498.212 533.72 497.785 534.68C497.385 535.613 497.185 536.787 497.185 538.2C497.185 540.307 497.638 541.907 498.545 543C499.452 544.067 500.652 544.6 502.145 544.6ZM523.352 548.4C521.725 548.4 520.379 548.107 519.312 547.52C518.245 546.907 517.445 546 516.912 544.8C516.405 543.6 516.152 542.107 516.152 540.32V530.64C516.152 529.787 516.365 529.16 516.792 528.76C517.219 528.333 517.832 528.12 518.632 528.12C519.432 528.12 520.045 528.333 520.472 528.76C520.925 529.16 521.152 529.787 521.152 530.64V540.4C521.152 541.787 521.432 542.813 521.992 543.48C522.552 544.147 523.445 544.48 524.672 544.48C526.005 544.48 527.099 544.027 527.952 543.12C528.805 542.187 529.232 540.96 529.232 539.44V530.64C529.232 529.787 529.445 529.16 529.872 528.76C530.299 528.333 530.912 528.12 531.712 528.12C532.512 528.12 533.125 528.333 533.552 528.76C534.005 529.16 534.232 529.787 534.232 530.64V545.76C534.232 547.467 533.419 548.32 531.792 548.32C531.019 548.32 530.419 548.107 529.992 547.68C529.565 547.227 529.352 546.587 529.352 545.76V542.72L529.912 543.92C529.352 545.36 528.499 546.467 527.352 547.24C526.232 548.013 524.899 548.4 523.352 548.4ZM541.996 548.32C541.169 548.32 540.529 548.107 540.076 547.68C539.649 547.227 539.436 546.587 539.436 545.76V530.64C539.436 529.813 539.649 529.187 540.076 528.76C540.503 528.333 541.103 528.12 541.876 528.12C542.649 528.12 543.249 528.333 543.676 528.76C544.103 529.187 544.316 529.813 544.316 530.64V533.16H543.916C544.289 531.56 545.023 530.347 546.116 529.52C547.209 528.693 548.663 528.2 550.476 528.04C551.036 527.987 551.476 528.133 551.796 528.48C552.143 528.8 552.343 529.307 552.396 530C552.449 530.667 552.289 531.213 551.916 531.64C551.569 532.04 551.036 532.28 550.316 532.36L549.436 532.44C547.809 532.6 546.583 533.107 545.756 533.96C544.929 534.787 544.516 535.96 544.516 537.48V545.76C544.516 546.587 544.303 547.227 543.876 547.68C543.449 548.107 542.823 548.32 541.996 548.32ZM727.747 555.52C726.947 555.52 726.334 555.307 725.907 554.88C725.481 554.453 725.267 553.827 725.267 553V544H725.707C725.281 545.307 724.454 546.373 723.227 547.2C722.027 548 720.614 548.4 718.987 548.4C717.281 548.4 715.774 547.987 714.467 547.16C713.187 546.333 712.187 545.16 711.467 543.64C710.747 542.093 710.387 540.28 710.387 538.2C710.387 536.093 710.747 534.293 711.467 532.8C712.187 531.28 713.187 530.107 714.467 529.28C715.774 528.453 717.281 528.04 718.987 528.04C720.641 528.04 722.081 528.453 723.307 529.28C724.534 530.107 725.347 531.2 725.747 532.56L725.307 533.76V530.64C725.307 529.813 725.521 529.187 725.947 528.76C726.374 528.333 726.987 528.12 727.787 528.12C728.587 528.12 729.201 528.333 729.627 528.76C730.054 529.187 730.267 529.813 730.267 530.64V553C730.267 553.827 730.041 554.453 729.587 554.88C729.161 555.307 728.547 555.52 727.747 555.52ZM720.387 544.6C721.374 544.6 722.241 544.36 722.987 543.88C723.734 543.4 724.307 542.693 724.707 541.76C725.134 540.8 725.347 539.613 725.347 538.2C725.347 536.067 724.894 534.48 723.987 533.44C723.081 532.373 721.881 531.84 720.387 531.84C719.401 531.84 718.534 532.08 717.787 532.56C717.041 533.013 716.454 533.72 716.027 534.68C715.627 535.613 715.427 536.787 715.427 538.2C715.427 540.307 715.881 541.907 716.787 543C717.694 544.067 718.894 544.6 720.387 544.6ZM742.532 548.4C740.905 548.4 739.558 548.107 738.492 547.52C737.425 546.907 736.625 546 736.092 544.8C735.585 543.6 735.332 542.107 735.332 540.32V530.64C735.332 529.787 735.545 529.16 735.972 528.76C736.398 528.333 737.012 528.12 737.812 528.12C738.612 528.12 739.225 528.333 739.652 528.76C740.105 529.16 740.332 529.787 740.332 530.64V540.4C740.332 541.787 740.612 542.813 741.172 543.48C741.732 544.147 742.625 544.48 743.852 544.48C745.185 544.48 746.278 544.027 747.132 543.12C747.985 542.187 748.412 540.96 748.412 539.44V530.64C748.412 529.787 748.625 529.16 749.052 528.76C749.478 528.333 750.092 528.12 750.892 528.12C751.692 528.12 752.305 528.333 752.732 528.76C753.185 529.16 753.412 529.787 753.412 530.64V545.76C753.412 547.467 752.598 548.32 750.972 548.32C750.198 548.32 749.598 548.107 749.172 547.68C748.745 547.227 748.532 546.587 748.532 545.76V542.72L749.092 543.92C748.532 545.36 747.678 546.467 746.532 547.24C745.412 548.013 744.078 548.4 742.532 548.4ZM761.096 548.28C760.296 548.28 759.682 548.04 759.256 547.56C758.829 547.08 758.616 546.413 758.616 545.56V530.88C758.616 530 758.829 529.333 759.256 528.88C759.682 528.4 760.296 528.16 761.096 528.16C761.896 528.16 762.509 528.4 762.936 528.88C763.389 529.333 763.616 530 763.616 530.88V545.56C763.616 546.413 763.402 547.08 762.976 547.56C762.549 548.04 761.922 548.28 761.096 548.28ZM761.096 524.44C760.162 524.44 759.429 524.213 758.896 523.76C758.389 523.28 758.136 522.627 758.136 521.8C758.136 520.947 758.389 520.293 758.896 519.84C759.429 519.387 760.162 519.16 761.096 519.16C762.056 519.16 762.789 519.387 763.296 519.84C763.802 520.293 764.056 520.947 764.056 521.8C764.056 522.627 763.802 523.28 763.296 523.76C762.789 524.213 762.056 524.44 761.096 524.44ZM770.011 548C769.504 548 769.078 547.88 768.731 547.64C768.411 547.373 768.198 547.04 768.091 546.64C767.984 546.24 767.984 545.813 768.091 545.36C768.224 544.88 768.478 544.427 768.851 544L779.211 531V532.2H769.771C769.158 532.2 768.678 532.04 768.331 531.72C768.011 531.373 767.851 530.907 767.851 530.32C767.851 529.707 768.011 529.24 768.331 528.92C768.678 528.6 769.158 528.44 769.771 528.44H781.611C782.198 528.44 782.678 528.573 783.051 528.84C783.424 529.08 783.664 529.4 783.771 529.8C783.904 530.2 783.918 530.627 783.811 531.08C783.704 531.533 783.464 531.96 783.091 532.36L772.531 545.56V544.24H782.531C783.811 544.24 784.451 544.867 784.451 546.12C784.451 546.707 784.278 547.173 783.931 547.52C783.611 547.84 783.144 548 782.531 548H770.011ZM801.096 548.28C800.296 548.28 799.682 548.04 799.256 547.56C798.829 547.08 798.616 546.413 798.616 545.56V530.88C798.616 530 798.829 529.333 799.256 528.88C799.682 528.4 800.296 528.16 801.096 528.16C801.896 528.16 802.509 528.4 802.936 528.88C803.389 529.333 803.616 530 803.616 530.88V545.56C803.616 546.413 803.402 547.08 802.976 547.56C802.549 548.04 801.922 548.28 801.096 548.28ZM801.096 524.44C800.162 524.44 799.429 524.213 798.896 523.76C798.389 523.28 798.136 522.627 798.136 521.8C798.136 520.947 798.389 520.293 798.896 519.84C799.429 519.387 800.162 519.16 801.096 519.16C802.056 519.16 802.789 519.387 803.296 519.84C803.802 520.293 804.056 520.947 804.056 521.8C804.056 522.627 803.802 523.28 803.296 523.76C802.789 524.213 802.056 524.44 801.096 524.44ZM811.291 548.32C810.491 548.32 809.878 548.107 809.451 547.68C809.024 547.227 808.811 546.587 808.811 545.76V530.64C808.811 529.813 809.024 529.187 809.451 528.76C809.878 528.333 810.478 528.12 811.251 528.12C812.024 528.12 812.624 528.333 813.051 528.76C813.478 529.187 813.691 529.813 813.691 530.64V533.36L813.251 532.36C813.838 530.947 814.744 529.88 815.971 529.16C817.224 528.413 818.638 528.04 820.211 528.04C821.784 528.04 823.078 528.333 824.091 528.92C825.104 529.507 825.864 530.4 826.371 531.6C826.878 532.773 827.131 534.267 827.131 536.08V545.76C827.131 546.587 826.918 547.227 826.491 547.68C826.064 548.107 825.451 548.32 824.651 548.32C823.851 548.32 823.224 548.107 822.771 547.68C822.344 547.227 822.131 546.587 822.131 545.76V536.32C822.131 534.8 821.838 533.693 821.251 533C820.691 532.307 819.811 531.96 818.611 531.96C817.144 531.96 815.971 532.427 815.091 533.36C814.238 534.267 813.811 535.48 813.811 537V545.76C813.811 547.467 812.971 548.32 811.291 548.32ZM840.669 555.56C840.082 555.613 839.602 555.52 839.229 555.28C838.855 555.067 838.602 554.787 838.469 554.44C838.309 554.093 838.255 553.733 838.309 553.36C838.362 552.987 838.522 552.653 838.789 552.36C839.029 552.093 839.362 551.947 839.789 551.92C840.989 551.813 841.855 551.467 842.389 550.88C842.949 550.32 843.229 549.453 843.229 548.28V530.64C843.229 529.813 843.442 529.187 843.869 528.76C844.322 528.333 844.949 528.12 845.749 528.12C846.549 528.12 847.162 528.333 847.589 528.76C848.015 529.187 848.229 529.813 848.229 530.64V547.84C848.229 549.547 847.949 550.947 847.389 552.04C846.855 553.133 846.029 553.96 844.909 554.52C843.815 555.08 842.402 555.427 840.669 555.56ZM845.709 524.44C844.775 524.44 844.042 524.213 843.509 523.76C843.002 523.28 842.749 522.627 842.749 521.8C842.749 520.947 843.002 520.293 843.509 519.84C844.042 519.387 844.775 519.16 845.709 519.16C846.669 519.16 847.402 519.387 847.909 519.84C848.415 520.293 848.669 520.947 848.669 521.8C848.669 522.627 848.415 523.28 847.909 523.76C847.402 524.213 846.669 524.44 845.709 524.44ZM860.5 548.4C858.874 548.4 857.527 548.107 856.46 547.52C855.394 546.907 854.594 546 854.06 544.8C853.554 543.6 853.3 542.107 853.3 540.32V530.64C853.3 529.787 853.514 529.16 853.94 528.76C854.367 528.333 854.98 528.12 855.78 528.12C856.58 528.12 857.194 528.333 857.62 528.76C858.074 529.16 858.3 529.787 858.3 530.64V540.4C858.3 541.787 858.58 542.813 859.14 543.48C859.7 544.147 860.594 544.48 861.82 544.48C863.154 544.48 864.247 544.027 865.1 543.12C865.954 542.187 866.38 540.96 866.38 539.44V530.64C866.38 529.787 866.594 529.16 867.02 528.76C867.447 528.333 868.06 528.12 868.86 528.12C869.66 528.12 870.274 528.333 870.7 528.76C871.154 529.16 871.38 529.787 871.38 530.64V545.76C871.38 547.467 870.567 548.32 868.94 548.32C868.167 548.32 867.567 548.107 867.14 547.68C866.714 547.227 866.5 546.587 866.5 545.76V542.72L867.06 543.92C866.5 545.36 865.647 546.467 864.5 547.24C863.38 548.013 862.047 548.4 860.5 548.4ZM883.744 548.4C882.598 548.4 881.384 548.28 880.104 548.04C878.824 547.8 877.678 547.387 876.664 546.8C876.238 546.533 875.931 546.227 875.744 545.88C875.584 545.507 875.518 545.147 875.544 544.8C875.598 544.427 875.731 544.107 875.944 543.84C876.184 543.573 876.478 543.4 876.824 543.32C877.198 543.24 877.598 543.307 878.024 543.52C879.091 544.027 880.091 544.387 881.024 544.6C881.958 544.787 882.878 544.88 883.784 544.88C885.064 544.88 886.011 544.667 886.624 544.24C887.264 543.787 887.584 543.2 887.584 542.48C887.584 541.867 887.371 541.4 886.944 541.08C886.544 540.733 885.931 540.48 885.104 540.32L881.104 539.56C879.451 539.24 878.184 538.64 877.304 537.76C876.451 536.853 876.024 535.693 876.024 534.28C876.024 533 876.371 531.893 877.064 530.96C877.784 530.027 878.771 529.307 880.024 528.8C881.278 528.293 882.718 528.04 884.344 528.04C885.518 528.04 886.611 528.173 887.624 528.44C888.664 528.68 889.664 529.067 890.624 529.6C891.024 529.813 891.291 530.093 891.424 530.44C891.584 530.787 891.624 531.147 891.544 531.52C891.464 531.867 891.304 532.187 891.064 532.48C890.824 532.747 890.518 532.92 890.144 533C889.798 533.053 889.398 532.973 888.944 532.76C888.118 532.333 887.318 532.027 886.544 531.84C885.798 531.653 885.078 531.56 884.384 531.56C883.078 531.56 882.104 531.787 881.464 532.24C880.851 532.693 880.544 533.293 880.544 534.04C880.544 534.6 880.731 535.067 881.104 535.44C881.478 535.813 882.051 536.067 882.824 536.2L886.824 536.96C888.558 537.28 889.864 537.867 890.744 538.72C891.651 539.573 892.104 540.72 892.104 542.16C892.104 544.107 891.344 545.64 889.824 546.76C888.304 547.853 886.278 548.4 883.744 548.4ZM904.88 548.4C903.147 548.4 901.694 548.107 900.52 547.52C899.374 546.933 898.52 546.08 897.96 544.96C897.4 543.813 897.12 542.4 897.12 540.72V532.2H895.04C894.4 532.2 893.907 532.04 893.56 531.72C893.214 531.373 893.04 530.907 893.04 530.32C893.04 529.707 893.214 529.24 893.56 528.92C893.907 528.6 894.4 528.44 895.04 528.44H897.12V524.8C897.12 523.973 897.334 523.347 897.76 522.92C898.214 522.493 898.84 522.28 899.64 522.28C900.44 522.28 901.054 522.493 901.48 522.92C901.907 523.347 902.12 523.973 902.12 524.8V528.44H906.36C907 528.44 907.494 528.6 907.84 528.92C908.187 529.24 908.36 529.707 908.36 530.32C908.36 530.907 908.187 531.373 907.84 531.72C907.494 532.04 907 532.2 906.36 532.2H902.12V540.44C902.12 541.72 902.4 542.68 902.96 543.32C903.52 543.96 904.427 544.28 905.68 544.28C906.134 544.28 906.534 544.24 906.88 544.16C907.227 544.08 907.534 544.027 907.8 544C908.12 543.973 908.387 544.08 908.6 544.32C908.814 544.533 908.92 544.987 908.92 545.68C908.92 546.213 908.827 546.693 908.64 547.12C908.48 547.52 908.174 547.8 907.72 547.96C907.374 548.067 906.92 548.16 906.36 548.24C905.8 548.347 905.307 548.4 904.88 548.4ZM1098.91 539.88C1098.4 539.88 1098 539.72 1097.71 539.4C1097.44 539.08 1097.28 538.627 1097.23 538.04L1096.03 522.76C1095.95 521.773 1096.16 520.987 1096.67 520.4C1097.17 519.787 1097.92 519.48 1098.91 519.48C1099.87 519.48 1100.59 519.787 1101.07 520.4C1101.57 520.987 1101.79 521.773 1101.71 522.76L1100.51 538.04C1100.48 538.627 1100.32 539.08 1100.03 539.4C1099.76 539.72 1099.39 539.88 1098.91 539.88ZM1098.91 548.2C1098 548.2 1097.27 547.92 1096.71 547.36C1096.17 546.8 1095.91 546.08 1095.91 545.2C1095.91 544.347 1096.17 543.653 1096.71 543.12C1097.27 542.56 1098 542.28 1098.91 542.28C1099.84 542.28 1100.56 542.56 1101.07 543.12C1101.6 543.653 1101.87 544.347 1101.87 545.2C1101.87 546.08 1101.6 546.8 1101.07 547.36C1100.56 547.92 1099.84 548.2 1098.91 548.2Z" fill="#15343A"/>
<path d="M574.999 548.4C572.946 548.4 571.159 547.987 569.639 547.16C568.119 546.307 566.946 545.107 566.119 543.56C565.293 542.013 564.879 540.2 564.879 538.12C564.879 536.547 565.106 535.147 565.559 533.92C566.039 532.667 566.719 531.613 567.599 530.76C568.479 529.88 569.546 529.213 570.799 528.76C572.053 528.28 573.453 528.04 574.999 528.04C575.879 528.04 576.826 528.16 577.839 528.4C578.879 528.64 579.853 529.04 580.759 529.6C581.186 529.867 581.466 530.187 581.599 530.56C581.733 530.933 581.759 531.32 581.679 531.72C581.599 532.093 581.426 532.427 581.159 532.72C580.919 532.987 580.613 533.16 580.239 533.24C579.866 533.293 579.453 533.2 578.999 532.96C578.413 532.613 577.813 532.36 577.199 532.2C576.586 532.013 575.999 531.92 575.439 531.92C574.559 531.92 573.786 532.067 573.119 532.36C572.453 532.627 571.879 533.027 571.399 533.56C570.946 534.067 570.599 534.707 570.359 535.48C570.119 536.253 569.999 537.147 569.999 538.16C569.999 540.133 570.466 541.693 571.399 542.84C572.359 543.96 573.706 544.52 575.439 544.52C575.999 544.52 576.573 544.44 577.159 544.28C577.773 544.12 578.386 543.867 578.999 543.52C579.453 543.28 579.853 543.2 580.199 543.28C580.573 543.36 580.879 543.547 581.119 543.84C581.359 544.107 581.506 544.44 581.559 544.84C581.613 545.213 581.559 545.587 581.399 545.96C581.266 546.333 580.999 546.64 580.599 546.88C579.719 547.413 578.786 547.8 577.799 548.04C576.813 548.28 575.879 548.4 574.999 548.4ZM591.907 548.4C590.28 548.4 588.933 548.107 587.867 547.52C586.8 546.907 586 546 585.467 544.8C584.96 543.6 584.707 542.107 584.707 540.32V530.64C584.707 529.787 584.92 529.16 585.347 528.76C585.773 528.333 586.387 528.12 587.187 528.12C587.987 528.12 588.6 528.333 589.027 528.76C589.48 529.16 589.707 529.787 589.707 530.64V540.4C589.707 541.787 589.987 542.813 590.547 543.48C591.107 544.147 592 544.48 593.227 544.48C594.56 544.48 595.653 544.027 596.507 543.12C597.36 542.187 597.787 540.96 597.787 539.44V530.64C597.787 529.787 598 529.16 598.427 528.76C598.853 528.333 599.467 528.12 600.267 528.12C601.067 528.12 601.68 528.333 602.107 528.76C602.56 529.16 602.787 529.787 602.787 530.64V545.76C602.787 547.467 601.973 548.32 600.347 548.32C599.573 548.32 598.973 548.107 598.547 547.68C598.12 547.227 597.907 546.587 597.907 545.76V542.72L598.467 543.92C597.907 545.36 597.053 546.467 595.907 547.24C594.787 548.013 593.453 548.4 591.907 548.4ZM615.151 548.4C614.004 548.4 612.791 548.28 611.511 548.04C610.231 547.8 609.084 547.387 608.071 546.8C607.644 546.533 607.337 546.227 607.151 545.88C606.991 545.507 606.924 545.147 606.951 544.8C607.004 544.427 607.137 544.107 607.351 543.84C607.591 543.573 607.884 543.4 608.231 543.32C608.604 543.24 609.004 543.307 609.431 543.52C610.497 544.027 611.497 544.387 612.431 544.6C613.364 544.787 614.284 544.88 615.191 544.88C616.471 544.88 617.417 544.667 618.031 544.24C618.671 543.787 618.991 543.2 618.991 542.48C618.991 541.867 618.777 541.4 618.351 541.08C617.951 540.733 617.337 540.48 616.511 540.32L612.511 539.56C610.857 539.24 609.591 538.64 608.711 537.76C607.857 536.853 607.431 535.693 607.431 534.28C607.431 533 607.777 531.893 608.471 530.96C609.191 530.027 610.177 529.307 611.431 528.8C612.684 528.293 614.124 528.04 615.751 528.04C616.924 528.04 618.017 528.173 619.031 528.44C620.071 528.68 621.071 529.067 622.031 529.6C622.431 529.813 622.697 530.093 622.831 530.44C622.991 530.787 623.031 531.147 622.951 531.52C622.871 531.867 622.711 532.187 622.471 532.48C622.231 532.747 621.924 532.92 621.551 533C621.204 533.053 620.804 532.973 620.351 532.76C619.524 532.333 618.724 532.027 617.951 531.84C617.204 531.653 616.484 531.56 615.791 531.56C614.484 531.56 613.511 531.787 612.871 532.24C612.257 532.693 611.951 533.293 611.951 534.04C611.951 534.6 612.137 535.067 612.511 535.44C612.884 535.813 613.457 536.067 614.231 536.2L618.231 536.96C619.964 537.28 621.271 537.867 622.151 538.72C623.057 539.573 623.511 540.72 623.511 542.16C623.511 544.107 622.751 545.64 621.231 546.76C619.711 547.853 617.684 548.4 615.151 548.4ZM636.287 548.4C634.553 548.4 633.1 548.107 631.927 547.52C630.78 546.933 629.927 546.08 629.367 544.96C628.807 543.813 628.527 542.4 628.527 540.72V532.2H626.447C625.807 532.2 625.313 532.04 624.967 531.72C624.62 531.373 624.447 530.907 624.447 530.32C624.447 529.707 624.62 529.24 624.967 528.92C625.313 528.6 625.807 528.44 626.447 528.44H628.527V524.8C628.527 523.973 628.74 523.347 629.167 522.92C629.62 522.493 630.247 522.28 631.047 522.28C631.847 522.28 632.46 522.493 632.887 522.92C633.313 523.347 633.527 523.973 633.527 524.8V528.44H637.767C638.407 528.44 638.9 528.6 639.247 528.92C639.593 529.24 639.767 529.707 639.767 530.32C639.767 530.907 639.593 531.373 639.247 531.72C638.9 532.04 638.407 532.2 637.767 532.2H633.527V540.44C633.527 541.72 633.807 542.68 634.367 543.32C634.927 543.96 635.833 544.28 637.087 544.28C637.54 544.28 637.94 544.24 638.287 544.16C638.633 544.08 638.94 544.027 639.207 544C639.527 543.973 639.793 544.08 640.007 544.32C640.22 544.533 640.327 544.987 640.327 545.68C640.327 546.213 640.233 546.693 640.047 547.12C639.887 547.52 639.58 547.8 639.127 547.96C638.78 548.067 638.327 548.16 637.767 548.24C637.207 548.347 636.713 548.4 636.287 548.4ZM651.403 548.4C649.376 548.4 647.616 547.987 646.123 547.16C644.629 546.333 643.469 545.16 642.643 543.64C641.816 542.093 641.403 540.28 641.403 538.2C641.403 536.627 641.629 535.227 642.083 534C642.563 532.747 643.243 531.68 644.123 530.8C645.003 529.893 646.056 529.213 647.283 528.76C648.509 528.28 649.883 528.04 651.403 528.04C653.429 528.04 655.189 528.453 656.683 529.28C658.176 530.107 659.336 531.28 660.163 532.8C660.989 534.32 661.403 536.12 661.403 538.2C661.403 539.773 661.163 541.187 660.683 542.44C660.229 543.693 659.563 544.773 658.683 545.68C657.803 546.56 656.749 547.24 655.523 547.72C654.296 548.173 652.923 548.4 651.403 548.4ZM651.403 544.6C652.389 544.6 653.256 544.36 654.003 543.88C654.749 543.4 655.323 542.693 655.723 541.76C656.149 540.8 656.363 539.613 656.363 538.2C656.363 536.067 655.909 534.48 655.003 533.44C654.096 532.373 652.896 531.84 651.403 531.84C650.416 531.84 649.549 532.08 648.803 532.56C648.056 533.013 647.469 533.72 647.043 534.68C646.643 535.613 646.443 536.787 646.443 538.2C646.443 540.307 646.896 541.907 647.803 543C648.709 544.067 649.909 544.6 651.403 544.6ZM668.09 548.32C667.29 548.32 666.676 548.107 666.25 547.68C665.823 547.227 665.61 546.587 665.61 545.76V530.64C665.61 529.813 665.823 529.187 666.25 528.76C666.676 528.333 667.276 528.12 668.05 528.12C668.823 528.12 669.423 528.333 669.85 528.76C670.276 529.187 670.49 529.813 670.49 530.64V533.56L670.05 532.36C670.583 531.027 671.41 529.973 672.53 529.2C673.65 528.427 674.983 528.04 676.53 528.04C678.103 528.04 679.396 528.413 680.41 529.16C681.423 529.907 682.13 531.053 682.53 532.6H681.97C682.503 531.187 683.383 530.08 684.61 529.28C685.836 528.453 687.25 528.04 688.85 528.04C690.343 528.04 691.57 528.333 692.53 528.92C693.516 529.507 694.25 530.4 694.73 531.6C695.21 532.773 695.45 534.267 695.45 536.08V545.76C695.45 546.587 695.223 547.227 694.77 547.68C694.343 548.107 693.73 548.32 692.93 548.32C692.13 548.32 691.516 548.107 691.09 547.68C690.663 547.227 690.45 546.587 690.45 545.76V536.28C690.45 534.787 690.196 533.693 689.69 533C689.21 532.307 688.383 531.96 687.21 531.96C685.903 531.96 684.876 532.427 684.13 533.36C683.383 534.267 683.01 535.533 683.01 537.16V545.76C683.01 546.587 682.796 547.227 682.37 547.68C681.943 548.107 681.33 548.32 680.53 548.32C679.73 548.32 679.103 548.107 678.65 547.68C678.223 547.227 678.01 546.587 678.01 545.76V536.28C678.01 534.787 677.756 533.693 677.25 533C676.77 532.307 675.956 531.96 674.81 531.96C673.503 531.96 672.476 532.427 671.73 533.36C670.983 534.267 670.61 535.533 670.61 537.16V545.76C670.61 547.467 669.77 548.32 668.09 548.32ZM925.771 548C925.078 548 924.531 547.813 924.131 547.44C923.758 547.04 923.571 546.507 923.571 545.84C923.571 545.147 923.758 544.627 924.131 544.28C924.531 543.933 925.078 543.76 925.771 543.76H930.251V524.12H932.731L926.851 527.68C926.345 527.973 925.865 528.093 925.411 528.04C924.985 527.96 924.611 527.773 924.291 527.48C923.998 527.16 923.798 526.787 923.691 526.36C923.585 525.933 923.611 525.507 923.771 525.08C923.958 524.627 924.305 524.253 924.811 523.96L930.331 520.64C930.865 520.32 931.398 520.053 931.931 519.84C932.465 519.6 932.958 519.48 933.411 519.48C933.971 519.48 934.438 519.64 934.811 519.96C935.185 520.253 935.371 520.747 935.371 521.44V543.76H939.451C940.145 543.76 940.678 543.933 941.051 544.28C941.451 544.627 941.651 545.147 941.651 545.84C941.651 546.533 941.451 547.067 941.051 547.44C940.678 547.813 940.145 548 939.451 548H925.771ZM959.535 548.32C958.735 548.32 958.122 548.107 957.695 547.68C957.268 547.227 957.055 546.587 957.055 545.76V530.64C957.055 529.813 957.268 529.187 957.695 528.76C958.122 528.333 958.722 528.12 959.495 528.12C960.268 528.12 960.868 528.333 961.295 528.76C961.722 529.187 961.935 529.813 961.935 530.64V533.56L961.495 532.36C962.028 531.027 962.855 529.973 963.975 529.2C965.095 528.427 966.428 528.04 967.975 528.04C969.548 528.04 970.842 528.413 971.855 529.16C972.868 529.907 973.575 531.053 973.975 532.6H973.415C973.948 531.187 974.828 530.08 976.055 529.28C977.282 528.453 978.695 528.04 980.295 528.04C981.788 528.04 983.015 528.333 983.975 528.92C984.962 529.507 985.695 530.4 986.175 531.6C986.655 532.773 986.895 534.267 986.895 536.08V545.76C986.895 546.587 986.668 547.227 986.215 547.68C985.788 548.107 985.175 548.32 984.375 548.32C983.575 548.32 982.962 548.107 982.535 547.68C982.108 547.227 981.895 546.587 981.895 545.76V536.28C981.895 534.787 981.642 533.693 981.135 533C980.655 532.307 979.828 531.96 978.655 531.96C977.348 531.96 976.322 532.427 975.575 533.36C974.828 534.267 974.455 535.533 974.455 537.16V545.76C974.455 546.587 974.242 547.227 973.815 547.68C973.388 548.107 972.775 548.32 971.975 548.32C971.175 548.32 970.548 548.107 970.095 547.68C969.668 547.227 969.455 546.587 969.455 545.76V536.28C969.455 534.787 969.202 533.693 968.695 533C968.215 532.307 967.402 531.96 966.255 531.96C964.948 531.96 963.922 532.427 963.175 533.36C962.428 534.267 962.055 535.533 962.055 537.16V545.76C962.055 547.467 961.215 548.32 959.535 548.32ZM994.533 548.28C993.733 548.28 993.12 548.04 992.693 547.56C992.266 547.08 992.053 546.413 992.053 545.56V530.88C992.053 530 992.266 529.333 992.693 528.88C993.12 528.4 993.733 528.16 994.533 528.16C995.333 528.16 995.946 528.4 996.373 528.88C996.826 529.333 997.053 530 997.053 530.88V545.56C997.053 546.413 996.84 547.08 996.413 547.56C995.986 548.04 995.36 548.28 994.533 548.28ZM994.533 524.44C993.6 524.44 992.866 524.213 992.333 523.76C991.826 523.28 991.573 522.627 991.573 521.8C991.573 520.947 991.826 520.293 992.333 519.84C992.866 519.387 993.6 519.16 994.533 519.16C995.493 519.16 996.226 519.387 996.733 519.84C997.24 520.293 997.493 520.947 997.493 521.8C997.493 522.627 997.24 523.28 996.733 523.76C996.226 524.213 995.493 524.44 994.533 524.44ZM1004.73 548.32C1003.93 548.32 1003.32 548.107 1002.89 547.68C1002.46 547.227 1002.25 546.587 1002.25 545.76V530.64C1002.25 529.813 1002.46 529.187 1002.89 528.76C1003.32 528.333 1003.92 528.12 1004.69 528.12C1005.46 528.12 1006.06 528.333 1006.49 528.76C1006.92 529.187 1007.13 529.813 1007.13 530.64V533.36L1006.69 532.36C1007.28 530.947 1008.18 529.88 1009.41 529.16C1010.66 528.413 1012.08 528.04 1013.65 528.04C1015.22 528.04 1016.52 528.333 1017.53 528.92C1018.54 529.507 1019.3 530.4 1019.81 531.6C1020.32 532.773 1020.57 534.267 1020.57 536.08V545.76C1020.57 546.587 1020.36 547.227 1019.93 547.68C1019.5 548.107 1018.89 548.32 1018.09 548.32C1017.29 548.32 1016.66 548.107 1016.21 547.68C1015.78 547.227 1015.57 546.587 1015.57 545.76V536.32C1015.57 534.8 1015.28 533.693 1014.69 533C1014.13 532.307 1013.25 531.96 1012.05 531.96C1010.58 531.96 1009.41 532.427 1008.53 533.36C1007.68 534.267 1007.25 535.48 1007.25 537V545.76C1007.25 547.467 1006.41 548.32 1004.73 548.32ZM1032.73 548.4C1031.1 548.4 1029.75 548.107 1028.69 547.52C1027.62 546.907 1026.82 546 1026.29 544.8C1025.78 543.6 1025.53 542.107 1025.53 540.32V530.64C1025.53 529.787 1025.74 529.16 1026.17 528.76C1026.59 528.333 1027.21 528.12 1028.01 528.12C1028.81 528.12 1029.42 528.333 1029.85 528.76C1030.3 529.16 1030.53 529.787 1030.53 530.64V540.4C1030.53 541.787 1030.81 542.813 1031.37 543.48C1031.93 544.147 1032.82 544.48 1034.05 544.48C1035.38 544.48 1036.47 544.027 1037.33 543.12C1038.18 542.187 1038.61 540.96 1038.61 539.44V530.64C1038.61 529.787 1038.82 529.16 1039.25 528.76C1039.67 528.333 1040.29 528.12 1041.09 528.12C1041.89 528.12 1042.5 528.333 1042.93 528.76C1043.38 529.16 1043.61 529.787 1043.61 530.64V545.76C1043.61 547.467 1042.79 548.32 1041.17 548.32C1040.39 548.32 1039.79 548.107 1039.37 547.68C1038.94 547.227 1038.73 546.587 1038.73 545.76V542.72L1039.29 543.92C1038.73 545.36 1037.87 546.467 1036.73 547.24C1035.61 548.013 1034.27 548.4 1032.73 548.4ZM1057.77 548.4C1056.04 548.4 1054.58 548.107 1053.41 547.52C1052.26 546.933 1051.41 546.08 1050.85 544.96C1050.29 543.813 1050.01 542.4 1050.01 540.72V532.2H1047.93C1047.29 532.2 1046.8 532.04 1046.45 531.72C1046.1 531.373 1045.93 530.907 1045.93 530.32C1045.93 529.707 1046.1 529.24 1046.45 528.92C1046.8 528.6 1047.29 528.44 1047.93 528.44H1050.01V524.8C1050.01 523.973 1050.22 523.347 1050.65 522.92C1051.1 522.493 1051.73 522.28 1052.53 522.28C1053.33 522.28 1053.94 522.493 1054.37 522.92C1054.8 523.347 1055.01 523.973 1055.01 524.8V528.44H1059.25C1059.89 528.44 1060.38 528.6 1060.73 528.92C1061.08 529.24 1061.25 529.707 1061.25 530.32C1061.25 530.907 1061.08 531.373 1060.73 531.72C1060.38 532.04 1059.89 532.2 1059.25 532.2H1055.01V540.44C1055.01 541.72 1055.29 542.68 1055.85 543.32C1056.41 543.96 1057.32 544.28 1058.57 544.28C1059.02 544.28 1059.42 544.24 1059.77 544.16C1060.12 544.08 1060.42 544.027 1060.69 544C1061.01 543.973 1061.28 544.08 1061.49 544.32C1061.7 544.533 1061.81 544.987 1061.81 545.68C1061.81 546.213 1061.72 546.693 1061.53 547.12C1061.37 547.52 1061.06 547.8 1060.61 547.96C1060.26 548.067 1059.81 548.16 1059.25 548.24C1058.69 548.347 1058.2 548.4 1057.77 548.4ZM1073.61 548.4C1071.39 548.4 1069.49 547.987 1067.89 547.16C1066.29 546.333 1065.05 545.16 1064.17 543.64C1063.31 542.12 1062.89 540.32 1062.89 538.24C1062.89 536.213 1063.3 534.44 1064.13 532.92C1064.98 531.4 1066.14 530.213 1067.61 529.36C1069.1 528.48 1070.79 528.04 1072.69 528.04C1074.07 528.04 1075.31 528.267 1076.41 528.72C1077.53 529.173 1078.47 529.827 1079.25 530.68C1080.05 531.533 1080.65 532.573 1081.05 533.8C1081.47 535 1081.69 536.36 1081.69 537.88C1081.69 538.36 1081.51 538.733 1081.17 539C1080.85 539.24 1080.38 539.36 1079.77 539.36H1066.93V536.48H1078.17L1077.53 537.08C1077.53 535.853 1077.34 534.827 1076.97 534C1076.62 533.173 1076.1 532.547 1075.41 532.12C1074.74 531.667 1073.9 531.44 1072.89 531.44C1071.77 531.44 1070.81 531.707 1070.01 532.24C1069.23 532.747 1068.63 533.48 1068.21 534.44C1067.81 535.373 1067.61 536.493 1067.61 537.8V538.08C1067.61 540.267 1068.11 541.907 1069.13 543C1070.17 544.067 1071.69 544.6 1073.69 544.6C1074.38 544.6 1075.15 544.52 1076.01 544.36C1076.89 544.173 1077.71 543.867 1078.49 543.44C1079.05 543.12 1079.54 542.987 1079.97 543.04C1080.39 543.067 1080.73 543.213 1080.97 543.48C1081.23 543.747 1081.39 544.08 1081.45 544.48C1081.5 544.853 1081.42 545.24 1081.21 545.64C1081.02 546.04 1080.69 546.387 1080.21 546.68C1079.27 547.267 1078.19 547.707 1076.97 548C1075.77 548.267 1074.65 548.4 1073.61 548.4Z" fill="#4E30D2"/>
<path d="M579 621C579 616.582 582.582 613 587 613H853C857.418 613 861 616.582 861 621V661C861 665.418 857.418 669 853 669H587C582.582 669 579 665.418 579 661V621Z" fill="#6444F4"/>
<path d="M640.72 648.16C640.307 648.16 639.987 648.047 639.76 647.82C639.547 647.58 639.44 647.253 639.44 646.84V636.04H635.54C635.193 636.04 634.92 635.947 634.72 635.76C634.533 635.56 634.44 635.293 634.44 634.96C634.44 634.613 634.533 634.353 634.72 634.18C634.92 633.993 635.193 633.9 635.54 633.9H645.9C646.247 633.9 646.513 633.993 646.7 634.18C646.9 634.353 647 634.613 647 634.96C647 635.293 646.9 635.56 646.7 635.76C646.513 635.947 646.247 636.04 645.9 636.04H642V646.84C642 647.253 641.893 647.58 641.68 647.82C641.467 648.047 641.147 648.16 640.72 648.16ZM649.742 648.16C649.329 648.16 649.009 648.047 648.782 647.82C648.569 647.58 648.462 647.253 648.462 646.84V635.2C648.462 634.773 648.575 634.453 648.802 634.24C649.029 634.013 649.349 633.9 649.762 633.9H654.582C656.129 633.9 657.322 634.273 658.162 635.02C659.002 635.753 659.422 636.787 659.422 638.12C659.422 638.987 659.229 639.733 658.842 640.36C658.469 640.987 657.922 641.467 657.202 641.8C656.482 642.133 655.609 642.3 654.582 642.3L654.762 642H655.422C655.969 642 656.442 642.133 656.842 642.4C657.255 642.667 657.615 643.087 657.922 643.66L659.422 646.44C659.582 646.72 659.655 646.993 659.642 647.26C659.629 647.527 659.529 647.747 659.342 647.92C659.155 648.08 658.882 648.16 658.522 648.16C658.162 648.16 657.869 648.087 657.642 647.94C657.415 647.78 657.215 647.54 657.042 647.22L655.022 643.5C654.782 643.047 654.495 642.747 654.162 642.6C653.842 642.44 653.429 642.36 652.922 642.36H651.022V646.84C651.022 647.253 650.915 647.58 650.702 647.82C650.489 648.047 650.169 648.16 649.742 648.16ZM651.022 640.46H654.142C655.062 640.46 655.755 640.273 656.222 639.9C656.702 639.513 656.942 638.94 656.942 638.18C656.942 637.433 656.702 636.873 656.222 636.5C655.755 636.113 655.062 635.92 654.142 635.92H651.022V640.46ZM666.657 648.16C666.243 648.16 665.923 648.047 665.697 647.82C665.483 647.58 665.377 647.247 665.377 646.82V640.74L665.917 642.28L661.097 635.5C660.923 635.26 660.843 635.007 660.857 634.74C660.883 634.46 660.997 634.227 661.197 634.04C661.397 633.84 661.677 633.74 662.037 633.74C662.303 633.74 662.543 633.807 662.757 633.94C662.983 634.073 663.197 634.28 663.397 634.56L666.977 639.64H666.417L670.017 634.56C670.23 634.267 670.437 634.06 670.637 633.94C670.837 633.807 671.083 633.74 671.377 633.74C671.723 633.74 671.99 633.833 672.177 634.02C672.377 634.193 672.477 634.413 672.477 634.68C672.49 634.947 672.397 635.227 672.197 635.52L667.417 642.28L667.937 640.74V646.82C667.937 647.713 667.51 648.16 666.657 648.16ZM681.13 648.16C680.716 648.16 680.39 648.047 680.15 647.82C679.923 647.58 679.81 647.24 679.81 646.8V635.26C679.81 634.82 679.923 634.487 680.15 634.26C680.39 634.02 680.73 633.9 681.17 633.9H688.15C688.496 633.9 688.756 633.987 688.93 634.16C689.103 634.333 689.19 634.58 689.19 634.9C689.19 635.233 689.103 635.493 688.93 635.68C688.756 635.853 688.496 635.94 688.15 635.94H682.37V639.92H687.73C688.063 639.92 688.316 640.007 688.49 640.18C688.676 640.353 688.77 640.6 688.77 640.92C688.77 641.253 688.676 641.513 688.49 641.7C688.316 641.873 688.063 641.96 687.73 641.96H682.37V646.8C682.37 647.707 681.956 648.16 681.13 648.16ZM697.106 648.2C695.746 648.2 694.553 647.9 693.526 647.3C692.513 646.7 691.726 645.86 691.166 644.78C690.606 643.687 690.326 642.407 690.326 640.94C690.326 639.833 690.486 638.84 690.806 637.96C691.126 637.067 691.579 636.307 692.166 635.68C692.766 635.04 693.479 634.553 694.306 634.22C695.146 633.873 696.079 633.7 697.106 633.7C698.479 633.7 699.673 634 700.686 634.6C701.699 635.187 702.486 636.02 703.046 637.1C703.606 638.18 703.886 639.453 703.886 640.92C703.886 642.027 703.726 643.027 703.406 643.92C703.086 644.813 702.626 645.58 702.026 646.22C701.439 646.86 700.726 647.353 699.886 647.7C699.059 648.033 698.133 648.2 697.106 648.2ZM697.106 646C697.973 646 698.706 645.8 699.306 645.4C699.919 645 700.386 644.42 700.706 643.66C701.039 642.9 701.206 641.993 701.206 640.94C701.206 639.34 700.846 638.1 700.126 637.22C699.419 636.34 698.413 635.9 697.106 635.9C696.253 635.9 695.519 636.1 694.906 636.5C694.293 636.887 693.819 637.46 693.486 638.22C693.166 638.967 693.006 639.873 693.006 640.94C693.006 642.527 693.366 643.767 694.086 644.66C694.806 645.553 695.813 646 697.106 646ZM707.769 648.16C707.356 648.16 707.036 648.047 706.809 647.82C706.596 647.58 706.489 647.253 706.489 646.84V635.2C706.489 634.773 706.603 634.453 706.829 634.24C707.056 634.013 707.376 633.9 707.789 633.9H712.609C714.156 633.9 715.349 634.273 716.189 635.02C717.029 635.753 717.449 636.787 717.449 638.12C717.449 638.987 717.256 639.733 716.869 640.36C716.496 640.987 715.949 641.467 715.229 641.8C714.509 642.133 713.636 642.3 712.609 642.3L712.789 642H713.449C713.996 642 714.469 642.133 714.869 642.4C715.283 642.667 715.643 643.087 715.949 643.66L717.449 646.44C717.609 646.72 717.683 646.993 717.669 647.26C717.656 647.527 717.556 647.747 717.369 647.92C717.183 648.08 716.909 648.16 716.549 648.16C716.189 648.16 715.896 648.087 715.669 647.94C715.443 647.78 715.243 647.54 715.069 647.22L713.049 643.5C712.809 643.047 712.523 642.747 712.189 642.6C711.869 642.44 711.456 642.36 710.949 642.36H709.049V646.84C709.049 647.253 708.943 647.58 708.729 647.82C708.516 648.047 708.196 648.16 707.769 648.16ZM709.049 640.46H712.169C713.089 640.46 713.783 640.273 714.249 639.9C714.729 639.513 714.969 638.94 714.969 638.18C714.969 637.433 714.729 636.873 714.249 636.5C713.783 636.113 713.089 635.92 712.169 635.92H709.049V640.46ZM726.95 648.16C726.537 648.16 726.21 648.047 725.97 647.82C725.743 647.58 725.63 647.24 725.63 646.8V635.26C725.63 634.82 725.743 634.487 725.97 634.26C726.21 634.02 726.55 633.9 726.99 633.9H733.97C734.317 633.9 734.577 633.987 734.75 634.16C734.923 634.333 735.01 634.58 735.01 634.9C735.01 635.233 734.923 635.493 734.75 635.68C734.577 635.853 734.317 635.94 733.97 635.94H728.19V639.92H733.55C733.883 639.92 734.137 640.007 734.31 640.18C734.497 640.353 734.59 640.6 734.59 640.92C734.59 641.253 734.497 641.513 734.31 641.7C734.137 641.873 733.883 641.96 733.55 641.96H728.19V646.8C728.19 647.707 727.777 648.16 726.95 648.16ZM738.14 648.16C737.727 648.16 737.407 648.047 737.18 647.82C736.967 647.58 736.86 647.253 736.86 646.84V635.2C736.86 634.773 736.974 634.453 737.2 634.24C737.427 634.013 737.747 633.9 738.16 633.9H742.98C744.527 633.9 745.72 634.273 746.56 635.02C747.4 635.753 747.82 636.787 747.82 638.12C747.82 638.987 747.627 639.733 747.24 640.36C746.867 640.987 746.32 641.467 745.6 641.8C744.88 642.133 744.007 642.3 742.98 642.3L743.16 642H743.82C744.367 642 744.84 642.133 745.24 642.4C745.654 642.667 746.014 643.087 746.32 643.66L747.82 646.44C747.98 646.72 748.054 646.993 748.04 647.26C748.027 647.527 747.927 647.747 747.74 647.92C747.554 648.08 747.28 648.16 746.92 648.16C746.56 648.16 746.267 648.087 746.04 647.94C745.814 647.78 745.614 647.54 745.44 647.22L743.42 643.5C743.18 643.047 742.894 642.747 742.56 642.6C742.24 642.44 741.827 642.36 741.32 642.36H739.42V646.84C739.42 647.253 739.314 647.58 739.1 647.82C738.887 648.047 738.567 648.16 738.14 648.16ZM739.42 640.46H742.54C743.46 640.46 744.154 640.273 744.62 639.9C745.1 639.513 745.34 638.94 745.34 638.18C745.34 637.433 745.1 636.873 744.62 636.5C744.154 636.113 743.46 635.92 742.54 635.92H739.42V640.46ZM751.931 648C751.491 648 751.151 647.887 750.911 647.66C750.685 647.42 750.571 647.08 750.571 646.64V635.26C750.571 634.82 750.685 634.487 750.911 634.26C751.151 634.02 751.491 633.9 751.931 633.9H759.071C759.405 633.9 759.658 633.987 759.831 634.16C760.018 634.333 760.111 634.58 760.111 634.9C760.111 635.233 760.018 635.493 759.831 635.68C759.658 635.853 759.405 635.94 759.071 635.94H753.031V639.82H758.631C758.978 639.82 759.238 639.907 759.411 640.08C759.585 640.253 759.671 640.507 759.671 640.84C759.671 641.173 759.585 641.427 759.411 641.6C759.238 641.773 758.978 641.86 758.631 641.86H753.031V645.96H759.071C759.405 645.96 759.658 646.047 759.831 646.22C760.018 646.393 760.111 646.647 760.111 646.98C760.111 647.313 760.018 647.567 759.831 647.74C759.658 647.913 759.405 648 759.071 648H751.931ZM763.865 648C763.425 648 763.085 647.887 762.845 647.66C762.618 647.42 762.505 647.08 762.505 646.64V635.26C762.505 634.82 762.618 634.487 762.845 634.26C763.085 634.02 763.425 633.9 763.865 633.9H771.005C771.338 633.9 771.592 633.987 771.765 634.16C771.952 634.333 772.045 634.58 772.045 634.9C772.045 635.233 771.952 635.493 771.765 635.68C771.592 635.853 771.338 635.94 771.005 635.94H764.965V639.82H770.565C770.912 639.82 771.172 639.907 771.345 640.08C771.518 640.253 771.605 640.507 771.605 640.84C771.605 641.173 771.518 641.427 771.345 641.6C771.172 641.773 770.912 641.86 770.565 641.86H764.965V645.96H771.005C771.338 645.96 771.592 646.047 771.765 646.22C771.952 646.393 772.045 646.647 772.045 646.98C772.045 647.313 771.952 647.567 771.765 647.74C771.592 647.913 771.338 648 771.005 648H763.865Z" fill="#FEFDFF"/>
<path fill-rule="evenodd" clip-rule="evenodd" d="M789.793 648.707C789.402 648.317 789.402 647.683 789.793 647.293L796.086 641L789.793 634.707C789.402 634.317 789.402 633.683 789.793 633.293C790.183 632.902 790.817 632.902 791.207 633.293L798.207 640.293C798.598 640.683 798.598 641.317 798.207 641.707L791.207 648.707C790.817 649.098 790.183 649.098 789.793 648.707Z" fill="#FEFDFF"/>
</g>
<defs>
<filter id="filter0_f_6491_21065" x="504.552" y="166.88" width="883.109" height="873.249" filterUnits="userSpaceOnUse" color-interpolation-filters="sRGB">
<feFlood flood-opacity="0" result="BackgroundImageFix"/>
<feBlend mode="normal" in="SourceGraphic" in2="BackgroundImageFix" result="shape"/>
<feGaussianBlur stdDeviation="63.807" result="effect1_foregroundBlur_6491_21065"/>
</filter>
<filter id="filter1_f_6491_21065" x="13.3222" y="325.536" width="932.886" height="728.061" filterUnits="userSpaceOnUse" color-interpolation-filters="sRGB">
<feFlood flood-opacity="0" result="BackgroundImageFix"/>
<feBlend mode="normal" in="SourceGraphic" in2="BackgroundImageFix" result="shape"/>
<feGaussianBlur stdDeviation="68.6298" result="effect1_foregroundBlur_6491_21065"/>
</filter>
<filter id="filter2_f_6491_21065" x="280.373" y="207.993" width="700.17" height="648.891" filterUnits="userSpaceOnUse" color-interpolation-filters="sRGB">
<feFlood flood-opacity="0" result="BackgroundImageFix"/>
<feBlend mode="normal" in="SourceGraphic" in2="BackgroundImageFix" result="shape"/>
<feGaussianBlur stdDeviation="68.6298" result="effect1_foregroundBlur_6491_21065"/>
</filter>
<filter id="filter3_f_6491_21065" x="477.472" y="0.941788" width="870.459" height="713.85" filterUnits="userSpaceOnUse" color-interpolation-filters="sRGB">
<feFlood flood-opacity="0" result="BackgroundImageFix"/>
<feBlend mode="normal" in="SourceGraphic" in2="BackgroundImageFix" result="shape"/>
<feGaussianBlur stdDeviation="68.6298" result="effect1_foregroundBlur_6491_21065"/>
</filter>
<filter id="filter4_f_6491_21065" x="31.4913" y="39.35" width="796.506" height="750.795" filterUnits="userSpaceOnUse" color-interpolation-filters="sRGB">
<feFlood flood-opacity="0" result="BackgroundImageFix"/>
<feBlend mode="normal" in="SourceGraphic" in2="BackgroundImageFix" result="shape"/>
<feGaussianBlur stdDeviation="68.6298" result="effect1_foregroundBlur_6491_21065"/>
</filter>
<filter id="filter5_b_6491_21065" x="248.229" y="403.229" width="943.542" height="367.542" filterUnits="userSpaceOnUse" color-interpolation-filters="sRGB">
<feFlood flood-opacity="0" result="BackgroundImageFix"/>
<feGaussianBlur in="BackgroundImageFix" stdDeviation="22.8855"/>
<feComposite in2="SourceAlpha" operator="in" result="effect1_backgroundBlur_6491_21065"/>
<feBlend mode="normal" in="SourceGraphic" in2="effect1_backgroundBlur_6491_21065" result="shape"/>
</filter>
<radialGradient id="paint0_radial_6491_21065" cx="0" cy="0" r="1" gradientUnits="userSpaceOnUse" gradientTransform="translate(430.083 419.224) rotate(90) scale(201.224 226.083)">
<stop stop-color="white"/>
<stop offset="1" stop-color="white" stop-opacity="0"/>
<stop offset="1" stop-opacity="0"/>
</radialGradient>
<radialGradient id="paint1_radial_6491_21065" cx="0" cy="0" r="1" gradientUnits="userSpaceOnUse" gradientTransform="translate(924.98 666.655) rotate(90) scale(218.579 245.784)">
<stop stop-color="white"/>
<stop offset="1" stop-color="white" stop-opacity="0"/>
<stop offset="1" stop-opacity="0"/>
</radialGradient>
<radialGradient id="paint2_radial_6491_21065" cx="0" cy="0" r="1" gradientUnits="userSpaceOnUse" gradientTransform="translate(414.044 727.053) rotate(90) scale(208.259 234.057)">
<stop stop-color="white"/>
<stop offset="1" stop-color="white" stop-opacity="0"/>
<stop offset="1" stop-opacity="0"/>
</radialGradient>
<radialGradient id="paint3_radial_6491_21065" cx="0" cy="0" r="1" gradientUnits="userSpaceOnUse" gradientTransform="translate(941.259 357.441) rotate(90) scale(210.136 235.934)">
<stop stop-color="white"/>
<stop offset="1" stop-color="white" stop-opacity="0"/>
<stop offset="1" stop-opacity="0"/>
</radialGradient>
<linearGradient id="paint4_linear_6491_21065" x1="720" y1="449" x2="720" y2="638.155" gradientUnits="userSpaceOnUse">
<stop stop-color="white"/>
<stop offset="1" stop-color="white" stop-opacity="0.5"/>
</linearGradient>
</defs>
</svg>
