<svg width="852" height="276" viewBox="0 0 852 276" fill="none" xmlns="http://www.w3.org/2000/svg">
<g filter="url(#filter0_b_6491_21083)">
<path d="M0 20C0 8.9543 8.95431 0 20 0H832C843.046 0 852 8.9543 852 20V256C852 267.046 843.046 276 832 276H20C8.95429 276 0 267.046 0 256V20Z" fill="url(#paint0_linear_6491_21083)" fill-opacity="0.25"/>
<path d="M58.3719 99.4C55.4385 99.4 52.9185 98.8133 50.8119 97.64C48.7319 96.44 47.1319 94.76 46.0119 92.6C44.8919 90.4133 44.3319 87.84 44.3319 84.88C44.3319 82.6667 44.6519 80.68 45.2919 78.92C45.9319 77.1333 46.8519 75.6133 48.0519 74.36C49.2519 73.08 50.7185 72.1067 52.4519 71.44C54.2119 70.7467 56.1852 70.4 58.3719 70.4C59.8385 70.4 61.2785 70.5867 62.6919 70.96C64.1052 71.3333 65.3452 71.8667 66.4119 72.56C66.9719 72.9067 67.3452 73.3333 67.5319 73.84C67.7185 74.32 67.7585 74.8 67.6519 75.28C67.5452 75.7333 67.3185 76.12 66.9719 76.44C66.6519 76.76 66.2385 76.9467 65.7319 77C65.2519 77.0267 64.7185 76.8533 64.1319 76.48C63.3052 75.9467 62.4119 75.56 61.4519 75.32C60.4919 75.08 59.5185 74.96 58.5319 74.96C56.6385 74.96 55.0385 75.3467 53.7319 76.12C52.4252 76.8933 51.4385 78.0133 50.7719 79.48C50.1052 80.9467 49.7719 82.7467 49.7719 84.88C49.7719 86.9867 50.1052 88.7867 50.7719 90.28C51.4385 91.7733 52.4252 92.9067 53.7319 93.68C55.0385 94.4533 56.6385 94.84 58.5319 94.84C59.5452 94.84 60.5452 94.72 61.5319 94.48C62.5185 94.2133 63.4519 93.8133 64.3319 93.28C64.9185 92.9333 65.4385 92.7867 65.8919 92.84C66.3719 92.8667 66.7719 93.0267 67.0919 93.32C67.4119 93.6133 67.6252 93.9867 67.7319 94.44C67.8385 94.8667 67.8119 95.32 67.6519 95.8C67.4919 96.2533 67.1719 96.6533 66.6919 97C65.6252 97.7733 64.3452 98.3733 62.8519 98.8C61.3852 99.2 59.8919 99.4 58.3719 99.4ZM74.5194 99.32C73.6927 99.32 73.0527 99.1067 72.5994 98.68C72.1727 98.2267 71.9594 97.5867 71.9594 96.76V81.64C71.9594 80.8133 72.1727 80.1867 72.5994 79.76C73.026 79.3333 73.626 79.12 74.3994 79.12C75.1727 79.12 75.7727 79.3333 76.1994 79.76C76.626 80.1867 76.8394 80.8133 76.8394 81.64V84.16H76.4394C76.8127 82.56 77.546 81.3467 78.6394 80.52C79.7327 79.6933 81.186 79.2 82.9994 79.04C83.5594 78.9867 83.9994 79.1333 84.3194 79.48C84.666 79.8 84.866 80.3067 84.9194 81C84.9727 81.6667 84.8127 82.2133 84.4394 82.64C84.0927 83.04 83.5594 83.28 82.8394 83.36L81.9594 83.44C80.3327 83.6 79.106 84.1067 78.2794 84.96C77.4527 85.7867 77.0394 86.96 77.0394 88.48V96.76C77.0394 97.5867 76.826 98.2267 76.3994 98.68C75.9727 99.1067 75.346 99.32 74.5194 99.32ZM96.9509 99.4C94.7376 99.4 92.8309 98.9867 91.2309 98.16C89.6309 97.3333 88.3909 96.16 87.5109 94.64C86.6576 93.12 86.2309 91.32 86.2309 89.24C86.2309 87.2133 86.6443 85.44 87.4709 83.92C88.3243 82.4 89.4843 81.2133 90.9509 80.36C92.4443 79.48 94.1376 79.04 96.0309 79.04C97.4176 79.04 98.6576 79.2667 99.7509 79.72C100.871 80.1733 101.818 80.8267 102.591 81.68C103.391 82.5333 103.991 83.5733 104.391 84.8C104.818 86 105.031 87.36 105.031 88.88C105.031 89.36 104.858 89.7333 104.511 90C104.191 90.24 103.724 90.36 103.111 90.36H90.2709V87.48H101.511L100.871 88.08C100.871 86.8533 100.684 85.8267 100.311 85C99.9643 84.1733 99.4443 83.5467 98.7509 83.12C98.0843 82.6667 97.2443 82.44 96.2309 82.44C95.1109 82.44 94.1509 82.7067 93.3509 83.24C92.5776 83.7467 91.9776 84.48 91.5509 85.44C91.1509 86.3733 90.9509 87.4933 90.9509 88.8V89.08C90.9509 91.2667 91.4576 92.9067 92.4709 94C93.5109 95.0667 95.0309 95.6 97.0309 95.6C97.7243 95.6 98.4976 95.52 99.3509 95.36C100.231 95.1733 101.058 94.8667 101.831 94.44C102.391 94.12 102.884 93.9867 103.311 94.04C103.738 94.0667 104.071 94.2133 104.311 94.48C104.578 94.7467 104.738 95.08 104.791 95.48C104.844 95.8533 104.764 96.24 104.551 96.64C104.364 97.04 104.031 97.3867 103.551 97.68C102.618 98.2667 101.538 98.7067 100.311 99C99.1109 99.2667 97.9909 99.4 96.9509 99.4ZM115.431 99.4C114.017 99.4 112.751 99.1333 111.631 98.6C110.537 98.04 109.671 97.2933 109.031 96.36C108.417 95.4267 108.111 94.3733 108.111 93.2C108.111 91.76 108.484 90.6267 109.231 89.8C109.977 88.9467 111.191 88.3333 112.871 87.96C114.551 87.5867 116.804 87.4 119.631 87.4H121.631V90.28H119.671C118.017 90.28 116.697 90.36 115.711 90.52C114.724 90.68 114.017 90.96 113.591 91.36C113.191 91.7333 112.991 92.2667 112.991 92.96C112.991 93.84 113.297 94.56 113.911 95.12C114.524 95.68 115.377 95.96 116.471 95.96C117.351 95.96 118.124 95.76 118.791 95.36C119.484 94.9333 120.031 94.36 120.431 93.64C120.831 92.92 121.031 92.0933 121.031 91.16V86.56C121.031 85.2267 120.737 84.2667 120.151 83.68C119.564 83.0933 118.577 82.8 117.191 82.8C116.417 82.8 115.577 82.8933 114.671 83.08C113.791 83.2667 112.857 83.5867 111.871 84.04C111.364 84.28 110.911 84.3467 110.511 84.24C110.137 84.1333 109.844 83.92 109.631 83.6C109.417 83.2533 109.311 82.88 109.311 82.48C109.311 82.08 109.417 81.6933 109.631 81.32C109.844 80.92 110.204 80.6267 110.711 80.44C111.937 79.9333 113.111 79.5733 114.231 79.36C115.377 79.1467 116.417 79.04 117.351 79.04C119.271 79.04 120.844 79.3333 122.071 79.92C123.324 80.5067 124.257 81.4 124.871 82.6C125.484 83.7733 125.791 85.2933 125.791 87.16V96.76C125.791 97.5867 125.591 98.2267 125.191 98.68C124.791 99.1067 124.217 99.32 123.471 99.32C122.724 99.32 122.137 99.1067 121.711 98.68C121.311 98.2267 121.111 97.5867 121.111 96.76V94.84H121.431C121.244 95.7733 120.871 96.5867 120.311 97.28C119.777 97.9467 119.097 98.4667 118.271 98.84C117.444 99.2133 116.497 99.4 115.431 99.4ZM139.826 99.4C138.092 99.4 136.639 99.1067 135.466 98.52C134.319 97.9333 133.466 97.08 132.906 95.96C132.346 94.8133 132.066 93.4 132.066 91.72V83.2H129.986C129.346 83.2 128.852 83.04 128.506 82.72C128.159 82.3733 127.986 81.9067 127.986 81.32C127.986 80.7067 128.159 80.24 128.506 79.92C128.852 79.6 129.346 79.44 129.986 79.44H132.066V75.8C132.066 74.9733 132.279 74.3467 132.706 73.92C133.159 73.4933 133.786 73.28 134.586 73.28C135.386 73.28 135.999 73.4933 136.426 73.92C136.852 74.3467 137.066 74.9733 137.066 75.8V79.44H141.306C141.946 79.44 142.439 79.6 142.786 79.92C143.132 80.24 143.306 80.7067 143.306 81.32C143.306 81.9067 143.132 82.3733 142.786 82.72C142.439 83.04 141.946 83.2 141.306 83.2H137.066V91.44C137.066 92.72 137.346 93.68 137.906 94.32C138.466 94.96 139.372 95.28 140.626 95.28C141.079 95.28 141.479 95.24 141.826 95.16C142.172 95.08 142.479 95.0267 142.746 95C143.066 94.9733 143.332 95.08 143.546 95.32C143.759 95.5333 143.866 95.9867 143.866 96.68C143.866 97.2133 143.772 97.6933 143.586 98.12C143.426 98.52 143.119 98.8 142.666 98.96C142.319 99.0667 141.866 99.16 141.306 99.24C140.746 99.3467 140.252 99.4 139.826 99.4ZM155.662 99.4C153.449 99.4 151.542 98.9867 149.942 98.16C148.342 97.3333 147.102 96.16 146.222 94.64C145.369 93.12 144.942 91.32 144.942 89.24C144.942 87.2133 145.355 85.44 146.182 83.92C147.035 82.4 148.195 81.2133 149.662 80.36C151.155 79.48 152.849 79.04 154.742 79.04C156.129 79.04 157.369 79.2667 158.462 79.72C159.582 80.1733 160.529 80.8267 161.302 81.68C162.102 82.5333 162.702 83.5733 163.102 84.8C163.529 86 163.742 87.36 163.742 88.88C163.742 89.36 163.569 89.7333 163.222 90C162.902 90.24 162.435 90.36 161.822 90.36H148.982V87.48H160.222L159.582 88.08C159.582 86.8533 159.395 85.8267 159.022 85C158.675 84.1733 158.155 83.5467 157.462 83.12C156.795 82.6667 155.955 82.44 154.942 82.44C153.822 82.44 152.862 82.7067 152.062 83.24C151.289 83.7467 150.689 84.48 150.262 85.44C149.862 86.3733 149.662 87.4933 149.662 88.8V89.08C149.662 91.2667 150.169 92.9067 151.182 94C152.222 95.0667 153.742 95.6 155.742 95.6C156.435 95.6 157.209 95.52 158.062 95.36C158.942 95.1733 159.769 94.8667 160.542 94.44C161.102 94.12 161.595 93.9867 162.022 94.04C162.449 94.0667 162.782 94.2133 163.022 94.48C163.289 94.7467 163.449 95.08 163.502 95.48C163.555 95.8533 163.475 96.24 163.262 96.64C163.075 97.04 162.742 97.3867 162.262 97.68C161.329 98.2667 160.249 98.7067 159.022 99C157.822 99.2667 156.702 99.4 155.662 99.4ZM183.521 106.52C182.934 106.52 182.454 106.36 182.081 106.04C181.708 105.747 181.481 105.347 181.401 104.84C181.348 104.333 181.441 103.8 181.681 103.24L184.401 97.2V99.28L177.121 82.44C176.881 81.8533 176.801 81.3067 176.881 80.8C176.961 80.2933 177.201 79.8933 177.601 79.6C178.028 79.28 178.601 79.12 179.321 79.12C179.934 79.12 180.428 79.2667 180.801 79.56C181.174 79.8267 181.508 80.3467 181.801 81.12L187.201 94.6H186.001L191.521 81.08C191.814 80.3333 192.161 79.8267 192.561 79.56C192.961 79.2667 193.494 79.12 194.161 79.12C194.748 79.12 195.214 79.28 195.561 79.6C195.908 79.8933 196.121 80.2933 196.201 80.8C196.281 81.28 196.188 81.8133 195.921 82.4L186.201 104.6C185.854 105.347 185.481 105.853 185.081 106.12C184.681 106.387 184.161 106.52 183.521 106.52ZM208.145 99.4C206.118 99.4 204.358 98.9867 202.865 98.16C201.372 97.3333 200.212 96.16 199.385 94.64C198.558 93.0933 198.145 91.28 198.145 89.2C198.145 87.6267 198.372 86.2267 198.825 85C199.305 83.7467 199.985 82.68 200.865 81.8C201.745 80.8933 202.798 80.2133 204.025 79.76C205.252 79.28 206.625 79.04 208.145 79.04C210.172 79.04 211.932 79.4533 213.425 80.28C214.918 81.1067 216.078 82.28 216.905 83.8C217.732 85.32 218.145 87.12 218.145 89.2C218.145 90.7733 217.905 92.1867 217.425 93.44C216.972 94.6933 216.305 95.7733 215.425 96.68C214.545 97.56 213.492 98.24 212.265 98.72C211.038 99.1733 209.665 99.4 208.145 99.4ZM208.145 95.6C209.132 95.6 209.998 95.36 210.745 94.88C211.492 94.4 212.065 93.6933 212.465 92.76C212.892 91.8 213.105 90.6133 213.105 89.2C213.105 87.0667 212.652 85.48 211.745 84.44C210.838 83.3733 209.638 82.84 208.145 82.84C207.158 82.84 206.292 83.08 205.545 83.56C204.798 84.0133 204.212 84.72 203.785 85.68C203.385 86.6133 203.185 87.7867 203.185 89.2C203.185 91.3067 203.638 92.9067 204.545 94C205.452 95.0667 206.652 95.6 208.145 95.6ZM229.352 99.4C227.725 99.4 226.379 99.1067 225.312 98.52C224.245 97.9067 223.445 97 222.912 95.8C222.405 94.6 222.152 93.1067 222.152 91.32V81.64C222.152 80.7867 222.365 80.16 222.792 79.76C223.219 79.3333 223.832 79.12 224.632 79.12C225.432 79.12 226.045 79.3333 226.472 79.76C226.925 80.16 227.152 80.7867 227.152 81.64V91.4C227.152 92.7867 227.432 93.8133 227.992 94.48C228.552 95.1467 229.445 95.48 230.672 95.48C232.005 95.48 233.099 95.0267 233.952 94.12C234.805 93.1867 235.232 91.96 235.232 90.44V81.64C235.232 80.7867 235.445 80.16 235.872 79.76C236.299 79.3333 236.912 79.12 237.712 79.12C238.512 79.12 239.125 79.3333 239.552 79.76C240.005 80.16 240.232 80.7867 240.232 81.64V96.76C240.232 98.4667 239.419 99.32 237.792 99.32C237.019 99.32 236.419 99.1067 235.992 98.68C235.565 98.2267 235.352 97.5867 235.352 96.76V93.72L235.912 94.92C235.352 96.36 234.499 97.4667 233.352 98.24C232.232 99.0133 230.899 99.4 229.352 99.4ZM247.996 99.32C247.169 99.32 246.529 99.1067 246.076 98.68C245.649 98.2267 245.436 97.5867 245.436 96.76V81.64C245.436 80.8133 245.649 80.1867 246.076 79.76C246.503 79.3333 247.103 79.12 247.876 79.12C248.649 79.12 249.249 79.3333 249.676 79.76C250.103 80.1867 250.316 80.8133 250.316 81.64V84.16H249.916C250.289 82.56 251.023 81.3467 252.116 80.52C253.209 79.6933 254.663 79.2 256.476 79.04C257.036 78.9867 257.476 79.1333 257.796 79.48C258.143 79.8 258.343 80.3067 258.396 81C258.449 81.6667 258.289 82.2133 257.916 82.64C257.569 83.04 257.036 83.28 256.316 83.36L255.436 83.44C253.809 83.6 252.583 84.1067 251.756 84.96C250.929 85.7867 250.516 86.96 250.516 88.48V96.76C250.516 97.5867 250.303 98.2267 249.876 98.68C249.449 99.1067 248.823 99.32 247.996 99.32ZM433.747 106.52C432.947 106.52 432.334 106.307 431.907 105.88C431.481 105.453 431.267 104.827 431.267 104V95H431.707C431.281 96.3067 430.454 97.3733 429.227 98.2C428.027 99 426.614 99.4 424.987 99.4C423.281 99.4 421.774 98.9867 420.467 98.16C419.187 97.3333 418.187 96.16 417.467 94.64C416.747 93.0933 416.387 91.28 416.387 89.2C416.387 87.0933 416.747 85.2933 417.467 83.8C418.187 82.28 419.187 81.1067 420.467 80.28C421.774 79.4533 423.281 79.04 424.987 79.04C426.641 79.04 428.081 79.4533 429.307 80.28C430.534 81.1067 431.347 82.2 431.747 83.56L431.307 84.76V81.64C431.307 80.8133 431.521 80.1867 431.947 79.76C432.374 79.3333 432.987 79.12 433.787 79.12C434.587 79.12 435.201 79.3333 435.627 79.76C436.054 80.1867 436.267 80.8133 436.267 81.64V104C436.267 104.827 436.041 105.453 435.587 105.88C435.161 106.307 434.547 106.52 433.747 106.52ZM426.387 95.6C427.374 95.6 428.241 95.36 428.987 94.88C429.734 94.4 430.307 93.6933 430.707 92.76C431.134 91.8 431.347 90.6133 431.347 89.2C431.347 87.0667 430.894 85.48 429.987 84.44C429.081 83.3733 427.881 82.84 426.387 82.84C425.401 82.84 424.534 83.08 423.787 83.56C423.041 84.0133 422.454 84.72 422.027 85.68C421.627 86.6133 421.427 87.7867 421.427 89.2C421.427 91.3067 421.881 92.9067 422.787 94C423.694 95.0667 424.894 95.6 426.387 95.6ZM448.532 99.4C446.905 99.4 445.558 99.1067 444.492 98.52C443.425 97.9067 442.625 97 442.092 95.8C441.585 94.6 441.332 93.1067 441.332 91.32V81.64C441.332 80.7867 441.545 80.16 441.972 79.76C442.398 79.3333 443.012 79.12 443.812 79.12C444.612 79.12 445.225 79.3333 445.652 79.76C446.105 80.16 446.332 80.7867 446.332 81.64V91.4C446.332 92.7867 446.612 93.8133 447.172 94.48C447.732 95.1467 448.625 95.48 449.852 95.48C451.185 95.48 452.278 95.0267 453.132 94.12C453.985 93.1867 454.412 91.96 454.412 90.44V81.64C454.412 80.7867 454.625 80.16 455.052 79.76C455.478 79.3333 456.092 79.12 456.892 79.12C457.692 79.12 458.305 79.3333 458.732 79.76C459.185 80.16 459.412 80.7867 459.412 81.64V96.76C459.412 98.4667 458.598 99.32 456.972 99.32C456.198 99.32 455.598 99.1067 455.172 98.68C454.745 98.2267 454.532 97.5867 454.532 96.76V93.72L455.092 94.92C454.532 96.36 453.678 97.4667 452.532 98.24C451.412 99.0133 450.078 99.4 448.532 99.4ZM467.096 99.28C466.296 99.28 465.682 99.04 465.256 98.56C464.829 98.08 464.616 97.4133 464.616 96.56V81.88C464.616 81 464.829 80.3333 465.256 79.88C465.682 79.4 466.296 79.16 467.096 79.16C467.896 79.16 468.509 79.4 468.936 79.88C469.389 80.3333 469.616 81 469.616 81.88V96.56C469.616 97.4133 469.402 98.08 468.976 98.56C468.549 99.04 467.922 99.28 467.096 99.28ZM467.096 75.44C466.162 75.44 465.429 75.2133 464.896 74.76C464.389 74.28 464.136 73.6267 464.136 72.8C464.136 71.9467 464.389 71.2933 464.896 70.84C465.429 70.3867 466.162 70.16 467.096 70.16C468.056 70.16 468.789 70.3867 469.296 70.84C469.802 71.2933 470.056 71.9467 470.056 72.8C470.056 73.6267 469.802 74.28 469.296 74.76C468.789 75.2133 468.056 75.44 467.096 75.44ZM476.011 99C475.504 99 475.078 98.88 474.731 98.64C474.411 98.3733 474.198 98.04 474.091 97.64C473.984 97.24 473.984 96.8133 474.091 96.36C474.224 95.88 474.478 95.4267 474.851 95L485.211 82V83.2H475.771C475.158 83.2 474.678 83.04 474.331 82.72C474.011 82.3733 473.851 81.9067 473.851 81.32C473.851 80.7067 474.011 80.24 474.331 79.92C474.678 79.6 475.158 79.44 475.771 79.44H487.611C488.198 79.44 488.678 79.5733 489.051 79.84C489.424 80.08 489.664 80.4 489.771 80.8C489.904 81.2 489.918 81.6267 489.811 82.08C489.704 82.5333 489.464 82.96 489.091 83.36L478.531 96.56V95.24H488.531C489.811 95.24 490.451 95.8667 490.451 97.12C490.451 97.7067 490.278 98.1733 489.931 98.52C489.611 98.84 489.144 99 488.531 99H476.011ZM507.096 99.28C506.296 99.28 505.682 99.04 505.256 98.56C504.829 98.08 504.616 97.4133 504.616 96.56V81.88C504.616 81 504.829 80.3333 505.256 79.88C505.682 79.4 506.296 79.16 507.096 79.16C507.896 79.16 508.509 79.4 508.936 79.88C509.389 80.3333 509.616 81 509.616 81.88V96.56C509.616 97.4133 509.402 98.08 508.976 98.56C508.549 99.04 507.922 99.28 507.096 99.28ZM507.096 75.44C506.162 75.44 505.429 75.2133 504.896 74.76C504.389 74.28 504.136 73.6267 504.136 72.8C504.136 71.9467 504.389 71.2933 504.896 70.84C505.429 70.3867 506.162 70.16 507.096 70.16C508.056 70.16 508.789 70.3867 509.296 70.84C509.802 71.2933 510.056 71.9467 510.056 72.8C510.056 73.6267 509.802 74.28 509.296 74.76C508.789 75.2133 508.056 75.44 507.096 75.44ZM517.291 99.32C516.491 99.32 515.878 99.1067 515.451 98.68C515.024 98.2267 514.811 97.5867 514.811 96.76V81.64C514.811 80.8133 515.024 80.1867 515.451 79.76C515.878 79.3333 516.478 79.12 517.251 79.12C518.024 79.12 518.624 79.3333 519.051 79.76C519.478 80.1867 519.691 80.8133 519.691 81.64V84.36L519.251 83.36C519.838 81.9467 520.744 80.88 521.971 80.16C523.224 79.4133 524.638 79.04 526.211 79.04C527.784 79.04 529.078 79.3333 530.091 79.92C531.104 80.5067 531.864 81.4 532.371 82.6C532.878 83.7733 533.131 85.2667 533.131 87.08V96.76C533.131 97.5867 532.918 98.2267 532.491 98.68C532.064 99.1067 531.451 99.32 530.651 99.32C529.851 99.32 529.224 99.1067 528.771 98.68C528.344 98.2267 528.131 97.5867 528.131 96.76V87.32C528.131 85.8 527.838 84.6933 527.251 84C526.691 83.3067 525.811 82.96 524.611 82.96C523.144 82.96 521.971 83.4267 521.091 84.36C520.238 85.2667 519.811 86.48 519.811 88V96.76C519.811 98.4667 518.971 99.32 517.291 99.32ZM546.669 106.56C546.082 106.613 545.602 106.52 545.229 106.28C544.855 106.067 544.602 105.787 544.469 105.44C544.309 105.093 544.255 104.733 544.309 104.36C544.362 103.987 544.522 103.653 544.789 103.36C545.029 103.093 545.362 102.947 545.789 102.92C546.989 102.813 547.855 102.467 548.389 101.88C548.949 101.32 549.229 100.453 549.229 99.28V81.64C549.229 80.8133 549.442 80.1867 549.869 79.76C550.322 79.3333 550.949 79.12 551.749 79.12C552.549 79.12 553.162 79.3333 553.589 79.76C554.015 80.1867 554.229 80.8133 554.229 81.64V98.84C554.229 100.547 553.949 101.947 553.389 103.04C552.855 104.133 552.029 104.96 550.909 105.52C549.815 106.08 548.402 106.427 546.669 106.56ZM551.709 75.44C550.775 75.44 550.042 75.2133 549.509 74.76C549.002 74.28 548.749 73.6267 548.749 72.8C548.749 71.9467 549.002 71.2933 549.509 70.84C550.042 70.3867 550.775 70.16 551.709 70.16C552.669 70.16 553.402 70.3867 553.909 70.84C554.415 71.2933 554.669 71.9467 554.669 72.8C554.669 73.6267 554.415 74.28 553.909 74.76C553.402 75.2133 552.669 75.44 551.709 75.44ZM566.5 99.4C564.874 99.4 563.527 99.1067 562.46 98.52C561.394 97.9067 560.594 97 560.06 95.8C559.554 94.6 559.3 93.1067 559.3 91.32V81.64C559.3 80.7867 559.514 80.16 559.94 79.76C560.367 79.3333 560.98 79.12 561.78 79.12C562.58 79.12 563.194 79.3333 563.62 79.76C564.074 80.16 564.3 80.7867 564.3 81.64V91.4C564.3 92.7867 564.58 93.8133 565.14 94.48C565.7 95.1467 566.594 95.48 567.82 95.48C569.154 95.48 570.247 95.0267 571.1 94.12C571.954 93.1867 572.38 91.96 572.38 90.44V81.64C572.38 80.7867 572.594 80.16 573.02 79.76C573.447 79.3333 574.06 79.12 574.86 79.12C575.66 79.12 576.274 79.3333 576.7 79.76C577.154 80.16 577.38 80.7867 577.38 81.64V96.76C577.38 98.4667 576.567 99.32 574.94 99.32C574.167 99.32 573.567 99.1067 573.14 98.68C572.714 98.2267 572.5 97.5867 572.5 96.76V93.72L573.06 94.92C572.5 96.36 571.647 97.4667 570.5 98.24C569.38 99.0133 568.047 99.4 566.5 99.4ZM589.744 99.4C588.598 99.4 587.384 99.28 586.104 99.04C584.824 98.8 583.678 98.3867 582.664 97.8C582.238 97.5333 581.931 97.2267 581.744 96.88C581.584 96.5067 581.518 96.1467 581.544 95.8C581.598 95.4267 581.731 95.1067 581.944 94.84C582.184 94.5733 582.478 94.4 582.824 94.32C583.198 94.24 583.598 94.3067 584.024 94.52C585.091 95.0267 586.091 95.3867 587.024 95.6C587.958 95.7867 588.878 95.88 589.784 95.88C591.064 95.88 592.011 95.6667 592.624 95.24C593.264 94.7867 593.584 94.2 593.584 93.48C593.584 92.8667 593.371 92.4 592.944 92.08C592.544 91.7333 591.931 91.48 591.104 91.32L587.104 90.56C585.451 90.24 584.184 89.64 583.304 88.76C582.451 87.8533 582.024 86.6933 582.024 85.28C582.024 84 582.371 82.8933 583.064 81.96C583.784 81.0267 584.771 80.3067 586.024 79.8C587.278 79.2933 588.718 79.04 590.344 79.04C591.518 79.04 592.611 79.1733 593.624 79.44C594.664 79.68 595.664 80.0667 596.624 80.6C597.024 80.8133 597.291 81.0933 597.424 81.44C597.584 81.7867 597.624 82.1467 597.544 82.52C597.464 82.8667 597.304 83.1867 597.064 83.48C596.824 83.7467 596.518 83.92 596.144 84C595.798 84.0533 595.398 83.9733 594.944 83.76C594.118 83.3333 593.318 83.0267 592.544 82.84C591.798 82.6533 591.078 82.56 590.384 82.56C589.078 82.56 588.104 82.7867 587.464 83.24C586.851 83.6933 586.544 84.2933 586.544 85.04C586.544 85.6 586.731 86.0667 587.104 86.44C587.478 86.8133 588.051 87.0667 588.824 87.2L592.824 87.96C594.558 88.28 595.864 88.8667 596.744 89.72C597.651 90.5733 598.104 91.72 598.104 93.16C598.104 95.1067 597.344 96.64 595.824 97.76C594.304 98.8533 592.278 99.4 589.744 99.4ZM610.88 99.4C609.147 99.4 607.694 99.1067 606.52 98.52C605.374 97.9333 604.52 97.08 603.96 95.96C603.4 94.8133 603.12 93.4 603.12 91.72V83.2H601.04C600.4 83.2 599.907 83.04 599.56 82.72C599.214 82.3733 599.04 81.9067 599.04 81.32C599.04 80.7067 599.214 80.24 599.56 79.92C599.907 79.6 600.4 79.44 601.04 79.44H603.12V75.8C603.12 74.9733 603.334 74.3467 603.76 73.92C604.214 73.4933 604.84 73.28 605.64 73.28C606.44 73.28 607.054 73.4933 607.48 73.92C607.907 74.3467 608.12 74.9733 608.12 75.8V79.44H612.36C613 79.44 613.494 79.6 613.84 79.92C614.187 80.24 614.36 80.7067 614.36 81.32C614.36 81.9067 614.187 82.3733 613.84 82.72C613.494 83.04 613 83.2 612.36 83.2H608.12V91.44C608.12 92.72 608.4 93.68 608.96 94.32C609.52 94.96 610.427 95.28 611.68 95.28C612.134 95.28 612.534 95.24 612.88 95.16C613.227 95.08 613.534 95.0267 613.8 95C614.12 94.9733 614.387 95.08 614.6 95.32C614.814 95.5333 614.92 95.9867 614.92 96.68C614.92 97.2133 614.827 97.6933 614.64 98.12C614.48 98.52 614.174 98.8 613.72 98.96C613.374 99.0667 612.92 99.16 612.36 99.24C611.8 99.3467 611.307 99.4 610.88 99.4ZM804.906 90.88C804.4 90.88 804 90.72 803.706 90.4C803.44 90.08 803.28 89.6267 803.226 89.04L802.026 73.76C801.946 72.7733 802.16 71.9867 802.666 71.4C803.173 70.7867 803.92 70.48 804.906 70.48C805.866 70.48 806.586 70.7867 807.066 71.4C807.573 71.9867 807.786 72.7733 807.706 73.76L806.506 89.04C806.48 89.6267 806.32 90.08 806.026 90.4C805.76 90.72 805.386 90.88 804.906 90.88ZM804.906 99.2C804 99.2 803.266 98.92 802.706 98.36C802.173 97.8 801.906 97.08 801.906 96.2C801.906 95.3467 802.173 94.6533 802.706 94.12C803.266 93.56 804 93.28 804.906 93.28C805.84 93.28 806.56 93.56 807.066 94.12C807.6 94.6533 807.866 95.3467 807.866 96.2C807.866 97.08 807.6 97.8 807.066 98.36C806.56 98.92 805.84 99.2 804.906 99.2Z" fill="#15343A"/>
<path d="M280.999 99.4C278.946 99.4 277.159 98.9867 275.639 98.16C274.119 97.3067 272.946 96.1067 272.119 94.56C271.293 93.0133 270.879 91.2 270.879 89.12C270.879 87.5467 271.106 86.1467 271.559 84.92C272.039 83.6667 272.719 82.6133 273.599 81.76C274.479 80.88 275.546 80.2133 276.799 79.76C278.053 79.28 279.453 79.04 280.999 79.04C281.879 79.04 282.826 79.16 283.839 79.4C284.879 79.64 285.853 80.04 286.759 80.6C287.186 80.8667 287.466 81.1867 287.599 81.56C287.733 81.9333 287.759 82.32 287.679 82.72C287.599 83.0933 287.426 83.4267 287.159 83.72C286.919 83.9867 286.613 84.16 286.239 84.24C285.866 84.2933 285.453 84.2 284.999 83.96C284.413 83.6133 283.813 83.36 283.199 83.2C282.586 83.0133 281.999 82.92 281.439 82.92C280.559 82.92 279.786 83.0667 279.119 83.36C278.453 83.6267 277.879 84.0267 277.399 84.56C276.946 85.0667 276.599 85.7067 276.359 86.48C276.119 87.2533 275.999 88.1467 275.999 89.16C275.999 91.1333 276.466 92.6933 277.399 93.84C278.359 94.96 279.706 95.52 281.439 95.52C281.999 95.52 282.573 95.44 283.159 95.28C283.773 95.12 284.386 94.8667 284.999 94.52C285.453 94.28 285.853 94.2 286.199 94.28C286.573 94.36 286.879 94.5467 287.119 94.84C287.359 95.1067 287.506 95.44 287.559 95.84C287.613 96.2133 287.559 96.5867 287.399 96.96C287.266 97.3333 286.999 97.64 286.599 97.88C285.719 98.4133 284.786 98.8 283.799 99.04C282.813 99.28 281.879 99.4 280.999 99.4ZM297.907 99.4C296.28 99.4 294.933 99.1067 293.867 98.52C292.8 97.9067 292 97 291.467 95.8C290.96 94.6 290.707 93.1067 290.707 91.32V81.64C290.707 80.7867 290.92 80.16 291.347 79.76C291.773 79.3333 292.387 79.12 293.187 79.12C293.987 79.12 294.6 79.3333 295.027 79.76C295.48 80.16 295.707 80.7867 295.707 81.64V91.4C295.707 92.7867 295.987 93.8133 296.547 94.48C297.107 95.1467 298 95.48 299.227 95.48C300.56 95.48 301.653 95.0267 302.507 94.12C303.36 93.1867 303.787 91.96 303.787 90.44V81.64C303.787 80.7867 304 80.16 304.427 79.76C304.853 79.3333 305.467 79.12 306.267 79.12C307.067 79.12 307.68 79.3333 308.107 79.76C308.56 80.16 308.787 80.7867 308.787 81.64V96.76C308.787 98.4667 307.973 99.32 306.347 99.32C305.573 99.32 304.973 99.1067 304.547 98.68C304.12 98.2267 303.907 97.5867 303.907 96.76V93.72L304.467 94.92C303.907 96.36 303.053 97.4667 301.907 98.24C300.787 99.0133 299.453 99.4 297.907 99.4ZM321.151 99.4C320.004 99.4 318.791 99.28 317.511 99.04C316.231 98.8 315.084 98.3867 314.071 97.8C313.644 97.5333 313.337 97.2267 313.151 96.88C312.991 96.5067 312.924 96.1467 312.951 95.8C313.004 95.4267 313.137 95.1067 313.351 94.84C313.591 94.5733 313.884 94.4 314.231 94.32C314.604 94.24 315.004 94.3067 315.431 94.52C316.497 95.0267 317.497 95.3867 318.431 95.6C319.364 95.7867 320.284 95.88 321.191 95.88C322.471 95.88 323.417 95.6667 324.031 95.24C324.671 94.7867 324.991 94.2 324.991 93.48C324.991 92.8667 324.777 92.4 324.351 92.08C323.951 91.7333 323.337 91.48 322.511 91.32L318.511 90.56C316.857 90.24 315.591 89.64 314.711 88.76C313.857 87.8533 313.431 86.6933 313.431 85.28C313.431 84 313.777 82.8933 314.471 81.96C315.191 81.0267 316.177 80.3067 317.431 79.8C318.684 79.2933 320.124 79.04 321.751 79.04C322.924 79.04 324.017 79.1733 325.031 79.44C326.071 79.68 327.071 80.0667 328.031 80.6C328.431 80.8133 328.697 81.0933 328.831 81.44C328.991 81.7867 329.031 82.1467 328.951 82.52C328.871 82.8667 328.711 83.1867 328.471 83.48C328.231 83.7467 327.924 83.92 327.551 84C327.204 84.0533 326.804 83.9733 326.351 83.76C325.524 83.3333 324.724 83.0267 323.951 82.84C323.204 82.6533 322.484 82.56 321.791 82.56C320.484 82.56 319.511 82.7867 318.871 83.24C318.257 83.6933 317.951 84.2933 317.951 85.04C317.951 85.6 318.137 86.0667 318.511 86.44C318.884 86.8133 319.457 87.0667 320.231 87.2L324.231 87.96C325.964 88.28 327.271 88.8667 328.151 89.72C329.057 90.5733 329.511 91.72 329.511 93.16C329.511 95.1067 328.751 96.64 327.231 97.76C325.711 98.8533 323.684 99.4 321.151 99.4ZM342.287 99.4C340.553 99.4 339.1 99.1067 337.927 98.52C336.78 97.9333 335.927 97.08 335.367 95.96C334.807 94.8133 334.527 93.4 334.527 91.72V83.2H332.447C331.807 83.2 331.313 83.04 330.967 82.72C330.62 82.3733 330.447 81.9067 330.447 81.32C330.447 80.7067 330.62 80.24 330.967 79.92C331.313 79.6 331.807 79.44 332.447 79.44H334.527V75.8C334.527 74.9733 334.74 74.3467 335.167 73.92C335.62 73.4933 336.247 73.28 337.047 73.28C337.847 73.28 338.46 73.4933 338.887 73.92C339.313 74.3467 339.527 74.9733 339.527 75.8V79.44H343.767C344.407 79.44 344.9 79.6 345.247 79.92C345.593 80.24 345.767 80.7067 345.767 81.32C345.767 81.9067 345.593 82.3733 345.247 82.72C344.9 83.04 344.407 83.2 343.767 83.2H339.527V91.44C339.527 92.72 339.807 93.68 340.367 94.32C340.927 94.96 341.833 95.28 343.087 95.28C343.54 95.28 343.94 95.24 344.287 95.16C344.633 95.08 344.94 95.0267 345.207 95C345.527 94.9733 345.793 95.08 346.007 95.32C346.22 95.5333 346.327 95.9867 346.327 96.68C346.327 97.2133 346.233 97.6933 346.047 98.12C345.887 98.52 345.58 98.8 345.127 98.96C344.78 99.0667 344.327 99.16 343.767 99.24C343.207 99.3467 342.713 99.4 342.287 99.4ZM357.403 99.4C355.376 99.4 353.616 98.9867 352.123 98.16C350.629 97.3333 349.469 96.16 348.643 94.64C347.816 93.0933 347.403 91.28 347.403 89.2C347.403 87.6267 347.629 86.2267 348.083 85C348.563 83.7467 349.243 82.68 350.123 81.8C351.003 80.8933 352.056 80.2133 353.283 79.76C354.509 79.28 355.883 79.04 357.403 79.04C359.429 79.04 361.189 79.4533 362.683 80.28C364.176 81.1067 365.336 82.28 366.163 83.8C366.989 85.32 367.403 87.12 367.403 89.2C367.403 90.7733 367.163 92.1867 366.683 93.44C366.229 94.6933 365.563 95.7733 364.683 96.68C363.803 97.56 362.749 98.24 361.523 98.72C360.296 99.1733 358.923 99.4 357.403 99.4ZM357.403 95.6C358.389 95.6 359.256 95.36 360.003 94.88C360.749 94.4 361.323 93.6933 361.723 92.76C362.149 91.8 362.363 90.6133 362.363 89.2C362.363 87.0667 361.909 85.48 361.003 84.44C360.096 83.3733 358.896 82.84 357.403 82.84C356.416 82.84 355.549 83.08 354.803 83.56C354.056 84.0133 353.469 84.72 353.043 85.68C352.643 86.6133 352.443 87.7867 352.443 89.2C352.443 91.3067 352.896 92.9067 353.803 94C354.709 95.0667 355.909 95.6 357.403 95.6ZM374.09 99.32C373.29 99.32 372.676 99.1067 372.25 98.68C371.823 98.2267 371.61 97.5867 371.61 96.76V81.64C371.61 80.8133 371.823 80.1867 372.25 79.76C372.676 79.3333 373.276 79.12 374.05 79.12C374.823 79.12 375.423 79.3333 375.85 79.76C376.276 80.1867 376.49 80.8133 376.49 81.64V84.56L376.05 83.36C376.583 82.0267 377.41 80.9733 378.53 80.2C379.65 79.4267 380.983 79.04 382.53 79.04C384.103 79.04 385.396 79.4133 386.41 80.16C387.423 80.9067 388.13 82.0533 388.53 83.6H387.97C388.503 82.1867 389.383 81.08 390.61 80.28C391.836 79.4533 393.25 79.04 394.85 79.04C396.343 79.04 397.57 79.3333 398.53 79.92C399.516 80.5067 400.25 81.4 400.73 82.6C401.21 83.7733 401.45 85.2667 401.45 87.08V96.76C401.45 97.5867 401.223 98.2267 400.77 98.68C400.343 99.1067 399.73 99.32 398.93 99.32C398.13 99.32 397.516 99.1067 397.09 98.68C396.663 98.2267 396.45 97.5867 396.45 96.76V87.28C396.45 85.7867 396.196 84.6933 395.69 84C395.21 83.3067 394.383 82.96 393.21 82.96C391.903 82.96 390.876 83.4267 390.13 84.36C389.383 85.2667 389.01 86.5333 389.01 88.16V96.76C389.01 97.5867 388.796 98.2267 388.37 98.68C387.943 99.1067 387.33 99.32 386.53 99.32C385.73 99.32 385.103 99.1067 384.65 98.68C384.223 98.2267 384.01 97.5867 384.01 96.76V87.28C384.01 85.7867 383.756 84.6933 383.25 84C382.77 83.3067 381.956 82.96 380.81 82.96C379.503 82.96 378.476 83.4267 377.73 84.36C376.983 85.2667 376.61 86.5333 376.61 88.16V96.76C376.61 98.4667 375.77 99.32 374.09 99.32ZM631.771 99C631.078 99 630.531 98.8133 630.131 98.44C629.758 98.04 629.571 97.5067 629.571 96.84C629.571 96.1467 629.758 95.6267 630.131 95.28C630.531 94.9333 631.078 94.76 631.771 94.76H636.251V75.12H638.731L632.851 78.68C632.345 78.9733 631.865 79.0933 631.411 79.04C630.985 78.96 630.611 78.7733 630.291 78.48C629.998 78.16 629.798 77.7867 629.691 77.36C629.585 76.9333 629.611 76.5067 629.771 76.08C629.958 75.6267 630.305 75.2533 630.811 74.96L636.331 71.64C636.865 71.32 637.398 71.0533 637.931 70.84C638.465 70.6 638.958 70.48 639.411 70.48C639.971 70.48 640.438 70.64 640.811 70.96C641.185 71.2533 641.371 71.7467 641.371 72.44V94.76H645.451C646.145 94.76 646.678 94.9333 647.051 95.28C647.451 95.6267 647.651 96.1467 647.651 96.84C647.651 97.5333 647.451 98.0667 647.051 98.44C646.678 98.8133 646.145 99 645.451 99H631.771ZM665.535 99.32C664.735 99.32 664.122 99.1067 663.695 98.68C663.268 98.2267 663.055 97.5867 663.055 96.76V81.64C663.055 80.8133 663.268 80.1867 663.695 79.76C664.122 79.3333 664.722 79.12 665.495 79.12C666.268 79.12 666.868 79.3333 667.295 79.76C667.722 80.1867 667.935 80.8133 667.935 81.64V84.56L667.495 83.36C668.028 82.0267 668.855 80.9733 669.975 80.2C671.095 79.4267 672.428 79.04 673.975 79.04C675.548 79.04 676.842 79.4133 677.855 80.16C678.868 80.9067 679.575 82.0533 679.975 83.6H679.415C679.948 82.1867 680.828 81.08 682.055 80.28C683.282 79.4533 684.695 79.04 686.295 79.04C687.788 79.04 689.015 79.3333 689.975 79.92C690.962 80.5067 691.695 81.4 692.175 82.6C692.655 83.7733 692.895 85.2667 692.895 87.08V96.76C692.895 97.5867 692.668 98.2267 692.215 98.68C691.788 99.1067 691.175 99.32 690.375 99.32C689.575 99.32 688.962 99.1067 688.535 98.68C688.108 98.2267 687.895 97.5867 687.895 96.76V87.28C687.895 85.7867 687.642 84.6933 687.135 84C686.655 83.3067 685.828 82.96 684.655 82.96C683.348 82.96 682.322 83.4267 681.575 84.36C680.828 85.2667 680.455 86.5333 680.455 88.16V96.76C680.455 97.5867 680.242 98.2267 679.815 98.68C679.388 99.1067 678.775 99.32 677.975 99.32C677.175 99.32 676.548 99.1067 676.095 98.68C675.668 98.2267 675.455 97.5867 675.455 96.76V87.28C675.455 85.7867 675.202 84.6933 674.695 84C674.215 83.3067 673.402 82.96 672.255 82.96C670.948 82.96 669.922 83.4267 669.175 84.36C668.428 85.2667 668.055 86.5333 668.055 88.16V96.76C668.055 98.4667 667.215 99.32 665.535 99.32ZM700.533 99.28C699.733 99.28 699.12 99.04 698.693 98.56C698.266 98.08 698.053 97.4133 698.053 96.56V81.88C698.053 81 698.266 80.3333 698.693 79.88C699.12 79.4 699.733 79.16 700.533 79.16C701.333 79.16 701.946 79.4 702.373 79.88C702.826 80.3333 703.053 81 703.053 81.88V96.56C703.053 97.4133 702.84 98.08 702.413 98.56C701.986 99.04 701.36 99.28 700.533 99.28ZM700.533 75.44C699.6 75.44 698.866 75.2133 698.333 74.76C697.826 74.28 697.573 73.6267 697.573 72.8C697.573 71.9467 697.826 71.2933 698.333 70.84C698.866 70.3867 699.6 70.16 700.533 70.16C701.493 70.16 702.226 70.3867 702.733 70.84C703.24 71.2933 703.493 71.9467 703.493 72.8C703.493 73.6267 703.24 74.28 702.733 74.76C702.226 75.2133 701.493 75.44 700.533 75.44ZM710.728 99.32C709.928 99.32 709.315 99.1067 708.888 98.68C708.462 98.2267 708.248 97.5867 708.248 96.76V81.64C708.248 80.8133 708.462 80.1867 708.888 79.76C709.315 79.3333 709.915 79.12 710.688 79.12C711.462 79.12 712.062 79.3333 712.488 79.76C712.915 80.1867 713.128 80.8133 713.128 81.64V84.36L712.688 83.36C713.275 81.9467 714.182 80.88 715.408 80.16C716.662 79.4133 718.075 79.04 719.648 79.04C721.222 79.04 722.515 79.3333 723.528 79.92C724.542 80.5067 725.302 81.4 725.808 82.6C726.315 83.7733 726.568 85.2667 726.568 87.08V96.76C726.568 97.5867 726.355 98.2267 725.928 98.68C725.502 99.1067 724.888 99.32 724.088 99.32C723.288 99.32 722.662 99.1067 722.208 98.68C721.782 98.2267 721.568 97.5867 721.568 96.76V87.32C721.568 85.8 721.275 84.6933 720.688 84C720.128 83.3067 719.248 82.96 718.048 82.96C716.582 82.96 715.408 83.4267 714.528 84.36C713.675 85.2667 713.248 86.48 713.248 88V96.76C713.248 98.4667 712.408 99.32 710.728 99.32ZM738.727 99.4C737.1 99.4 735.754 99.1067 734.687 98.52C733.62 97.9067 732.82 97 732.287 95.8C731.78 94.6 731.527 93.1067 731.527 91.32V81.64C731.527 80.7867 731.74 80.16 732.167 79.76C732.594 79.3333 733.207 79.12 734.007 79.12C734.807 79.12 735.42 79.3333 735.847 79.76C736.3 80.16 736.527 80.7867 736.527 81.64V91.4C736.527 92.7867 736.807 93.8133 737.367 94.48C737.927 95.1467 738.82 95.48 740.047 95.48C741.38 95.48 742.474 95.0267 743.327 94.12C744.18 93.1867 744.607 91.96 744.607 90.44V81.64C744.607 80.7867 744.82 80.16 745.247 79.76C745.674 79.3333 746.287 79.12 747.087 79.12C747.887 79.12 748.5 79.3333 748.927 79.76C749.38 80.16 749.607 80.7867 749.607 81.64V96.76C749.607 98.4667 748.794 99.32 747.167 99.32C746.394 99.32 745.794 99.1067 745.367 98.68C744.94 98.2267 744.727 97.5867 744.727 96.76V93.72L745.287 94.92C744.727 96.36 743.874 97.4667 742.727 98.24C741.607 99.0133 740.274 99.4 738.727 99.4ZM763.771 99.4C762.038 99.4 760.584 99.1067 759.411 98.52C758.264 97.9333 757.411 97.08 756.851 95.96C756.291 94.8133 756.011 93.4 756.011 91.72V83.2H753.931C753.291 83.2 752.798 83.04 752.451 82.72C752.104 82.3733 751.931 81.9067 751.931 81.32C751.931 80.7067 752.104 80.24 752.451 79.92C752.798 79.6 753.291 79.44 753.931 79.44H756.011V75.8C756.011 74.9733 756.224 74.3467 756.651 73.92C757.104 73.4933 757.731 73.28 758.531 73.28C759.331 73.28 759.944 73.4933 760.371 73.92C760.798 74.3467 761.011 74.9733 761.011 75.8V79.44H765.251C765.891 79.44 766.384 79.6 766.731 79.92C767.078 80.24 767.251 80.7067 767.251 81.32C767.251 81.9067 767.078 82.3733 766.731 82.72C766.384 83.04 765.891 83.2 765.251 83.2H761.011V91.44C761.011 92.72 761.291 93.68 761.851 94.32C762.411 94.96 763.318 95.28 764.571 95.28C765.024 95.28 765.424 95.24 765.771 95.16C766.118 95.08 766.424 95.0267 766.691 95C767.011 94.9733 767.278 95.08 767.491 95.32C767.704 95.5333 767.811 95.9867 767.811 96.68C767.811 97.2133 767.718 97.6933 767.531 98.12C767.371 98.52 767.064 98.8 766.611 98.96C766.264 99.0667 765.811 99.16 765.251 99.24C764.691 99.3467 764.198 99.4 763.771 99.4ZM779.607 99.4C777.394 99.4 775.487 98.9867 773.887 98.16C772.287 97.3333 771.047 96.16 770.167 94.64C769.314 93.12 768.887 91.32 768.887 89.24C768.887 87.2133 769.301 85.44 770.127 83.92C770.981 82.4 772.141 81.2133 773.607 80.36C775.101 79.48 776.794 79.04 778.687 79.04C780.074 79.04 781.314 79.2667 782.407 79.72C783.527 80.1733 784.474 80.8267 785.247 81.68C786.047 82.5333 786.647 83.5733 787.047 84.8C787.474 86 787.687 87.36 787.687 88.88C787.687 89.36 787.514 89.7333 787.167 90C786.847 90.24 786.381 90.36 785.767 90.36H772.927V87.48H784.167L783.527 88.08C783.527 86.8533 783.341 85.8267 782.967 85C782.621 84.1733 782.101 83.5467 781.407 83.12C780.741 82.6667 779.901 82.44 778.887 82.44C777.767 82.44 776.807 82.7067 776.007 83.24C775.234 83.7467 774.634 84.48 774.207 85.44C773.807 86.3733 773.607 87.4933 773.607 88.8V89.08C773.607 91.2667 774.114 92.9067 775.127 94C776.167 95.0667 777.687 95.6 779.687 95.6C780.381 95.6 781.154 95.52 782.007 95.36C782.887 95.1733 783.714 94.8667 784.487 94.44C785.047 94.12 785.541 93.9867 785.967 94.04C786.394 94.0667 786.727 94.2133 786.967 94.48C787.234 94.7467 787.394 95.08 787.447 95.48C787.501 95.8533 787.421 96.24 787.207 96.64C787.021 97.04 786.687 97.3867 786.207 97.68C785.274 98.2667 784.194 98.7067 782.967 99C781.767 99.2667 780.647 99.4 779.607 99.4Z" fill="#4E30D2"/>
<path d="M285 172C285 167.582 288.582 164 293 164H559C563.418 164 567 167.582 567 172V212C567 216.418 563.418 220 559 220H293C288.582 220 285 216.418 285 212V172Z" fill="#6444F4"/>
<path d="M346.72 199.16C346.307 199.16 345.987 199.047 345.76 198.82C345.547 198.58 345.44 198.253 345.44 197.84V187.04H341.54C341.193 187.04 340.92 186.947 340.72 186.76C340.533 186.56 340.44 186.293 340.44 185.96C340.44 185.613 340.533 185.353 340.72 185.18C340.92 184.993 341.193 184.9 341.54 184.9H351.9C352.247 184.9 352.513 184.993 352.7 185.18C352.9 185.353 353 185.613 353 185.96C353 186.293 352.9 186.56 352.7 186.76C352.513 186.947 352.247 187.04 351.9 187.04H348V197.84C348 198.253 347.893 198.58 347.68 198.82C347.467 199.047 347.147 199.16 346.72 199.16ZM355.742 199.16C355.329 199.16 355.009 199.047 354.782 198.82C354.569 198.58 354.462 198.253 354.462 197.84V186.2C354.462 185.773 354.575 185.453 354.802 185.24C355.029 185.013 355.349 184.9 355.762 184.9H360.582C362.129 184.9 363.322 185.273 364.162 186.02C365.002 186.753 365.422 187.787 365.422 189.12C365.422 189.987 365.229 190.733 364.842 191.36C364.469 191.987 363.922 192.467 363.202 192.8C362.482 193.133 361.609 193.3 360.582 193.3L360.762 193H361.422C361.969 193 362.442 193.133 362.842 193.4C363.255 193.667 363.615 194.087 363.922 194.66L365.422 197.44C365.582 197.72 365.655 197.993 365.642 198.26C365.629 198.527 365.529 198.747 365.342 198.92C365.155 199.08 364.882 199.16 364.522 199.16C364.162 199.16 363.869 199.087 363.642 198.94C363.415 198.78 363.215 198.54 363.042 198.22L361.022 194.5C360.782 194.047 360.495 193.747 360.162 193.6C359.842 193.44 359.429 193.36 358.922 193.36H357.022V197.84C357.022 198.253 356.915 198.58 356.702 198.82C356.489 199.047 356.169 199.16 355.742 199.16ZM357.022 191.46H360.142C361.062 191.46 361.755 191.273 362.222 190.9C362.702 190.513 362.942 189.94 362.942 189.18C362.942 188.433 362.702 187.873 362.222 187.5C361.755 187.113 361.062 186.92 360.142 186.92H357.022V191.46ZM372.657 199.16C372.243 199.16 371.923 199.047 371.697 198.82C371.483 198.58 371.377 198.247 371.377 197.82V191.74L371.917 193.28L367.097 186.5C366.923 186.26 366.843 186.007 366.857 185.74C366.883 185.46 366.997 185.227 367.197 185.04C367.397 184.84 367.677 184.74 368.037 184.74C368.303 184.74 368.543 184.807 368.757 184.94C368.983 185.073 369.197 185.28 369.397 185.56L372.977 190.64H372.417L376.017 185.56C376.23 185.267 376.437 185.06 376.637 184.94C376.837 184.807 377.083 184.74 377.377 184.74C377.723 184.74 377.99 184.833 378.177 185.02C378.377 185.193 378.477 185.413 378.477 185.68C378.49 185.947 378.397 186.227 378.197 186.52L373.417 193.28L373.937 191.74V197.82C373.937 198.713 373.51 199.16 372.657 199.16ZM387.13 199.16C386.716 199.16 386.39 199.047 386.15 198.82C385.923 198.58 385.81 198.24 385.81 197.8V186.26C385.81 185.82 385.923 185.487 386.15 185.26C386.39 185.02 386.73 184.9 387.17 184.9H394.15C394.496 184.9 394.756 184.987 394.93 185.16C395.103 185.333 395.19 185.58 395.19 185.9C395.19 186.233 395.103 186.493 394.93 186.68C394.756 186.853 394.496 186.94 394.15 186.94H388.37V190.92H393.73C394.063 190.92 394.316 191.007 394.49 191.18C394.676 191.353 394.77 191.6 394.77 191.92C394.77 192.253 394.676 192.513 394.49 192.7C394.316 192.873 394.063 192.96 393.73 192.96H388.37V197.8C388.37 198.707 387.956 199.16 387.13 199.16ZM403.106 199.2C401.746 199.2 400.553 198.9 399.526 198.3C398.513 197.7 397.726 196.86 397.166 195.78C396.606 194.687 396.326 193.407 396.326 191.94C396.326 190.833 396.486 189.84 396.806 188.96C397.126 188.067 397.579 187.307 398.166 186.68C398.766 186.04 399.479 185.553 400.306 185.22C401.146 184.873 402.079 184.7 403.106 184.7C404.479 184.7 405.673 185 406.686 185.6C407.699 186.187 408.486 187.02 409.046 188.1C409.606 189.18 409.886 190.453 409.886 191.92C409.886 193.027 409.726 194.027 409.406 194.92C409.086 195.813 408.626 196.58 408.026 197.22C407.439 197.86 406.726 198.353 405.886 198.7C405.059 199.033 404.133 199.2 403.106 199.2ZM403.106 197C403.973 197 404.706 196.8 405.306 196.4C405.919 196 406.386 195.42 406.706 194.66C407.039 193.9 407.206 192.993 407.206 191.94C407.206 190.34 406.846 189.1 406.126 188.22C405.419 187.34 404.413 186.9 403.106 186.9C402.253 186.9 401.519 187.1 400.906 187.5C400.293 187.887 399.819 188.46 399.486 189.22C399.166 189.967 399.006 190.873 399.006 191.94C399.006 193.527 399.366 194.767 400.086 195.66C400.806 196.553 401.813 197 403.106 197ZM413.769 199.16C413.356 199.16 413.036 199.047 412.809 198.82C412.596 198.58 412.489 198.253 412.489 197.84V186.2C412.489 185.773 412.603 185.453 412.829 185.24C413.056 185.013 413.376 184.9 413.789 184.9H418.609C420.156 184.9 421.349 185.273 422.189 186.02C423.029 186.753 423.449 187.787 423.449 189.12C423.449 189.987 423.256 190.733 422.869 191.36C422.496 191.987 421.949 192.467 421.229 192.8C420.509 193.133 419.636 193.3 418.609 193.3L418.789 193H419.449C419.996 193 420.469 193.133 420.869 193.4C421.283 193.667 421.643 194.087 421.949 194.66L423.449 197.44C423.609 197.72 423.683 197.993 423.669 198.26C423.656 198.527 423.556 198.747 423.369 198.92C423.183 199.08 422.909 199.16 422.549 199.16C422.189 199.16 421.896 199.087 421.669 198.94C421.443 198.78 421.243 198.54 421.069 198.22L419.049 194.5C418.809 194.047 418.523 193.747 418.189 193.6C417.869 193.44 417.456 193.36 416.949 193.36H415.049V197.84C415.049 198.253 414.943 198.58 414.729 198.82C414.516 199.047 414.196 199.16 413.769 199.16ZM415.049 191.46H418.169C419.089 191.46 419.783 191.273 420.249 190.9C420.729 190.513 420.969 189.94 420.969 189.18C420.969 188.433 420.729 187.873 420.249 187.5C419.783 187.113 419.089 186.92 418.169 186.92H415.049V191.46ZM432.95 199.16C432.537 199.16 432.21 199.047 431.97 198.82C431.743 198.58 431.63 198.24 431.63 197.8V186.26C431.63 185.82 431.743 185.487 431.97 185.26C432.21 185.02 432.55 184.9 432.99 184.9H439.97C440.317 184.9 440.577 184.987 440.75 185.16C440.923 185.333 441.01 185.58 441.01 185.9C441.01 186.233 440.923 186.493 440.75 186.68C440.577 186.853 440.317 186.94 439.97 186.94H434.19V190.92H439.55C439.883 190.92 440.137 191.007 440.31 191.18C440.497 191.353 440.59 191.6 440.59 191.92C440.59 192.253 440.497 192.513 440.31 192.7C440.137 192.873 439.883 192.96 439.55 192.96H434.19V197.8C434.19 198.707 433.777 199.16 432.95 199.16ZM444.14 199.16C443.727 199.16 443.407 199.047 443.18 198.82C442.967 198.58 442.86 198.253 442.86 197.84V186.2C442.86 185.773 442.974 185.453 443.2 185.24C443.427 185.013 443.747 184.9 444.16 184.9H448.98C450.527 184.9 451.72 185.273 452.56 186.02C453.4 186.753 453.82 187.787 453.82 189.12C453.82 189.987 453.627 190.733 453.24 191.36C452.867 191.987 452.32 192.467 451.6 192.8C450.88 193.133 450.007 193.3 448.98 193.3L449.16 193H449.82C450.367 193 450.84 193.133 451.24 193.4C451.654 193.667 452.014 194.087 452.32 194.66L453.82 197.44C453.98 197.72 454.054 197.993 454.04 198.26C454.027 198.527 453.927 198.747 453.74 198.92C453.554 199.08 453.28 199.16 452.92 199.16C452.56 199.16 452.267 199.087 452.04 198.94C451.814 198.78 451.614 198.54 451.44 198.22L449.42 194.5C449.18 194.047 448.894 193.747 448.56 193.6C448.24 193.44 447.827 193.36 447.32 193.36H445.42V197.84C445.42 198.253 445.314 198.58 445.1 198.82C444.887 199.047 444.567 199.16 444.14 199.16ZM445.42 191.46H448.54C449.46 191.46 450.154 191.273 450.62 190.9C451.1 190.513 451.34 189.94 451.34 189.18C451.34 188.433 451.1 187.873 450.62 187.5C450.154 187.113 449.46 186.92 448.54 186.92H445.42V191.46ZM457.931 199C457.491 199 457.151 198.887 456.911 198.66C456.685 198.42 456.571 198.08 456.571 197.64V186.26C456.571 185.82 456.685 185.487 456.911 185.26C457.151 185.02 457.491 184.9 457.931 184.9H465.071C465.405 184.9 465.658 184.987 465.831 185.16C466.018 185.333 466.111 185.58 466.111 185.9C466.111 186.233 466.018 186.493 465.831 186.68C465.658 186.853 465.405 186.94 465.071 186.94H459.031V190.82H464.631C464.978 190.82 465.238 190.907 465.411 191.08C465.585 191.253 465.671 191.507 465.671 191.84C465.671 192.173 465.585 192.427 465.411 192.6C465.238 192.773 464.978 192.86 464.631 192.86H459.031V196.96H465.071C465.405 196.96 465.658 197.047 465.831 197.22C466.018 197.393 466.111 197.647 466.111 197.98C466.111 198.313 466.018 198.567 465.831 198.74C465.658 198.913 465.405 199 465.071 199H457.931ZM469.865 199C469.425 199 469.085 198.887 468.845 198.66C468.618 198.42 468.505 198.08 468.505 197.64V186.26C468.505 185.82 468.618 185.487 468.845 185.26C469.085 185.02 469.425 184.9 469.865 184.9H477.005C477.338 184.9 477.592 184.987 477.765 185.16C477.952 185.333 478.045 185.58 478.045 185.9C478.045 186.233 477.952 186.493 477.765 186.68C477.592 186.853 477.338 186.94 477.005 186.94H470.965V190.82H476.565C476.912 190.82 477.172 190.907 477.345 191.08C477.518 191.253 477.605 191.507 477.605 191.84C477.605 192.173 477.518 192.427 477.345 192.6C477.172 192.773 476.912 192.86 476.565 192.86H470.965V196.96H477.005C477.338 196.96 477.592 197.047 477.765 197.22C477.952 197.393 478.045 197.647 478.045 197.98C478.045 198.313 477.952 198.567 477.765 198.74C477.592 198.913 477.338 199 477.005 199H469.865Z" fill="#FEFDFF"/>
<path fill-rule="evenodd" clip-rule="evenodd" d="M495.793 199.707C495.402 199.317 495.402 198.683 495.793 198.293L502.086 192L495.793 185.707C495.402 185.317 495.402 184.683 495.793 184.293C496.183 183.902 496.817 183.902 497.207 184.293L504.207 191.293C504.598 191.683 504.598 192.317 504.207 192.707L497.207 199.707C496.817 200.098 496.183 200.098 495.793 199.707Z" fill="#FEFDFF"/>
</g>
<defs>
<filter id="filter0_b_6491_21083" x="-45.7709" y="-45.7709" width="943.542" height="367.542" filterUnits="userSpaceOnUse" color-interpolation-filters="sRGB">
<feFlood flood-opacity="0" result="BackgroundImageFix"/>
<feGaussianBlur in="BackgroundImageFix" stdDeviation="22.8855"/>
<feComposite in2="SourceAlpha" operator="in" result="effect1_backgroundBlur_6491_21083"/>
<feBlend mode="normal" in="SourceGraphic" in2="effect1_backgroundBlur_6491_21083" result="shape"/>
</filter>
<linearGradient id="paint0_linear_6491_21083" x1="426" y1="0" x2="426" y2="189.155" gradientUnits="userSpaceOnUse">
<stop stop-color="white"/>
<stop offset="1" stop-color="white" stop-opacity="0.5"/>
</linearGradient>
</defs>
</svg>
