<svg width="1375" height="1054" viewBox="0 0 1375 1054" fill="none" xmlns="http://www.w3.org/2000/svg">
<g opacity="0.6">
<g opacity="0.8" filter="url(#filter0_f_6491_21066)">
<ellipse cx="933.107" cy="603.504" rx="314.336" ry="308.443" transform="rotate(-16.6036 933.107 603.504)" fill="#AC9AFF"/>
</g>
<g opacity="0.8" filter="url(#filter1_f_6491_21066)">
<ellipse cx="466.765" cy="689.566" rx="334.244" ry="219.108" transform="rotate(-13.3336 466.765 689.566)" fill="#5EFFC1"/>
</g>
<g opacity="0.8" filter="url(#filter2_f_6491_21066)">
<ellipse cx="617.457" cy="532.439" rx="179.687" ry="219.108" transform="rotate(65.3315 617.457 532.439)" fill="#F0ECFF"/>
</g>
<g opacity="0.8" filter="url(#filter3_f_6491_21066)">
<path d="M918.097 576.076C753.852 589.922 612.469 503.451 602.31 382.937C592.15 262.423 717.061 153.503 881.306 139.657C1045.55 125.811 1186.93 212.283 1197.09 332.797C1207.25 453.31 1082.34 562.23 918.097 576.076Z" fill="#8BFFD2"/>
</g>
<g opacity="0.8" filter="url(#filter4_f_6491_21066)">
<ellipse cx="416.744" cy="414.748" rx="262.237" ry="236.65" transform="rotate(-13.3336 416.744 414.748)" fill="#AC9AFF"/>
</g>
<path opacity="0.5" fill-rule="evenodd" clip-rule="evenodd" d="M622.819 218H618.298V236.11H577.603V218H573.081V236.11H532.386V218H527.864V236.11H487.169V218H482.648V236.11H441.953V218H437.431V236.11H396.736V218H392.214V236.11H351.519V218H346.998V236.11H306.303V218H301.781V236.11H261.086V218H256.564V236.11H215.869V218H211.348V236.11H191V240.135H211.348V276.355H191V280.38H211.348V316.6H191V320.624H211.348V356.845H191V360.869H211.348V397.089H191V401.114H211.348V437.334H191V441.358H211.348V477.579H191V481.603H211.348V517.823H191V521.848H211.348V558.068H191V562.093H211.348V598.313H191V602.337H211.348V620.448H215.869V602.337H256.564V620.448H261.086V602.337H301.781V620.448H306.303V602.337H346.998V620.448H351.519V602.337H392.214V620.448H396.736V602.337H437.431V620.448H441.953V602.337H482.648V620.448H487.169V602.337H527.864V620.448H532.386V602.337H573.081V620.448H577.603V602.337H618.298V620.448H622.819V602.337H643.167V598.313H622.819V562.093H643.167V558.068H622.819V521.848H643.167V517.823H622.819V481.603H643.167V477.579H622.819V441.358H643.167V437.334H622.819V401.114H643.167V397.089H622.819V360.869H643.167V356.845H622.819V320.624H643.167V316.6H622.819V280.38H643.167V276.355H622.819V240.135H643.167V236.11H622.819V218ZM577.603 276.355H618.298V240.135H577.603V276.355ZM577.603 316.6H618.298V280.38H577.603V316.6ZM577.603 356.845H618.298V320.624H577.603V356.845ZM577.603 397.089H618.298V360.869H577.603V397.089ZM577.603 437.334H618.298V401.114H577.603V437.334ZM577.603 477.579H618.298V441.358H577.603V477.579ZM577.603 517.823H618.298V481.603H577.603V517.823ZM577.603 558.068H618.298V521.848H577.603V558.068ZM577.603 598.313H618.298V562.093H577.603V598.313ZM256.564 562.093H215.869V598.313H256.564V562.093ZM256.564 521.848H215.869V558.068H256.564V521.848ZM256.564 481.603H215.869V517.823H256.564V481.603ZM256.564 441.358H215.869V477.579H256.564V441.358ZM256.564 401.114H215.869V437.334H256.564V401.114ZM256.564 360.869H215.869V397.089H256.564V360.869ZM256.564 320.624H215.869V356.845H256.564V320.624ZM256.564 280.38H215.869V316.6H256.564V280.38ZM256.564 240.135H215.869V276.355H256.564V240.135ZM532.386 276.355H573.081V240.135H532.386V276.355ZM532.386 316.6H573.081V280.38H532.386V316.6ZM532.386 356.845H573.081V320.624H532.386V356.845ZM532.386 397.089H573.081V360.869H532.386V397.089ZM532.386 437.334H573.081V401.114H532.386V437.334ZM532.386 477.579H573.081V441.358H532.386V477.579ZM532.386 517.823H573.081V481.603H532.386V517.823ZM532.386 558.068H573.081V521.848H532.386V558.068ZM301.781 521.848H261.086V558.068H301.781V521.848ZM301.781 481.603H261.086V517.823H301.781V481.603ZM301.781 441.358H261.086V477.579H301.781V441.358ZM301.781 401.114H261.086V437.334H301.781V401.114ZM301.781 360.869H261.086V397.089H301.781V360.869ZM301.781 320.624H261.086V356.845H301.781V320.624ZM301.781 280.38H261.086V316.6H301.781V280.38ZM487.169 316.6H527.864V280.38H487.169V316.6ZM487.169 356.845H527.864V320.624H487.169V356.845ZM487.169 397.089H527.864V360.869H487.169V397.089ZM487.169 437.334H527.864V401.114H487.169V437.334ZM487.169 477.579H527.864V441.358H487.169V477.579ZM487.169 517.823H527.864V481.603H487.169V517.823ZM346.998 481.603H306.303V517.823H346.998V481.603ZM346.998 441.358H306.303V477.579H346.998V441.358ZM346.998 401.114H306.303V437.334H346.998V401.114ZM346.998 360.869H306.303V397.089H346.998V360.869ZM346.998 320.624H306.303V356.845H346.998V320.624ZM441.953 356.845H482.648V320.624H441.953V356.845ZM441.953 397.089H482.648V360.869H441.953V397.089ZM441.953 437.334H482.648V401.114H441.953V437.334ZM441.953 477.579H482.648V441.358H441.953V477.579ZM392.214 441.358H351.519V477.579H392.214V441.358ZM392.214 401.114H351.519V437.334H392.214V401.114ZM392.214 360.869H351.519V397.089H392.214V360.869ZM396.736 397.089H437.431V360.869H396.736V397.089ZM396.736 437.334H437.431V401.114H396.736V437.334ZM437.431 441.358H396.736V477.579H437.431V441.358ZM396.736 356.845H437.431V320.624H396.736V356.845ZM351.519 356.845H392.214V320.624H351.519V356.845ZM392.214 481.603H351.519V517.823H392.214V481.603ZM437.431 481.603H396.736V517.823H437.431V481.603ZM482.648 481.603H441.953V517.823H482.648V481.603ZM441.953 316.6H482.648V280.38H441.953V316.6ZM396.736 316.6H437.431V280.38H396.736V316.6ZM351.519 316.6H392.214V280.38H351.519V316.6ZM306.303 316.6H346.998V280.38H306.303V316.6ZM346.998 521.848H306.303V558.068H346.998V521.848ZM392.214 521.848H351.519V558.068H392.214V521.848ZM437.431 521.848H396.736V558.068H437.431V521.848ZM482.648 521.848H441.953V558.068H482.648V521.848ZM527.864 521.848H487.169V558.068H527.864V521.848ZM487.169 276.355H527.864V240.135H487.169V276.355ZM441.953 276.355H482.648V240.135H441.953V276.355ZM396.736 276.355H437.431V240.135H396.736V276.355ZM351.519 276.355H392.214V240.135H351.519V276.355ZM306.303 276.355H346.998V240.135H306.303V276.355ZM261.086 276.355H301.781V240.135H261.086V276.355ZM301.781 562.093H261.086V598.313H301.781V562.093ZM346.998 562.093H306.303V598.313H346.998V562.093ZM392.214 562.093H351.519V598.313H392.214V562.093ZM437.431 562.093H396.736V598.313H437.431V562.093ZM482.648 562.093H441.953V598.313H482.648V562.093ZM527.864 562.093H487.169V598.313H527.864V562.093ZM573.081 562.093H532.386V598.313H573.081V562.093Z" fill="url(#paint0_radial_6491_21066)"/>
<path opacity="0.5" fill-rule="evenodd" clip-rule="evenodd" d="M1135.64 448.077H1130.73V467.749H1086.49V448.077H1081.57V467.749H1037.33V448.077H1032.41V467.749H988.173V448.077H983.257V467.749H939.016V448.077H934.1V467.749H889.859V448.077H884.944V467.749H840.703V448.077H835.787V467.749H791.546V448.077H786.63V467.749H742.389V448.077H737.474V467.749H693.232V448.077H688.317V467.749H666.196V472.12H688.317V511.464H666.196V515.836H688.317V555.18H666.196V559.552H688.317V598.896H666.196V603.267H688.317V642.612H666.196V646.983H688.317V686.327H666.196V690.699H688.317V730.043H666.196V734.415H688.317V773.759H666.196V778.13H688.317V817.474H666.196V821.846H688.317V861.19H666.196V865.562H688.317V885.234H693.232V865.562H737.474V885.234H742.389V865.562H786.63V885.234H791.546V865.562H835.787V885.234H840.703V865.562H884.944V885.234H889.859V865.562H934.1V885.234H939.016V865.562H983.257V885.234H988.173V865.562H1032.41V885.234H1037.33V865.562H1081.57V885.234H1086.49V865.562H1130.73V885.234H1135.64V865.562H1157.76V861.19H1135.64V821.846H1157.76V817.474H1135.64V778.13H1157.76V773.759H1135.64V734.415H1157.76V730.043H1135.64V690.699H1157.76V686.327H1135.64V646.983H1157.76V642.612H1135.64V603.267H1157.76V598.896H1135.64V559.552H1157.76V555.18H1135.64V515.836H1157.76V511.464H1135.64V472.12H1157.76V467.749H1135.64V448.077ZM1086.49 511.464H1130.73V472.12H1086.49V511.464ZM1086.49 555.18H1130.73V515.836H1086.49V555.18ZM1086.49 598.896H1130.73V559.552H1086.49V598.896ZM1086.49 642.612H1130.73V603.267H1086.49V642.612ZM1086.49 686.327H1130.73V646.983H1086.49V686.327ZM1086.49 730.043H1130.73V690.699H1086.49V730.043ZM1086.49 773.759H1130.73V734.415H1086.49V773.759ZM1086.49 817.474H1130.73V778.13H1086.49V817.474ZM1086.49 861.19H1130.73V821.846H1086.49V861.19ZM737.474 821.846H693.232V861.19H737.474V821.846ZM737.474 778.13H693.232V817.474H737.474V778.13ZM737.474 734.415H693.232V773.759H737.474V734.415ZM737.474 690.699H693.232V730.043H737.474V690.699ZM737.474 646.983H693.232V686.327H737.474V646.983ZM737.474 603.267H693.232V642.612H737.474V603.267ZM737.474 559.552H693.232V598.896H737.474V559.552ZM737.474 515.836H693.232V555.18H737.474V515.836ZM737.474 472.12H693.232V511.464H737.474V472.12ZM1037.33 511.464H1081.57V472.12H1037.33V511.464ZM1037.33 555.18H1081.57V515.836H1037.33V555.18ZM1037.33 598.896H1081.57V559.552H1037.33V598.896ZM1037.33 642.612H1081.57V603.267H1037.33V642.612ZM1037.33 686.327H1081.57V646.983H1037.33V686.327ZM1037.33 730.043H1081.57V690.699H1037.33V730.043ZM1037.33 773.759H1081.57V734.415H1037.33V773.759ZM1037.33 817.474H1081.57V778.13H1037.33V817.474ZM786.63 778.13H742.389V817.474H786.63V778.13ZM786.63 734.415H742.389V773.759H786.63V734.415ZM786.63 690.699H742.389V730.043H786.63V690.699ZM786.63 646.983H742.389V686.327H786.63V646.983ZM786.63 603.267H742.389V642.612H786.63V603.267ZM786.63 559.552H742.389V598.896H786.63V559.552ZM786.63 515.836H742.389V555.18H786.63V515.836ZM988.173 555.18H1032.41V515.836H988.173V555.18ZM988.173 598.896H1032.41V559.552H988.173V598.896ZM988.173 642.612H1032.41V603.267H988.173V642.612ZM988.173 686.327H1032.41V646.983H988.173V686.327ZM988.173 730.043H1032.41V690.699H988.173V730.043ZM988.173 773.759H1032.41V734.415H988.173V773.759ZM835.787 734.415H791.546V773.759H835.787V734.415ZM835.787 690.699H791.546V730.043H835.787V690.699ZM835.787 646.983H791.546V686.327H835.787V646.983ZM835.787 603.267H791.546V642.612H835.787V603.267ZM835.787 559.552H791.546V598.896H835.787V559.552ZM939.016 598.896H983.257V559.552H939.016V598.896ZM939.016 642.612H983.257V603.267H939.016V642.612ZM939.016 686.327H983.257V646.983H939.016V686.327ZM939.016 730.043H983.257V690.699H939.016V730.043ZM884.944 690.699H840.703V730.043H884.944V690.699ZM884.944 646.983H840.703V686.327H884.944V646.983ZM884.944 603.267H840.703V642.612H884.944V603.267ZM889.859 642.612H934.1V603.267H889.859V642.612ZM889.859 686.327H934.1V646.983H889.859V686.327ZM934.1 690.699H889.859V730.043H934.1V690.699ZM889.859 598.896H934.1V559.552H889.859V598.896ZM840.703 598.896H884.944V559.552H840.703V598.896ZM884.944 734.415H840.703V773.759H884.944V734.415ZM934.1 734.415H889.859V773.759H934.1V734.415ZM983.257 734.415H939.016V773.759H983.257V734.415ZM939.016 555.18H983.257V515.836H939.016V555.18ZM889.859 555.18H934.1V515.836H889.859V555.18ZM840.703 555.18H884.944V515.836H840.703V555.18ZM791.546 555.18H835.787V515.836H791.546V555.18ZM835.787 778.13H791.546V817.474H835.787V778.13ZM884.944 778.13H840.703V817.474H884.944V778.13ZM934.1 778.13H889.859V817.474H934.1V778.13ZM983.257 778.13H939.016V817.474H983.257V778.13ZM1032.41 778.13H988.173V817.474H1032.41V778.13ZM988.173 511.464H1032.41V472.12H988.173V511.464ZM939.016 511.464H983.257V472.12H939.016V511.464ZM889.859 511.464H934.1V472.12H889.859V511.464ZM840.703 511.464H884.944V472.12H840.703V511.464ZM791.546 511.464H835.787V472.12H791.546V511.464ZM742.389 511.464H786.63V472.12H742.389V511.464ZM786.63 821.846H742.389V861.19H786.63V821.846ZM835.787 821.846H791.546V861.19H835.787V821.846ZM884.944 821.846H840.703V861.19H884.944V821.846ZM934.1 821.846H889.859V861.19H934.1V821.846ZM983.257 821.846H939.016V861.19H983.257V821.846ZM1032.41 821.846H988.173V861.19H1032.41V821.846ZM1081.57 821.846H1037.33V861.19H1081.57V821.846Z" fill="url(#paint1_radial_6491_21066)"/>
<path opacity="0.5" fill-rule="evenodd" clip-rule="evenodd" d="M614.036 518.794H609.355V537.537H567.225V518.794H562.544V537.537H520.413V518.794H515.732V537.537H473.602V518.794H468.921V537.537H426.79V518.794H422.109V537.537H379.979V518.794H375.298V537.537H333.168V518.794H328.486V537.537H286.356V518.794H281.675V537.537H239.545V518.794H234.863V537.537H192.733V518.794H188.052V537.537H166.987V541.702H188.052V579.189H166.987V583.354H188.052V620.841H166.987V625.006H188.052V662.493H166.987V666.658H188.052V704.145H166.987V708.31H188.052V745.797H166.987V749.962H188.052V787.449H166.987V791.614H188.052V829.1H166.987V833.266H188.052V870.752H166.987V874.918H188.052V912.404H166.987V916.569H188.052V935.313H192.733V916.569H234.863V935.313H239.545V916.569H281.675V935.313H286.356V916.569H328.486V935.313H333.168V916.569H375.298V935.313H379.979V916.569H422.109V935.313H426.79V916.569H468.921V935.313H473.602V916.569H515.732V935.313H520.413V916.569H562.544V935.313H567.225V916.569H609.355V935.313H614.036V916.569H635.101V912.404H614.036V874.918H635.101V870.752H614.036V833.266H635.101V829.1H614.036V791.614H635.101V787.449H614.036V749.962H635.101V745.797H614.036V708.31H635.101V704.145H614.036V666.658H635.101V662.493H614.036V625.006H635.101V620.841H614.036V583.354H635.101V579.189H614.036V541.702H635.101V537.537H614.036V518.794ZM567.225 579.189H609.355V541.702H567.225V579.189ZM567.225 620.841H609.355V583.354H567.225V620.841ZM567.225 662.493H609.355V625.006H567.225V662.493ZM567.225 704.145H609.355V666.658H567.225V704.145ZM567.225 745.797H609.355V708.31H567.225V745.797ZM567.225 787.449H609.355V749.962H567.225V787.449ZM567.225 829.1H609.355V791.614H567.225V829.1ZM567.225 870.752H609.355V833.266H567.225V870.752ZM567.225 912.404H609.355V874.918H567.225V912.404ZM234.863 874.918H192.733V912.404H234.863V874.918ZM234.863 833.266H192.733V870.752H234.863V833.266ZM234.863 791.614H192.733V829.1H234.863V791.614ZM234.863 749.962H192.733V787.449H234.863V749.962ZM234.863 708.31H192.733V745.797H234.863V708.31ZM234.863 666.658H192.733V704.145H234.863V666.658ZM234.863 625.006H192.733V662.493H234.863V625.006ZM234.863 583.354H192.733V620.841H234.863V583.354ZM234.863 541.702H192.733V579.189H234.863V541.702ZM520.413 579.189H562.544V541.702H520.413V579.189ZM520.413 620.841H562.544V583.354H520.413V620.841ZM520.413 662.493H562.544V625.006H520.413V662.493ZM520.413 704.145H562.544V666.658H520.413V704.145ZM520.413 745.797H562.544V708.31H520.413V745.797ZM520.413 787.449H562.544V749.962H520.413V787.449ZM520.413 829.1H562.544V791.614H520.413V829.1ZM520.413 870.752H562.544V833.266H520.413V870.752ZM281.675 833.266H239.545V870.752H281.675V833.266ZM281.675 791.614H239.545V829.1H281.675V791.614ZM281.675 749.962H239.545V787.449H281.675V749.962ZM281.675 708.31H239.545V745.797H281.675V708.31ZM281.675 666.658H239.545V704.145H281.675V666.658ZM281.675 625.006H239.545V662.493H281.675V625.006ZM281.675 583.354H239.545V620.841H281.675V583.354ZM473.602 620.841H515.732V583.354H473.602V620.841ZM473.602 662.493H515.732V625.006H473.602V662.493ZM473.602 704.145H515.732V666.658H473.602V704.145ZM473.602 745.797H515.732V708.31H473.602V745.797ZM473.602 787.449H515.732V749.962H473.602V787.449ZM473.602 829.1H515.732V791.614H473.602V829.1ZM328.486 791.614H286.356V829.1H328.486V791.614ZM328.486 749.962H286.356V787.449H328.486V749.962ZM328.486 708.31H286.356V745.797H328.486V708.31ZM328.486 666.658H286.356V704.145H328.486V666.658ZM328.486 625.006H286.356V662.493H328.486V625.006ZM426.79 662.493H468.921V625.006H426.79V662.493ZM426.79 704.145H468.921V666.658H426.79V704.145ZM426.79 745.797H468.921V708.31H426.79V745.797ZM426.79 787.449H468.921V749.962H426.79V787.449ZM375.298 749.962H333.168V787.449H375.298V749.962ZM375.298 708.31H333.168V745.797H375.298V708.31ZM375.298 666.658H333.168V704.145H375.298V666.658ZM379.979 704.145H422.109V666.658H379.979V704.145ZM379.979 745.797H422.109V708.31H379.979V745.797ZM422.109 749.962H379.979V787.449H422.109V749.962ZM379.979 662.493H422.109V625.006H379.979V662.493ZM333.168 662.493H375.298V625.006H333.168V662.493ZM375.298 791.614H333.168V829.1H375.298V791.614ZM422.109 791.614H379.979V829.1H422.109V791.614ZM468.921 791.614H426.79V829.1H468.921V791.614ZM426.79 620.841H468.921V583.354H426.79V620.841ZM379.979 620.841H422.109V583.354H379.979V620.841ZM333.168 620.841H375.298V583.354H333.168V620.841ZM286.356 620.841H328.486V583.354H286.356V620.841ZM328.486 833.266H286.356V870.752H328.486V833.266ZM375.298 833.266H333.168V870.752H375.298V833.266ZM422.109 833.266H379.979V870.752H422.109V833.266ZM468.921 833.266H426.79V870.752H468.921V833.266ZM515.732 833.266H473.602V870.752H515.732V833.266ZM473.602 579.189H515.732V541.702H473.602V579.189ZM426.79 579.189H468.921V541.702H426.79V579.189ZM379.979 579.189H422.109V541.702H379.979V579.189ZM333.168 579.189H375.298V541.702H333.168V579.189ZM286.356 579.189H328.486V541.702H286.356V579.189ZM239.545 579.189H281.675V541.702H239.545V579.189ZM281.675 874.918H239.545V912.404H281.675V874.918ZM328.486 874.918H286.356V912.404H328.486V874.918ZM375.298 874.918H333.168V912.404H375.298V874.918ZM422.109 874.918H379.979V912.404H422.109V874.918ZM468.921 874.918H426.79V912.404H468.921V874.918ZM515.732 874.918H473.602V912.404H515.732V874.918ZM562.544 874.918H520.413V912.404H562.544V874.918Z" fill="url(#paint2_radial_6491_21066)"/>
<path opacity="0.5" fill-rule="evenodd" clip-rule="evenodd" d="M1142.96 147.305H1138.24V166.217H1095.77V147.305H1091.05V166.217H1048.58V147.305H1043.87V166.217H1001.4V147.305H996.679V166.217H954.211V147.305H949.493V166.217H907.025V147.305H902.306V166.217H859.838V147.305H855.119V166.217H812.651V147.305H807.933V166.217H765.465V147.305H760.746V166.217H718.278V147.305H713.559V166.217H692.325V170.42H713.559V208.245H692.325V212.447H713.559V250.272H692.325V254.474H713.559V292.299H692.325V296.501H713.559V334.326H692.325V338.529H713.559V376.353H692.325V380.556H713.559V418.38H692.325V422.583H713.559V460.407H692.325V464.61H713.559V502.434H692.325V506.637H713.559V544.462H692.325V548.664H713.559V567.576H718.278V548.664H760.746V567.576H765.465V548.664H807.933V567.576H812.651V548.664H855.119V567.576H859.838V548.664H902.306V567.576H907.025V548.664H949.493V567.576H954.211V548.664H996.679V567.576H1001.4V548.664H1043.87V567.576H1048.58V548.664H1091.05V567.576H1095.77V548.664H1138.24V567.576H1142.96V548.664H1164.19V544.462H1142.96V506.637H1164.19V502.434H1142.96V464.61H1164.19V460.407H1142.96V422.583H1164.19V418.38H1142.96V380.556H1164.19V376.353H1142.96V338.529H1164.19V334.326H1142.96V296.501H1164.19V292.299H1142.96V254.474H1164.19V250.272H1142.96V212.447H1164.19V208.245H1142.96V170.42H1164.19V166.217H1142.96V147.305ZM1095.77 208.245H1138.24V170.42H1095.77V208.245ZM1095.77 250.272H1138.24V212.447H1095.77V250.272ZM1095.77 292.299H1138.24V254.474H1095.77V292.299ZM1095.77 334.326H1138.24V296.501H1095.77V334.326ZM1095.77 376.353H1138.24V338.529H1095.77V376.353ZM1095.77 418.38H1138.24V380.556H1095.77V418.38ZM1095.77 460.407H1138.24V422.583H1095.77V460.407ZM1095.77 502.434H1138.24V464.61H1095.77V502.434ZM1095.77 544.462H1138.24V506.637H1095.77V544.462ZM760.746 506.637H718.278V544.462H760.746V506.637ZM760.746 464.61H718.278V502.434H760.746V464.61ZM760.746 422.583H718.278V460.407H760.746V422.583ZM760.746 380.556H718.278V418.38H760.746V380.556ZM760.746 338.529H718.278V376.353H760.746V338.529ZM760.746 296.501H718.278V334.326H760.746V296.501ZM760.746 254.474H718.278V292.299H760.746V254.474ZM760.746 212.447H718.278V250.272H760.746V212.447ZM760.746 170.42H718.278V208.245H760.746V170.42ZM1048.58 208.245H1091.05V170.42H1048.58V208.245ZM1048.58 250.272H1091.05V212.447H1048.58V250.272ZM1048.58 292.299H1091.05V254.474H1048.58V292.299ZM1048.58 334.326H1091.05V296.501H1048.58V334.326ZM1048.58 376.353H1091.05V338.529H1048.58V376.353ZM1048.58 418.38H1091.05V380.556H1048.58V418.38ZM1048.58 460.407H1091.05V422.583H1048.58V460.407ZM1048.58 502.434H1091.05V464.61H1048.58V502.434ZM807.933 464.61H765.465V502.434H807.933V464.61ZM807.933 422.583H765.465V460.407H807.933V422.583ZM807.933 380.556H765.465V418.38H807.933V380.556ZM807.933 338.529H765.465V376.353H807.933V338.529ZM807.933 296.501H765.465V334.326H807.933V296.501ZM807.933 254.474H765.465V292.299H807.933V254.474ZM807.933 212.447H765.465V250.272H807.933V212.447ZM1001.4 250.272H1043.87V212.447H1001.4V250.272ZM1001.4 292.299H1043.87V254.474H1001.4V292.299ZM1001.4 334.326H1043.87V296.501H1001.4V334.326ZM1001.4 376.353H1043.87V338.529H1001.4V376.353ZM1001.4 418.38H1043.87V380.556H1001.4V418.38ZM1001.4 460.407H1043.87V422.583H1001.4V460.407ZM855.119 422.583H812.651V460.407H855.119V422.583ZM855.119 380.556H812.651V418.38H855.119V380.556ZM855.119 338.529H812.651V376.353H855.119V338.529ZM855.119 296.501H812.651V334.326H855.119V296.501ZM855.119 254.474H812.651V292.299H855.119V254.474ZM954.211 292.299H996.679V254.474H954.211V292.299ZM954.211 334.326H996.679V296.501H954.211V334.326ZM954.211 376.353H996.679V338.529H954.211V376.353ZM954.211 418.38H996.679V380.556H954.211V418.38ZM902.306 380.556H859.838V418.38H902.306V380.556ZM902.306 338.529H859.838V376.353H902.306V338.529ZM902.306 296.501H859.838V334.326H902.306V296.501ZM907.025 334.326H949.493V296.501H907.025V334.326ZM907.025 376.353H949.493V338.529H907.025V376.353ZM949.493 380.556H907.025V418.38H949.493V380.556ZM907.025 292.299H949.493V254.474H907.025V292.299ZM859.838 292.299H902.306V254.474H859.838V292.299ZM902.306 422.583H859.838V460.407H902.306V422.583ZM949.493 422.583H907.025V460.407H949.493V422.583ZM996.679 422.583H954.211V460.407H996.679V422.583ZM954.211 250.272H996.679V212.447H954.211V250.272ZM907.025 250.272H949.493V212.447H907.025V250.272ZM859.838 250.272H902.306V212.447H859.838V250.272ZM812.651 250.272H855.119V212.447H812.651V250.272ZM855.119 464.61H812.651V502.434H855.119V464.61ZM902.306 464.61H859.838V502.434H902.306V464.61ZM949.493 464.61H907.025V502.434H949.493V464.61ZM996.679 464.61H954.211V502.434H996.679V464.61ZM1043.87 464.61H1001.4V502.434H1043.87V464.61ZM1001.4 208.245H1043.87V170.42H1001.4V208.245ZM954.211 208.245H996.679V170.42H954.211V208.245ZM907.025 208.245H949.493V170.42H907.025V208.245ZM859.838 208.245H902.306V170.42H859.838V208.245ZM812.651 208.245H855.119V170.42H812.651V208.245ZM765.465 208.245H807.933V170.42H765.465V208.245ZM807.933 506.637H765.465V544.462H807.933V506.637ZM855.119 506.637H812.651V544.462H855.119V506.637ZM902.306 506.637H859.838V544.462H902.306V506.637ZM949.493 506.637H907.025V544.462H949.493V506.637ZM996.679 506.637H954.211V544.462H996.679V506.637ZM1043.87 506.637H1001.4V544.462H1043.87V506.637ZM1091.05 506.637H1048.58V544.462H1091.05V506.637Z" fill="url(#paint3_radial_6491_21066)"/>
</g>
<defs>
<filter id="filter0_f_6491_21066" x="491.552" y="166.88" width="883.109" height="873.249" filterUnits="userSpaceOnUse" color-interpolation-filters="sRGB">
<feFlood flood-opacity="0" result="BackgroundImageFix"/>
<feBlend mode="normal" in="SourceGraphic" in2="BackgroundImageFix" result="shape"/>
<feGaussianBlur stdDeviation="63.807" result="effect1_foregroundBlur_6491_21066"/>
</filter>
<filter id="filter1_f_6491_21066" x="0.322159" y="325.536" width="932.886" height="728.061" filterUnits="userSpaceOnUse" color-interpolation-filters="sRGB">
<feFlood flood-opacity="0" result="BackgroundImageFix"/>
<feBlend mode="normal" in="SourceGraphic" in2="BackgroundImageFix" result="shape"/>
<feGaussianBlur stdDeviation="68.6298" result="effect1_foregroundBlur_6491_21066"/>
</filter>
<filter id="filter2_f_6491_21066" x="267.373" y="207.993" width="700.17" height="648.891" filterUnits="userSpaceOnUse" color-interpolation-filters="sRGB">
<feFlood flood-opacity="0" result="BackgroundImageFix"/>
<feBlend mode="normal" in="SourceGraphic" in2="BackgroundImageFix" result="shape"/>
<feGaussianBlur stdDeviation="68.6298" result="effect1_foregroundBlur_6491_21066"/>
</filter>
<filter id="filter3_f_6491_21066" x="464.472" y="0.941788" width="870.459" height="713.85" filterUnits="userSpaceOnUse" color-interpolation-filters="sRGB">
<feFlood flood-opacity="0" result="BackgroundImageFix"/>
<feBlend mode="normal" in="SourceGraphic" in2="BackgroundImageFix" result="shape"/>
<feGaussianBlur stdDeviation="68.6298" result="effect1_foregroundBlur_6491_21066"/>
</filter>
<filter id="filter4_f_6491_21066" x="18.4913" y="39.35" width="796.506" height="750.795" filterUnits="userSpaceOnUse" color-interpolation-filters="sRGB">
<feFlood flood-opacity="0" result="BackgroundImageFix"/>
<feBlend mode="normal" in="SourceGraphic" in2="BackgroundImageFix" result="shape"/>
<feGaussianBlur stdDeviation="68.6298" result="effect1_foregroundBlur_6491_21066"/>
</filter>
<radialGradient id="paint0_radial_6491_21066" cx="0" cy="0" r="1" gradientUnits="userSpaceOnUse" gradientTransform="translate(417.083 419.224) rotate(90) scale(201.224 226.083)">
<stop stop-color="white"/>
<stop offset="1" stop-color="white" stop-opacity="0"/>
<stop offset="1" stop-opacity="0"/>
</radialGradient>
<radialGradient id="paint1_radial_6491_21066" cx="0" cy="0" r="1" gradientUnits="userSpaceOnUse" gradientTransform="translate(911.98 666.655) rotate(90) scale(218.579 245.784)">
<stop stop-color="white"/>
<stop offset="1" stop-color="white" stop-opacity="0"/>
<stop offset="1" stop-opacity="0"/>
</radialGradient>
<radialGradient id="paint2_radial_6491_21066" cx="0" cy="0" r="1" gradientUnits="userSpaceOnUse" gradientTransform="translate(401.044 727.053) rotate(90) scale(208.259 234.057)">
<stop stop-color="white"/>
<stop offset="1" stop-color="white" stop-opacity="0"/>
<stop offset="1" stop-opacity="0"/>
</radialGradient>
<radialGradient id="paint3_radial_6491_21066" cx="0" cy="0" r="1" gradientUnits="userSpaceOnUse" gradientTransform="translate(928.259 357.441) rotate(90) scale(210.136 235.934)">
<stop stop-color="white"/>
<stop offset="1" stop-color="white" stop-opacity="0"/>
<stop offset="1" stop-opacity="0"/>
</radialGradient>
</defs>
</svg>
