<svg width="1056" height="842" viewBox="0 0 1056 842" fill="none" xmlns="http://www.w3.org/2000/svg">
<g opacity="0.8" filter="url(#filter0_f_5561_8187)">
<ellipse cx="689.658" cy="326.461" rx="242.222" ry="194.35" transform="rotate(-16.6036 689.658 326.461)" fill="#AC9AFF"/>
</g>
<g opacity="0.8" filter="url(#filter1_f_5561_8187)">
<ellipse cx="409.017" cy="518.282" rx="274.985" ry="179.709" transform="rotate(-13.3336 409.017 518.282)" fill="#5EFFC1"/>
</g>
<path opacity="0.5" fill-rule="evenodd" clip-rule="evenodd" d="M591.665 337H586.359V358.222H538.611V337H533.305V358.222H485.557V337H480.251V358.222H432.503V337H427.198V358.222H379.449V337H374.144V358.222H326.395V337H321.09V358.222H273.341V337H268.036V358.222H220.287V337H214.982V358.222H167.234V337H161.928V358.222H114.18V337H108.874V358.222H85V362.937H108.874V405.381H85V410.096H108.874V452.54H85V457.256H108.874V499.699H85V504.415H108.874V546.858H85V551.574H108.874V594.017H85V598.733H108.874V641.176H85V645.892H108.874V688.335H85V693.051H108.874V735.494H85V740.21H108.874V782.653H85V787.369H108.874V808.59H114.18V787.369H161.928V808.59H167.234V787.369H214.982V808.59H220.287V787.369H268.036V808.59H273.341V787.369H321.09V808.59H326.395V787.369H374.144V808.59H379.449V787.369H427.198V808.59H432.503V787.369H480.251V808.59H485.557V787.369H533.305V808.59H538.611V787.369H586.359V808.59H591.665V787.369H615.539V782.653H591.665V740.21H615.539V735.494H591.665V693.051H615.539V688.335H591.665V645.892H615.539V641.176H591.665V598.733H615.539V594.017H591.665V551.574H615.539V546.858H591.665V504.415H615.539V499.699H591.665V457.256H615.539V452.54H591.665V410.096H615.539V405.381H591.665V362.937H615.539V358.222H591.665V337ZM538.611 405.381H586.359V362.937H538.611V405.381ZM538.611 452.54H586.359V410.096H538.611V452.54ZM538.611 499.699H586.359V457.256H538.611V499.699ZM538.611 546.858H586.359V504.415H538.611V546.858ZM538.611 594.017H586.359V551.574H538.611V594.017ZM538.611 641.176H586.359V598.733H538.611V641.176ZM538.611 688.335H586.359V645.892H538.611V688.335ZM538.611 735.494H586.359V693.051H538.611V735.494ZM538.611 782.653H586.359V740.21H538.611V782.653ZM161.928 740.21H114.18V782.653H161.928V740.21ZM161.928 693.051H114.18V735.494H161.928V693.051ZM161.928 645.892H114.18V688.335H161.928V645.892ZM161.928 598.733H114.18V641.176H161.928V598.733ZM161.928 551.574H114.18V594.017H161.928V551.574ZM161.928 504.415H114.18V546.858H161.928V504.415ZM161.928 457.256H114.18V499.699H161.928V457.256ZM161.928 410.096H114.18V452.54H161.928V410.096ZM161.928 362.937H114.18V405.381H161.928V362.937ZM485.557 405.381H533.305V362.937H485.557V405.381ZM485.557 452.54H533.305V410.096H485.557V452.54ZM485.557 499.699H533.305V457.256H485.557V499.699ZM485.557 546.858H533.305V504.415H485.557V546.858ZM485.557 594.017H533.305V551.574H485.557V594.017ZM485.557 641.176H533.305V598.733H485.557V641.176ZM485.557 688.335H533.305V645.892H485.557V688.335ZM485.557 735.494H533.305V693.051H485.557V735.494ZM214.982 693.051H167.234V735.494H214.982V693.051ZM214.982 645.892H167.234V688.335H214.982V645.892ZM214.982 598.733H167.234V641.176H214.982V598.733ZM214.982 551.574H167.234V594.017H214.982V551.574ZM214.982 504.415H167.234V546.858H214.982V504.415ZM214.982 457.256H167.234V499.699H214.982V457.256ZM214.982 410.096H167.234V452.54H214.982V410.096ZM432.503 452.54H480.251V410.096H432.503V452.54ZM432.503 499.699H480.251V457.256H432.503V499.699ZM432.503 546.858H480.251V504.415H432.503V546.858ZM432.503 594.017H480.251V551.574H432.503V594.017ZM432.503 641.176H480.251V598.733H432.503V641.176ZM432.503 688.335H480.251V645.892H432.503V688.335ZM268.036 645.892H220.287V688.335H268.036V645.892ZM268.036 598.733H220.287V641.176H268.036V598.733ZM268.036 551.574H220.287V594.017H268.036V551.574ZM268.036 504.415H220.287V546.858H268.036V504.415ZM268.036 457.256H220.287V499.699H268.036V457.256ZM379.449 499.699H427.198V457.256H379.449V499.699ZM379.449 546.858H427.198V504.415H379.449V546.858ZM379.449 594.017H427.198V551.574H379.449V594.017ZM379.449 641.176H427.198V598.733H379.449V641.176ZM321.09 598.733H273.341V641.176H321.09V598.733ZM321.09 551.574H273.341V594.017H321.09V551.574ZM321.09 504.415H273.341V546.858H321.09V504.415ZM326.395 546.858H374.144V504.415H326.395V546.858ZM326.395 594.017H374.144V551.574H326.395V594.017ZM374.144 598.733H326.395V641.176H374.144V598.733ZM326.395 499.699H374.144V457.256H326.395V499.699ZM273.341 499.699H321.09V457.256H273.341V499.699ZM321.09 645.892H273.341V688.335H321.09V645.892ZM374.144 645.892H326.395V688.335H374.144V645.892ZM427.198 645.892H379.449V688.335H427.198V645.892ZM379.449 452.54H427.198V410.096H379.449V452.54ZM326.395 452.54H374.144V410.096H326.395V452.54ZM273.341 452.54H321.09V410.096H273.341V452.54ZM220.287 452.54H268.036V410.096H220.287V452.54ZM268.036 693.051H220.287V735.494H268.036V693.051ZM321.09 693.051H273.341V735.494H321.09V693.051ZM374.144 693.051H326.395V735.494H374.144V693.051ZM427.198 693.051H379.449V735.494H427.198V693.051ZM480.251 693.051H432.503V735.494H480.251V693.051ZM432.503 405.381H480.251V362.937H432.503V405.381ZM379.449 405.381H427.198V362.937H379.449V405.381ZM326.395 405.381H374.144V362.937H326.395V405.381ZM273.341 405.381H321.09V362.937H273.341V405.381ZM220.287 405.381H268.036V362.937H220.287V405.381ZM167.234 405.381H214.982V362.937H167.234V405.381ZM214.982 740.21H167.234V782.653H214.982V740.21ZM268.036 740.21H220.287V782.653H268.036V740.21ZM321.09 740.21H273.341V782.653H321.09V740.21ZM374.144 740.21H326.395V782.653H374.144V740.21ZM427.198 740.21H379.449V782.653H427.198V740.21ZM480.251 740.21H432.503V782.653H480.251V740.21ZM533.305 740.21H485.557V782.653H533.305V740.21Z" fill="url(#paint0_radial_5561_8187)"/>
<path opacity="0.5" fill-rule="evenodd" clip-rule="evenodd" d="M920.665 49H915.359V70.2216H867.611V49H862.305V70.2216H814.557V49H809.251V70.2216H761.503V49H756.198V70.2216H708.449V49H703.144V70.2216H655.395V49H650.09V70.2216H602.341V49H597.036V70.2216H549.287V49H543.982V70.2216H496.234V49H490.928V70.2216H443.18V49H437.874V70.2216H414V74.9375H437.874V117.381H414V122.096H437.874V164.54H414V169.256H437.874V211.699H414V216.415H437.874V258.858H414V263.574H437.874V306.017H414V310.733H437.874V353.176H414V357.892H437.874V400.335H414V405.051H437.874V447.494H414V452.21H437.874V494.653H414V499.369H437.874V520.59H443.18V499.369H490.928V520.59H496.234V499.369H543.982V520.59H549.287V499.369H597.036V520.59H602.341V499.369H650.09V520.59H655.395V499.369H703.144V520.59H708.449V499.369H756.198V520.59H761.503V499.369H809.251V520.59H814.557V499.369H862.305V520.59H867.611V499.369H915.359V520.59H920.665V499.369H944.539V494.653H920.665V452.21H944.539V447.494H920.665V405.051H944.539V400.335H920.665V357.892H944.539V353.176H920.665V310.733H944.539V306.017H920.665V263.574H944.539V258.858H920.665V216.415H944.539V211.699H920.665V169.256H944.539V164.54H920.665V122.096H944.539V117.381H920.665V74.9375H944.539V70.2216H920.665V49ZM867.611 117.381H915.359V74.9375H867.611V117.381ZM867.611 164.54H915.359V122.096H867.611V164.54ZM867.611 211.699H915.359V169.256H867.611V211.699ZM867.611 258.858H915.359V216.415H867.611V258.858ZM867.611 306.017H915.359V263.574H867.611V306.017ZM867.611 353.176H915.359V310.733H867.611V353.176ZM867.611 400.335H915.359V357.892H867.611V400.335ZM867.611 447.494H915.359V405.051H867.611V447.494ZM867.611 494.653H915.359V452.21H867.611V494.653ZM490.928 452.21H443.18V494.653H490.928V452.21ZM490.928 405.051H443.18V447.494H490.928V405.051ZM490.928 357.892H443.18V400.335H490.928V357.892ZM490.928 310.733H443.18V353.176H490.928V310.733ZM490.928 263.574H443.18V306.017H490.928V263.574ZM490.928 216.415H443.18V258.858H490.928V216.415ZM490.928 169.256H443.18V211.699H490.928V169.256ZM490.928 122.096H443.18V164.54H490.928V122.096ZM490.928 74.9375H443.18V117.381H490.928V74.9375ZM814.557 117.381H862.305V74.9375H814.557V117.381ZM814.557 164.54H862.305V122.096H814.557V164.54ZM814.557 211.699H862.305V169.256H814.557V211.699ZM814.557 258.858H862.305V216.415H814.557V258.858ZM814.557 306.017H862.305V263.574H814.557V306.017ZM814.557 353.176H862.305V310.733H814.557V353.176ZM814.557 400.335H862.305V357.892H814.557V400.335ZM814.557 447.494H862.305V405.051H814.557V447.494ZM543.982 405.051H496.234V447.494H543.982V405.051ZM543.982 357.892H496.234V400.335H543.982V357.892ZM543.982 310.733H496.234V353.176H543.982V310.733ZM543.982 263.574H496.234V306.017H543.982V263.574ZM543.982 216.415H496.234V258.858H543.982V216.415ZM543.982 169.256H496.234V211.699H543.982V169.256ZM543.982 122.096H496.234V164.54H543.982V122.096ZM761.503 164.54H809.251V122.096H761.503V164.54ZM761.503 211.699H809.251V169.256H761.503V211.699ZM761.503 258.858H809.251V216.415H761.503V258.858ZM761.503 306.017H809.251V263.574H761.503V306.017ZM761.503 353.176H809.251V310.733H761.503V353.176ZM761.503 400.335H809.251V357.892H761.503V400.335ZM597.036 357.892H549.287V400.335H597.036V357.892ZM597.036 310.733H549.287V353.176H597.036V310.733ZM597.036 263.574H549.287V306.017H597.036V263.574ZM597.036 216.415H549.287V258.858H597.036V216.415ZM597.036 169.256H549.287V211.699H597.036V169.256ZM708.449 211.699H756.198V169.256H708.449V211.699ZM708.449 258.858H756.198V216.415H708.449V258.858ZM708.449 306.017H756.198V263.574H708.449V306.017ZM708.449 353.176H756.198V310.733H708.449V353.176ZM650.09 310.733H602.341V353.176H650.09V310.733ZM650.09 263.574H602.341V306.017H650.09V263.574ZM650.09 216.415H602.341V258.858H650.09V216.415ZM655.395 258.858H703.144V216.415H655.395V258.858ZM655.395 306.017H703.144V263.574H655.395V306.017ZM703.144 310.733H655.395V353.176H703.144V310.733ZM655.395 211.699H703.144V169.256H655.395V211.699ZM602.341 211.699H650.09V169.256H602.341V211.699ZM650.09 357.892H602.341V400.335H650.09V357.892ZM703.144 357.892H655.395V400.335H703.144V357.892ZM756.198 357.892H708.449V400.335H756.198V357.892ZM708.449 164.54H756.198V122.096H708.449V164.54ZM655.395 164.54H703.144V122.096H655.395V164.54ZM602.341 164.54H650.09V122.096H602.341V164.54ZM549.287 164.54H597.036V122.096H549.287V164.54ZM597.036 405.051H549.287V447.494H597.036V405.051ZM650.09 405.051H602.341V447.494H650.09V405.051ZM703.144 405.051H655.395V447.494H703.144V405.051ZM756.198 405.051H708.449V447.494H756.198V405.051ZM809.251 405.051H761.503V447.494H809.251V405.051ZM761.503 117.381H809.251V74.9375H761.503V117.381ZM708.449 117.381H756.198V74.9375H708.449V117.381ZM655.395 117.381H703.144V74.9375H655.395V117.381ZM602.341 117.381H650.09V74.9375H602.341V117.381ZM549.287 117.381H597.036V74.9375H549.287V117.381ZM496.234 117.381H543.982V74.9375H496.234V117.381ZM543.982 452.21H496.234V494.653H543.982V452.21ZM597.036 452.21H549.287V494.653H597.036V452.21ZM650.09 452.21H602.341V494.653H650.09V452.21ZM703.144 452.21H655.395V494.653H703.144V452.21ZM756.198 452.21H708.449V494.653H756.198V452.21ZM809.251 452.21H761.503V494.653H809.251V452.21ZM862.305 452.21H814.557V494.653H862.305V452.21Z" fill="url(#paint1_radial_5561_8187)"/>
<path d="M225.016 732.315L234.362 733.5L225.016 734.685C206.553 737.026 192.142 752.544 189.978 772.036L189 780.842L188.022 772.036C185.858 752.544 171.447 737.026 152.984 734.685L143.638 733.5L152.984 732.315C171.447 729.974 185.858 714.456 188.022 694.964L189 686.158L189.978 694.964C192.142 714.456 206.553 729.974 225.016 732.315Z" stroke="#6444F4" stroke-width="4"/>
<path d="M703.659 498.794C703.778 497.735 705.222 497.735 705.341 498.794L706.332 507.677C707.611 519.148 716.115 528.191 726.9 529.552L735.253 530.606C736.249 530.732 736.249 532.268 735.253 532.394L726.9 533.448C716.115 534.809 707.611 543.853 706.332 555.323L705.341 564.206C705.222 565.265 703.778 565.265 703.659 564.206L702.668 555.323C701.389 543.853 692.885 534.809 682.099 533.448L673.747 532.394C672.751 532.268 672.751 530.732 673.747 530.606L682.099 529.552C692.885 528.191 701.389 519.148 702.668 507.677L703.659 498.794Z" fill="#4E30D2"/>
<path d="M870.847 182.462C870.915 181.846 871.756 181.846 871.825 182.462L872.402 187.633C873.147 194.31 878.097 199.574 884.375 200.366L889.237 200.98C889.817 201.053 889.817 201.947 889.237 202.02L884.375 202.634C878.097 203.426 873.147 208.69 872.402 215.367L871.825 220.538C871.756 221.154 870.915 221.154 870.847 220.538L870.27 215.367C869.525 208.69 864.575 203.426 858.297 202.634L853.435 202.02C852.855 201.947 852.855 201.053 853.435 200.98L858.297 200.366C864.575 199.574 869.525 194.31 870.27 187.633L870.847 182.462Z" fill="#4E30D2"/>
<path d="M417.625 209.5C428.896 207.948 437.708 198.735 439.5 187.075C441.292 198.735 450.104 207.948 461.375 209.5C450.104 211.052 441.292 220.265 439.5 231.925C437.708 220.265 428.896 211.052 417.625 209.5Z" stroke="#AC9AFF" stroke-width="4"/>
<defs>
<filter id="filter0_f_5561_8187" x="323.316" y="0.101791" width="732.684" height="652.718" filterUnits="userSpaceOnUse" color-interpolation-filters="sRGB">
<feFlood flood-opacity="0" result="BackgroundImageFix"/>
<feBlend mode="normal" in="SourceGraphic" in2="BackgroundImageFix" result="shape"/>
<feGaussianBlur stdDeviation="63.807" result="effect1_foregroundBlur_5561_8187"/>
</filter>
<filter id="filter1_f_5561_8187" x="0.955704" y="194.963" width="816.122" height="646.639" filterUnits="userSpaceOnUse" color-interpolation-filters="sRGB">
<feFlood flood-opacity="0" result="BackgroundImageFix"/>
<feBlend mode="normal" in="SourceGraphic" in2="BackgroundImageFix" result="shape"/>
<feGaussianBlur stdDeviation="68.6298" result="effect1_foregroundBlur_5561_8187"/>
</filter>
<radialGradient id="paint0_radial_5561_8187" cx="0" cy="0" r="1" gradientUnits="userSpaceOnUse" gradientTransform="translate(350.269 572.795) rotate(90) scale(235.795 265.269)">
<stop stop-color="white"/>
<stop offset="1" stop-color="white" stop-opacity="0"/>
<stop offset="1" stop-opacity="0"/>
</radialGradient>
<radialGradient id="paint1_radial_5561_8187" cx="0" cy="0" r="1" gradientUnits="userSpaceOnUse" gradientTransform="translate(679.269 284.795) rotate(90) scale(235.795 265.269)">
<stop stop-color="white"/>
<stop offset="1" stop-color="white" stop-opacity="0"/>
<stop offset="1" stop-opacity="0"/>
</radialGradient>
</defs>
</svg>
