<svg width="375" height="986" viewBox="0 0 375 986" fill="none" xmlns="http://www.w3.org/2000/svg">
<g opacity="0.8" filter="url(#filter0_f_6654_30488)">
<ellipse cx="224.806" cy="192.073" rx="224.806" ry="192.073" transform="matrix(0.935416 -0.353549 0.228994 0.973428 54.458 340.29)" fill="#CEC3FF"/>
</g>
<g opacity="0.8" filter="url(#filter1_f_6654_30488)">
<ellipse cx="91.62" cy="57.977" rx="91.62" ry="57.977" transform="matrix(0.989047 -0.147604 -0.0932454 -0.995643 -30.1367 860.021)" fill="#CEC3FF"/>
</g>
<g opacity="0.8" filter="url(#filter2_f_6654_30488)">
<ellipse cx="202.524" cy="244.132" rx="202.524" ry="244.132" transform="matrix(0.957716 -0.287715 0.183797 0.982964 -5.28174 381.306)" fill="#B9FFE4"/>
</g>
<path opacity="0.5" fill-rule="evenodd" clip-rule="evenodd" d="M299.705 314.227H295.195V334.879H254.605V314.227H250.095V334.879H209.505V314.227H204.995V334.879H164.405V314.227H159.895V334.879H119.305V314.227H114.795V334.879H74.205V314.227H69.695V334.879H29.105V314.227H24.595V334.879H-15.995V314.227H-20.505V334.879H-61.095V314.227H-65.605V334.879H-106.195V314.227H-110.705V334.879H-131V339.469H-110.705V380.774H-131V385.364H-110.705V426.669H-131V431.259H-110.705V472.564H-131V477.153H-110.705V518.459H-131V523.048H-110.705V564.354H-131V568.943H-110.705V610.249H-131V614.838H-110.705V656.144H-131V660.733H-110.705V702.038H-131V706.628H-110.705V747.933H-131V752.523H-110.705V773.176H-106.195V752.523H-65.605V773.176H-61.095V752.523H-20.505V773.176H-15.995V752.523H24.595V773.176H29.105V752.523H69.695V773.176H74.205V752.523H114.795V773.176H119.305V752.523H159.895V773.176H164.405V752.523H204.995V773.176H209.505V752.523H250.095V773.176H254.605V752.523H295.195V773.176H299.705V752.523H320V747.933H299.705V706.628H320V702.038H299.705V660.733H320V656.144H299.705V614.838H320V610.249H299.705V568.943H320V564.354H299.705V523.048H320V518.459H299.705V477.153H320V472.564H299.705V431.259H320V426.669H299.705V385.364H320V380.774H299.705V339.469H320V334.879H299.705V314.227ZM254.605 380.774H295.195V339.469H254.605V380.774ZM254.605 426.669H295.195V385.364H254.605V426.669ZM254.605 472.564H295.195V431.259H254.605V472.564ZM254.605 518.459H295.195V477.153H254.605V518.459ZM254.605 564.354H295.195V523.048H254.605V564.354ZM254.605 610.249H295.195V568.943H254.605V610.249ZM254.605 656.144H295.195V614.838H254.605V656.144ZM254.605 702.038H295.195V660.733H254.605V702.038ZM254.605 747.933H295.195V706.628H254.605V747.933ZM-65.605 706.628H-106.195V747.933H-65.605V706.628ZM-65.605 660.733H-106.195V702.038H-65.605V660.733ZM-65.605 614.838H-106.195V656.144H-65.605V614.838ZM-65.605 568.943H-106.195V610.249H-65.605V568.943ZM-65.605 523.048H-106.195V564.354H-65.605V523.048ZM-65.605 477.153H-106.195V518.459H-65.605V477.153ZM-65.605 431.259H-106.195V472.564H-65.605V431.259ZM-65.605 385.364H-106.195V426.669H-65.605V385.364ZM-65.605 339.469H-106.195V380.774H-65.605V339.469ZM209.505 380.774H250.095V339.469H209.505V380.774ZM209.505 426.669H250.095V385.364H209.505V426.669ZM209.505 472.564H250.095V431.259H209.505V472.564ZM209.505 518.459H250.095V477.153H209.505V518.459ZM209.505 564.354H250.095V523.048H209.505V564.354ZM209.505 610.249H250.095V568.943H209.505V610.249ZM209.505 656.144H250.095V614.838H209.505V656.144ZM209.505 702.038H250.095V660.733H209.505V702.038ZM-20.505 660.733H-61.095V702.038H-20.505V660.733ZM-20.505 614.838H-61.095V656.144H-20.505V614.838ZM-20.505 568.943H-61.095V610.249H-20.505V568.943ZM-20.505 523.048H-61.095V564.354H-20.505V523.048ZM-20.505 477.153H-61.095V518.459H-20.505V477.153ZM-20.505 431.259H-61.095V472.564H-20.505V431.259ZM-20.505 385.364H-61.095V426.669H-20.505V385.364ZM164.405 426.669H204.995V385.364H164.405V426.669ZM164.405 472.564H204.995V431.259H164.405V472.564ZM164.405 518.459H204.995V477.153H164.405V518.459ZM164.405 564.354H204.995V523.048H164.405V564.354ZM164.405 610.249H204.995V568.943H164.405V610.249ZM164.405 656.144H204.995V614.838H164.405V656.144ZM24.595 614.838H-15.995V656.144H24.595V614.838ZM24.595 568.943H-15.995V610.249H24.595V568.943ZM24.595 523.048H-15.995V564.354H24.595V523.048ZM24.595 477.153H-15.995V518.459H24.595V477.153ZM24.595 431.259H-15.995V472.564H24.595V431.259ZM119.305 472.564H159.895V431.259H119.305V472.564ZM119.305 518.459H159.895V477.153H119.305V518.459ZM119.305 564.354H159.895V523.048H119.305V564.354ZM119.305 610.249H159.895V568.943H119.305V610.249ZM69.695 568.943H29.105V610.249H69.695V568.943ZM69.695 523.048H29.105V564.354H69.695V523.048ZM69.695 477.153H29.105V518.459H69.695V477.153ZM74.205 518.459H114.795V477.153H74.205V518.459ZM74.205 564.354H114.795V523.048H74.205V564.354ZM114.795 568.943H74.205V610.249H114.795V568.943ZM74.205 472.564H114.795V431.259H74.205V472.564ZM29.105 472.564H69.695V431.259H29.105V472.564ZM69.695 614.838H29.105V656.144H69.695V614.838ZM114.795 614.838H74.205V656.144H114.795V614.838ZM159.895 614.838H119.305V656.144H159.895V614.838ZM119.305 426.669H159.895V385.364H119.305V426.669ZM74.205 426.669H114.795V385.364H74.205V426.669ZM29.105 426.669H69.695V385.364H29.105V426.669ZM-15.995 426.669H24.595V385.364H-15.995V426.669ZM24.595 660.733H-15.995V702.038H24.595V660.733ZM69.695 660.733H29.105V702.038H69.695V660.733ZM114.795 660.733H74.205V702.038H114.795V660.733ZM159.895 660.733H119.305V702.038H159.895V660.733ZM204.995 660.733H164.405V702.038H204.995V660.733ZM164.405 380.774H204.995V339.469H164.405V380.774ZM119.305 380.774H159.895V339.469H119.305V380.774ZM74.205 380.774H114.795V339.469H74.205V380.774ZM29.105 380.774H69.695V339.469H29.105V380.774ZM-15.995 380.774H24.595V339.469H-15.995V380.774ZM-61.095 380.774H-20.505V339.469H-61.095V380.774ZM-20.505 706.628H-61.095V747.933H-20.505V706.628ZM24.595 706.628H-15.995V747.933H24.595V706.628ZM69.695 706.628H29.105V747.933H69.695V706.628ZM114.795 706.628H74.205V747.933H114.795V706.628ZM159.895 706.628H119.305V747.933H159.895V706.628ZM204.995 706.628H164.405V747.933H204.995V706.628ZM250.095 706.628H209.505V747.933H250.095V706.628Z" fill="url(#paint0_radial_6654_30488)"/>
<path opacity="0.5" fill-rule="evenodd" clip-rule="evenodd" d="M483.19 200.232H479.01V219.413H441.39V200.232H437.21V219.413H399.59V200.232H395.41V219.413H357.79V200.232H353.61V219.413H315.99V200.232H311.81V219.413H274.19V200.232H270.01V219.413H232.39V200.232H228.21V219.413H190.59V200.232H186.41V219.413H148.79V200.232H144.61V219.413H106.99V200.232H102.81V219.413H84V223.675H102.81V262.037H84V266.299H102.81V304.661H84V308.923H102.81V347.284H84V351.547H102.81V389.908H84V394.171H102.81V432.532H84V436.794H102.81V475.156H84V479.418H102.81V517.78H84V522.042H102.81V560.403H84V564.666H102.81V603.027H84V607.289H102.81V626.47H106.99V607.289H144.61V626.47H148.79V607.289H186.41V626.47H190.59V607.289H228.21V626.47H232.39V607.289H270.01V626.47H274.19V607.289H311.81V626.47H315.99V607.289H353.61V626.47H357.79V607.289H395.41V626.47H399.59V607.289H437.21V626.47H441.39V607.289H479.01V626.47H483.19V607.289H502V603.027H483.19V564.666H502V560.403H483.19V522.042H502V517.78H483.19V479.418H502V475.156H483.19V436.794H502V432.532H483.19V394.171H502V389.908H483.19V351.547H502V347.284H483.19V308.923H502V304.661H483.19V266.299H502V262.037H483.19V223.675H502V219.413H483.19V200.232ZM441.39 262.037H479.01V223.675H441.39V262.037ZM441.39 304.661H479.01V266.299H441.39V304.661ZM441.39 347.284H479.01V308.923H441.39V347.284ZM441.39 389.908H479.01V351.547H441.39V389.908ZM441.39 432.532H479.01V394.171H441.39V432.532ZM441.39 475.156H479.01V436.794H441.39V475.156ZM441.39 517.78H479.01V479.418H441.39V517.78ZM441.39 560.403H479.01V522.042H441.39V560.403ZM441.39 603.027H479.01V564.666H441.39V603.027ZM144.61 564.666H106.99V603.027H144.61V564.666ZM144.61 522.042H106.99V560.403H144.61V522.042ZM144.61 479.418H106.99V517.78H144.61V479.418ZM144.61 436.794H106.99V475.156H144.61V436.794ZM144.61 394.171H106.99V432.532H144.61V394.171ZM144.61 351.547H106.99V389.908H144.61V351.547ZM144.61 308.923H106.99V347.284H144.61V308.923ZM144.61 266.299H106.99V304.661H144.61V266.299ZM144.61 223.675H106.99V262.037H144.61V223.675ZM399.59 262.037H437.21V223.675H399.59V262.037ZM399.59 304.661H437.21V266.299H399.59V304.661ZM399.59 347.284H437.21V308.923H399.59V347.284ZM399.59 389.908H437.21V351.547H399.59V389.908ZM399.59 432.532H437.21V394.171H399.59V432.532ZM399.59 475.156H437.21V436.794H399.59V475.156ZM399.59 517.78H437.21V479.418H399.59V517.78ZM399.59 560.403H437.21V522.042H399.59V560.403ZM186.41 522.042H148.79V560.403H186.41V522.042ZM186.41 479.418H148.79V517.78H186.41V479.418ZM186.41 436.794H148.79V475.156H186.41V436.794ZM186.41 394.171H148.79V432.532H186.41V394.171ZM186.41 351.547H148.79V389.908H186.41V351.547ZM186.41 308.923H148.79V347.284H186.41V308.923ZM186.41 266.299H148.79V304.661H186.41V266.299ZM357.79 304.661H395.41V266.299H357.79V304.661ZM357.79 347.284H395.41V308.923H357.79V347.284ZM357.79 389.908H395.41V351.547H357.79V389.908ZM357.79 432.532H395.41V394.171H357.79V432.532ZM357.79 475.156H395.41V436.794H357.79V475.156ZM357.79 517.78H395.41V479.418H357.79V517.78ZM228.21 479.418H190.59V517.78H228.21V479.418ZM228.21 436.794H190.59V475.156H228.21V436.794ZM228.21 394.171H190.59V432.532H228.21V394.171ZM228.21 351.547H190.59V389.908H228.21V351.547ZM228.21 308.923H190.59V347.284H228.21V308.923ZM315.99 347.284H353.61V308.923H315.99V347.284ZM315.99 389.908H353.61V351.547H315.99V389.908ZM315.99 432.532H353.61V394.171H315.99V432.532ZM315.99 475.156H353.61V436.794H315.99V475.156ZM270.01 436.794H232.39V475.156H270.01V436.794ZM270.01 394.171H232.39V432.532H270.01V394.171ZM270.01 351.547H232.39V389.908H270.01V351.547ZM274.19 389.908H311.81V351.547H274.19V389.908ZM274.19 432.532H311.81V394.171H274.19V432.532ZM311.81 436.794H274.19V475.156H311.81V436.794ZM274.19 347.284H311.81V308.923H274.19V347.284ZM232.39 347.284H270.01V308.923H232.39V347.284ZM270.01 479.418H232.39V517.78H270.01V479.418ZM311.81 479.418H274.19V517.78H311.81V479.418ZM353.61 479.418H315.99V517.78H353.61V479.418ZM315.99 304.661H353.61V266.299H315.99V304.661ZM274.19 304.661H311.81V266.299H274.19V304.661ZM232.39 304.661H270.01V266.299H232.39V304.661ZM190.59 304.661H228.21V266.299H190.59V304.661ZM228.21 522.042H190.59V560.403H228.21V522.042ZM270.01 522.042H232.39V560.403H270.01V522.042ZM311.81 522.042H274.19V560.403H311.81V522.042ZM353.61 522.042H315.99V560.403H353.61V522.042ZM395.41 522.042H357.79V560.403H395.41V522.042ZM357.79 262.037H395.41V223.675H357.79V262.037ZM315.99 262.037H353.61V223.675H315.99V262.037ZM274.19 262.037H311.81V223.675H274.19V262.037ZM232.39 262.037H270.01V223.675H232.39V262.037ZM190.59 262.037H228.21V223.675H190.59V262.037ZM148.79 262.037H186.41V223.675H148.79V262.037ZM186.41 564.666H148.79V603.027H186.41V564.666ZM228.21 564.666H190.59V603.027H228.21V564.666ZM270.01 564.666H232.39V603.027H270.01V564.666ZM311.81 564.666H274.19V603.027H311.81V564.666ZM353.61 564.666H315.99V603.027H353.61V564.666ZM395.41 564.666H357.79V603.027H395.41V564.666ZM437.21 564.666H399.59V603.027H437.21V564.666Z" fill="url(#paint1_radial_6654_30488)"/>
<path d="M339.721 663.927L340.5 656.607L341.279 663.927C342.56 675.956 351.09 685.563 362.058 687.014L369.511 688L362.058 688.986C351.09 690.437 342.56 700.044 341.279 712.072L340.5 719.393L339.721 712.072C338.44 700.044 329.91 690.437 318.942 688.986L311.489 688L318.942 687.014C329.91 685.563 338.44 675.956 339.721 663.927Z" stroke="#AC9AFF" stroke-width="2"/>
<path d="M25.5106 532.175C20.0462 533.04 15.9433 538.434 15 545.062C14.0567 538.434 9.95377 533.04 4.48932 532.175L3.38144 532L4.48932 531.825C9.95377 530.96 14.0567 525.566 15 518.938C15.9433 525.566 20.0462 530.96 25.5106 531.825L26.6185 532L25.5106 532.175Z" stroke="#6444F4" stroke-width="2"/>
<defs>
<filter id="filter0_f_6654_30488" x="-33.7664" y="116.951" width="684.991" height="661.656" filterUnits="userSpaceOnUse" color-interpolation-filters="sRGB">
<feFlood flood-opacity="0" result="BackgroundImageFix"/>
<feBlend mode="normal" in="SourceGraphic" in2="BackgroundImageFix" result="shape"/>
<feGaussianBlur stdDeviation="63.807" result="effect1_foregroundBlur_6654_30488"/>
</filter>
<filter id="filter1_f_6654_30488" x="-172.966" y="592.214" width="456.08" height="393.12" filterUnits="userSpaceOnUse" color-interpolation-filters="sRGB">
<feFlood flood-opacity="0" result="BackgroundImageFix"/>
<feBlend mode="normal" in="SourceGraphic" in2="BackgroundImageFix" result="shape"/>
<feGaussianBlur stdDeviation="68.6298" result="effect1_foregroundBlur_6654_30488"/>
</filter>
<filter id="filter2_f_6654_30488" x="-102.837" y="178.747" width="672.773" height="768.526" filterUnits="userSpaceOnUse" color-interpolation-filters="sRGB">
<feFlood flood-opacity="0" result="BackgroundImageFix"/>
<feBlend mode="normal" in="SourceGraphic" in2="BackgroundImageFix" result="shape"/>
<feGaussianBlur stdDeviation="68.6298" result="effect1_foregroundBlur_6654_30488"/>
</filter>
<radialGradient id="paint0_radial_6654_30488" cx="0" cy="0" r="1" gradientUnits="userSpaceOnUse" gradientTransform="translate(94.5 543.701) rotate(90) scale(229.475 225.5)">
<stop stop-color="white"/>
<stop offset="1" stop-color="white" stop-opacity="0"/>
<stop offset="1" stop-opacity="0"/>
</radialGradient>
<radialGradient id="paint1_radial_6654_30488" cx="0" cy="0" r="1" gradientUnits="userSpaceOnUse" gradientTransform="translate(293 413.351) rotate(90) scale(213.119 209)">
<stop stop-color="white"/>
<stop offset="1" stop-color="white" stop-opacity="0"/>
<stop offset="1" stop-opacity="0"/>
</radialGradient>
</defs>
</svg>
