<svg width="30" height="40" viewBox="0 0 30 40" fill="none" xmlns="http://www.w3.org/2000/svg">
<path d="M14.1582 0.470923C14.2128 -0.156974 14.88 -0.156974 14.9346 0.470923L15.3923 5.73841C15.9832 12.5402 19.9101 17.9028 24.8907 18.7099L28.7479 19.3349C29.2078 19.4094 29.2078 20.3206 28.7479 20.3951L24.8907 21.0201C19.9101 21.8272 15.9832 27.1898 15.3923 33.9915L14.9346 39.259C14.88 39.887 14.2128 39.887 14.1582 39.259L13.7005 33.9915C13.1096 27.1898 9.18269 21.8272 4.20202 21.0201L0.344839 20.3951C-0.114946 20.3206 -0.114946 19.4094 0.344839 19.3349L4.20202 18.7099C9.18269 17.9028 13.1096 12.5402 13.7005 5.73841L14.1582 0.470923Z" fill="#6444F4"/>
</svg>
